SplineFontDB: 3.2
FontName: Scrivener
FullName: Scrivener
FamilyName: Scrivener
Weight: Regular
Copyright: Copyright (c) 2024, Kevin Smith
Version: 001.000
ItalicAngle: 0
UnderlinePosition: -100
UnderlineWidth: 50
Ascent: 650
Descent: 350
InvalidEm: 0
sfntRevision: 0x00010000
LayerCount: 2
Layer: 0 0 "Back" 1
Layer: 1 0 "Fore" 0
XUID: [1021 154 1557044757 1433364]
StyleMap: 0x0000
FSType: 0
OS2Version: 4
OS2_WeightWidthSlopeOnly: 0
OS2_UseTypoMetrics: 1
CreationTime: 1708861063
ModificationTime: 1709349575
PfmFamily: 17
TTFWeight: 400
TTFWidth: 5
LineGap: 90
VLineGap: 0
Panose: 2 0 5 3 0 0 0 0 0 0
OS2TypoAscent: 650
OS2TypoAOffset: 0
OS2TypoDescent: -350
OS2TypoDOffset: 0
OS2TypoLinegap: 90
OS2WinAscent: 668
OS2WinAOffset: 0
OS2WinDescent: 356
OS2WinDOffset: 0
HheadAscent: 668
HheadAOffset: 0
HheadDescent: -356
HheadDOffset: 0
OS2SubXSize: 650
OS2SubYSize: 700
OS2SubXOff: 0
OS2SubYOff: 140
OS2SupXSize: 650
OS2SupYSize: 700
OS2SupXOff: 0
OS2SupYOff: 480
OS2StrikeYSize: 49
OS2StrikeYPos: 258
OS2XHeight: 323
OS2Vendor: 'PfEd'
OS2CodePages: 00000001.00000000
OS2UnicodeRanges: a000004f.10002000.08008000.00000000
Lookup: 4 0 1 "'rlig' Required Ligatures lookup 2" { "'rlig' Required Ligatures lookup 2 per glyph data 0"  "'rlig' Required Ligatures lookup 2 per glyph data 1"  } ['rlig' ('DFLT' <'dflt' > 'latn' <'dflt' > 'runr' <'dflt' > ) ]
Lookup: 4 0 1 "'rlig' Required Ligatures lookup 3" { "'rlig' Required Ligatures lookup 3 subtable"  } ['rlig' ('DFLT' <'dflt' > 'latn' <'dflt' > 'runr' <'dflt' > ) ]
Lookup: 258 0 0 "'kern' Horizontal Kerning lookup 0" { "'kern' Horizontal Kerning lookup 0 subtable"  } ['kern' ('DFLT' <'dflt' > 'latn' <'dflt' > 'runr' <'dflt' > ) ]
Lookup: 258 0 0 "'kern' Horizontal Kerning lookup 1" { "'kern' Horizontal Kerning lookup 1 subtable"  } ['kern' ('DFLT' <'dflt' > 'latn' <'dflt' > 'runr' <'dflt' > ) ]
MarkAttachClasses: 1
DEI: 91125
KernClass2: 20 18 "'kern' Horizontal Kerning lookup 0 subtable"
 7 uni0061

StartChar: .notdef
Encoding: 65536 -1 0
Width: 500
GlyphClass: 1
Flags: MW
HStem: 0 50<100 400 100 450> 383 50<100 400 100 100>
VStem: 50 50<50 50 50 383> 400 50<50 383 383 383>
LayerCount: 2
Fore
SplineSet
50 0 m 1
 50 433 l 1
 450 433 l 1
 450 0 l 1
 50 0 l 1
100 50 m 1
 400 50 l 1
 400 383 l 1
 100 383 l 1
 100 50 l 1
EndSplineSet
EndChar

StartChar: novianDecorationRight
Encoding: 0 0 1
Width: 810
GlyphClass: 3
Flags: W
LayerCount: 2
Fore
SplineSet
434.46875 570.643554688 m 1
 713.401367188 291.711914062 l 1
 717.401367188 284.784179688 l 1
 438.46875 5.8515625 l 1
 376.115234375 -30.1484375 l 1
 97.18359375 248.784179688 l 1
 93.18359375 255.711914062 l 1
 372.115234375 534.643554688 l 1
 434.46875 570.643554688 l 1
716.958984375 498.856445312 m 0
 716.958984375 479.026367188 714.532226562 461.319335938 703.96875 455.220703125 c 2
 641.615234375 419.220703125 l 2
 639.086914062 417.760742188 636.092773438 416.965820312 632.553710938 416.965820312 c 0
 612.8671875 416.965820312 576.333007812 441.5625 509.473632812 513.1328125 c 1
 505.473632812 520.060546875 l 1
 567.827148438 556.060546875 l 1
 603.194335938 518.201171875 630.076171875 493.486328125 650.466796875 478.603515625 c 1
 650.466796875 478.653320312 650.462890625 478.703125 650.462890625 478.752929688 c 2
 712.81640625 514.752929688 l 1
 716.81640625 507.825195312 l 2
 716.905273438 504.809570312 716.958984375 501.809570312 716.958984375 498.856445312 c 0
690.90625 158.12890625 m 0
 701.34765625 158.12890625 704.170898438 153.235351562 710.7265625 141.879882812 c 0
 715.640625 133.368164062 716.95703125 119.916015625 716.95703125 105.311523438 c 0
 716.95703125 102.358398438 716.903320312 99.3583984375 716.814453125 96.3427734375 c 2
 654.4609375 60.3427734375 l 1
 650.4609375 67.2705078125 l 2
 650.549804688 70.2861328125 650.603515625 73.2861328125 650.603515625 76.2392578125 c 0
 650.603515625 88.8310546875 649.625 100.56640625 646.206054688 109.017578125 c 0
 643.034179688 112.837890625 638.740234375 115.091796875 632.97265625 115.196289062 c 0
 616.114257812 100.553710938 595.943359375 80.849609375 571.826171875 55.033203125 c 1
 509.47265625 19.033203125 l 1
 505.47265625 25.9609375 l 1
 550.33203125 73.982421875 581.540039062 100.856445312 603.166992188 113.342773438 c 2
 665.520507812 149.342773438 l 2
 676.126953125 155.465820312 684.428710938 158.12890625 690.90625 158.12890625 c 0
649.58203125 254.244140625 m 1
 389.290039062 514.53515625 l 1
 160.999023438 286.244140625 l 1
 421.290039062 25.9521484375 l 1
 649.58203125 254.244140625 l 1
EndSplineSet
Ligature2: "'rlig' Required Ligatures lookup 3 subtable" uni005D uni200D uni25C7
EndChar

StartChar: uni002C
Encoding: 44 44 3
Width: 221
GlyphClass: 2
Flags: MW
HStem: -76.5442 145.798
VStem: 98.4963 66.3538
LayerCount: 2
Fore
SplineSet
98.49609375 -22.1962890625 m 0
 98.49609375 -20.4345703125 98.220703125 -18.7021484375 97.6220703125 -17.015625 c 0
 82.103515625 6.53125 65.974609375 26.326171875 65.974609375 26.326171875 c 1
 61.974609375 33.25390625 l 1
 124.328125 69.25390625 l 1
 127.32421875 65.5771484375 148.791992188 38.8671875 162.778320312 14.6416015625 c 0
 164.211914062 12.158203125 164.849609375 9.55078125 164.849609375 6.8759765625 c 0
 164.849609375 -14.6689453125 123.467773438 -40.54296875 123.467773438 -40.54296875 c 1
 61.1142578125 -76.54296875 l 1
 57.1142578125 -69.615234375 l 1
 57.1142578125 -69.615234375 98.49609375 -43.7412109375 98.49609375 -22.1962890625 c 0
EndSplineSet
EndChar

StartChar: uni002E
Encoding: 46 46 4
Width: 213
GlyphClass: 2
Flags: MW
HStem: -20.6535 89.9077
VStem: 57.1141 100.374
LayerCount: 2
Fore
SplineSet
61.1142578125 26.326171875 m 1
 57.1142578125 33.25390625 l 1
 119.467773438 69.25390625 l 1
 153.48828125 22.2744140625 l 1
 157.48828125 15.3466796875 l 1
 95.134765625 -20.6533203125 l 1
 61.1142578125 26.326171875 l 1
EndSplineSet
EndChar

StartChar: uni005B
Encoding: 91 91 5
Width: 162
GlyphClass: 2
Flags: MW
HStem: 570.089 43.7138
VStem: 45.2635 66.3538
LayerCount: 2
Fore
SplineSet
110.897460938 613.802734375 m 0
 111.633789062 613.802734375 163.150390625 613.015625 184.571289062 613.015625 c 0
 192.231445312 613.015625 206.041992188 613.015625 207.375 613.78515625 c 2
 211.375 606.857421875 l 2
 211.375 606.815429688 211.375 606.815429688 148.952148438 570.775390625 c 0
 148.063476562 570.262695312 138.751953125 570.087890625 126.216796875 570.087890625 c 0
 122.401367188 570.087890625 118.287109375 570.104492188 114.020507812 570.131835938 c 1
 113.465820312 438.131835938 111.616210938 -10.392578125 111.616210938 -123.182617188 c 0
 111.616210938 -131.333007812 111.625976562 -137.73046875 111.646484375 -142.12890625 c 1
 215.475585938 -141.348632812 l 1
 219.475585938 -148.276367188 l 1
 157.122070312 -184.276367188 l 1
 157.122070312 -184.276367188 49.6474609375 -185.083984375 49.390625 -185.083984375 c 2
 45.390625 -178.15625 l 2
 45.302734375 -178.002929688 45.263671875 -168.6953125 45.263671875 -152.25390625 c 0
 45.263671875 -144.953125 47.3681640625 574.01953125 47.82421875 577.788085938 c 0
 110.203125 613.802734375 110.203125 613.802734375 110.897460938 613.802734375 c 0
EndSplineSet
EndChar

StartChar: uni005D
Encoding: 93 93 6
Width: 162
GlyphClass: 2
Flags: MW
HStem: -185.084 43.3959 570.848 42.17
VStem: 131.378 66.3584
LayerCount: 2
Fore
SplineSet
128.852539062 570.84765625 m 1
 64.87109375 570.08984375 64.8740234375 570.08984375 58.4306640625 570.08984375 c 0
 45.46875 570.08984375 35.9541015625 570.276367188 35.6337890625 570.831054688 c 2
 31.6337890625 577.758789062 l 2
 31.625 577.788085938 93.978515625 613.788085938 93.978515625 613.788085938 c 1
 94.2919921875 613.245117188 102.012695312 613.018554688 116.783203125 613.018554688 c 0
 138.203125 613.018554688 189.720703125 613.803710938 190.45703125 613.803710938 c 0
 190.923828125 613.803710938 191.171875 613.798828125 191.177734375 613.788085938 c 2
 195.177734375 606.859375 l 2
 195.177734375 599.55859375 197.737304688 16.599609375 197.737304688 -123.180664062 c 0
 197.737304688 -139.712890625 197.697265625 -149.032226562 197.607421875 -149.083984375 c 2
 135.252929688 -185.083984375 l 1
 27.5234375 -184.274414062 l 1
 23.5234375 -177.346679688 l 1
 85.876953125 -141.346679688 l 1
 85.876953125 -141.346679688 107.50390625 -141.508789062 131.377929688 -141.688476562 c 1
 131.266601562 -0.4951171875 129.12890625 505.623046875 128.852539062 570.84765625 c 1
EndSplineSet
EndChar

StartChar: uni0061
Encoding: 97 97 7
Width: 401
GlyphClass: 2
Flags: MW
HStem: -20.9414 42.9277<55.1099 131.13> 279.856 42.9277<62.9858 144.738>
VStem: 20.1494 66.3545<60.1255 72.2627>
LayerCount: 2
Back
SplineSet
141 236 m 0
 28 86 40.8264144775 0 87 0 c 3
 112 0 176 32 220 58 c 1025
36 276 m 1
 67 294 78.9462890625 298 97 298 c 3
 180.006023878 298 252.991228745 0 310 0 c 3
 315 0 328 6 357 22 c 1025
EndSplineSet
Fore
SplineSet
127.9140625 228.755859375 m 1
 106.26171875 261.305664062 87.7880859375 279.856445312 67.6513671875 279.856445312 c 0
 58.3203125 279.856445312 48.287109375 276.9609375 39.025390625 273.075195312 c 2
 4.4716796875 253.125976562 l 1
 0.4716796875 260.053710938 l 1
 7.4384765625 265.401367188 7.4384765625 265.401367188 80.0302734375 307.311523438 c 0
 92.68359375 314.6171875 110.333984375 322.784179688 126.004882812 322.784179688 c 0
 163.470703125 322.784179688 200.024414062 253.236328125 239.76171875 174.204101562 c 0
 267.616210938 118.805664062 293.534179688 67.2587890625 329.314453125 25.513671875 c 0
 330.897460938 23.66796875 333.423828125 22.8955078125 336.545898438 22.8955078125 c 0
 348.993164062 22.8955078125 365.86328125 32.634765625 384.39453125 43.333984375 c 1
 388.39453125 36.40625 l 2
 385.337890625 34.44140625 385.337890625 34.44140625 318.2890625 -4.26953125 c 0
 307.838867188 -10.302734375 289.26953125 -20.033203125 278.19140625 -20.033203125 c 0
 275.0703125 -20.033203125 272.54296875 -19.2607421875 270.9609375 -17.4140625 c 0
 253.224609375 3.279296875 237.194335938 27.5625 222.345703125 53.1357421875 c 1
 213.446289062 47.4306640625 213.446289062 47.4306640625 142.561523438 6.5048828125 c 0
 117.390625 -8.02734375 88.578125 -20.94140625 65.6728515625 -20.94140625 c 0
 44.546875 -20.94140625 35.9375 -9.921875 31.8505859375 -2.84375 c 0
 24.8154296875 9.3427734375 20.1494140625 17.423828125 20.1494140625 36.2470703125 c 0
 20.1494140625 108.278320312 104.9609375 215.50390625 104.9609375 215.50390625 c 1
 127.9140625 228.755859375 l 1
86.50390625 65.3193359375 m 0
 86.50390625 54.931640625 88.267578125 45.27734375 92.302734375 36.7802734375 c 0
 99.7529296875 26.212890625 110.922851562 21.986328125 124.026367188 21.986328125 c 0
 138.233398438 21.986328125 154.712890625 26.955078125 171.186523438 34.1962890625 c 0
 186.920898438 45.0869140625 197.30078125 53.50390625 197.30078125 53.50390625 c 1
 215.926757812 64.2578125 l 1
 200.716796875 90.8193359375 186.736328125 118.624023438 173.408203125 145.131835938 c 0
 162.885742188 166.060546875 152.768554688 186.181640625 142.7734375 204.245117188 c 1
 118.14453125 166.44140625 86.50390625 109.315429688 86.50390625 65.3193359375 c 0
EndSplineSet
EndChar

StartChar: uni0062
Encoding: 98 98 8
Width: 366
GlyphClass: 2
Flags: MW
HStem: -21.6877 42.9282 279.832 42.9282 648.654 20G
VStem: 28.3656 66.3538 38.1445 80.1184 276.577 66.3538
LayerCount: 2
Back
SplineSet
102 252 m 1
 284 357 310 272.004132161 310 151 c 3
 310 40.9954546394 248 0 155 0 c 3
 114 0 64 40.8452405258 64 70 c 7
 64 129.22837158 77 423 87 649 c 5
 56 630 l 5
 84 570 72 282 64 70 c 1029
EndSplineSet
Fore
SplineSet
28.365234375 67.853515625 m 0xf4
 28.365234375 69.4013671875 31.8662109375 146.424804688 34.3291015625 222.504882812 c 1
 34.052734375 222.983398438 l 2
 34.140625 225 38.146484375 318.141601562 38.146484375 424.838867188 c 0
 38.146484375 580.389648438 28.3046875 608.374023438 23.138671875 617.322265625 c 1
 53.365234375 634.58203125 82.8994140625 652.533203125 114.265625 668.65234375 c 1
 118.265625 661.724609375 l 1xec
 101.493164062 276.975585938 101.493164062 276.975585938 100.856445312 256.983398438 c 1
 156.3359375 289.014648438 l 2
 193.500976562 310.471679688 227.74609375 322.758789062 256.293945312 322.758789062 c 0
 299.095703125 322.758789062 314.16796875 296.653320312 323.994140625 279.634765625 c 0
 336.142578125 258.592773438 342.931640625 227.751953125 342.931640625 185.5078125 c 0
 342.931640625 170.2578125 342.046875 153.521484375 340.209960938 135.224609375 c 0
 334.920898438 82.541015625 310.844726562 49.4306640625 279.689453125 31.443359375 c 2
 217.3359375 -4.556640625 l 2
 196.819335938 -16.4013671875 173.233398438 -21.6884765625 149.920898438 -21.6884765625 c 0
 103.888671875 -21.6884765625 58.923828125 -1.07421875 40.7705078125 30.369140625 c 0
 33.6513671875 42.7001953125 28.365234375 51.8564453125 28.365234375 67.853515625 c 0xf4
94.720703125 96.92578125 m 0xf4
 94.720703125 87.3134765625 97.044921875 78.234375 101.2421875 69.86328125 c 0
 120.596679688 40.361328125 163.94140625 21.2392578125 208.276367188 21.2392578125 c 0
 219.278320312 21.2392578125 230.341796875 22.4169921875 241.114257812 24.90625 c 1
 258.178710938 43.99609375 270.290039062 70.623046875 273.856445312 106.15234375 c 0
 275.693359375 124.44921875 276.578125 141.185546875 276.578125 156.435546875 c 0
 276.578125 196.366210938 270.512695312 226.108398438 259.587890625 247.017578125 c 0
 245.140625 269.674804688 223.895507812 279.83203125 197.940429688 279.83203125 c 0
 177.044921875 279.83203125 151.893554688 275.571289062 127.18359375 261.305664062 c 2
 100.49609375 245.897460938 l 1
 98.13671875 174.239257812 94.720703125 98.158203125 94.720703125 96.92578125 c 0xf4
EndSplineSet
EndChar

StartChar: uni0063
Encoding: 99 99 9
Width: 393
GlyphClass: 2
Flags: HMW
HStem: -21.4639 42.9277<124.246 208.596> 279.856 42.9277
VStem: 30.7773 66.3545<139.227 150.256>
LayerCount: 2
Back
SplineSet
337 243 m 5
 314 274 284.040810958 299.444335938 204 299.444335938 c 7
 137.999999999 299.444335938 62 204.033324079 62 144 c 7
 62 69 104 0 157 0 c 7
 219.110072597 0 283 46 300 65 c 1037
EndSplineSet
Fore
SplineSet
97.1318359375 153.856445312 m 0
 97.1318359375 124.596679688 103.833984375 95.6162109375 116.717773438 71.7275390625 c 0
 135.18359375 41.8212890625 164.162109375 21.4638671875 202.481445312 21.4638671875 c 0
 214.709960938 21.4638671875 227.202148438 24.2216796875 239.35546875 28.6259765625 c 0
 256.836914062 42.09765625 268.107421875 53.50390625 268.107421875 53.50390625 c 1
 330.461914062 89.50390625 l 1
 334.461914062 82.576171875 l 1
 334.461914062 82.576171875 308.202148438 56 273.676757812 36.0673828125 c 2
 211.323242188 0.0673828125 l 2
 190.604492188 -11.89453125 166.91015625 -21.4638671875 144.126953125 -21.4638671875 c 0
 104.365234375 -21.4638671875 74.66015625 0.455078125 56.322265625 32.2177734375 c 0
 47.37109375 47.7216796875 30.77734375 76.462890625 30.77734375 124.784179688 c 0
 30.77734375 175.727539062 74.1396484375 243.825195312 124.315429688 272.793945312 c 2
 186.669921875 308.793945312 l 2
 201.913085938 317.594726562 217.78515625 322.784179688 233.26171875 322.784179688 c 0
 331.395507812 322.755859375 364.219726562 269.325195312 367.450195312 264.065429688 c 0
 367.901367188 263.33203125 367.901367188 263.33203125 371.719726562 256.721679688 c 1
 309.365234375 220.721679688 l 2
 309.3515625 220.721679688 309.263671875 220.865234375 309.096679688 221.13671875 c 0
 305.865234375 226.396484375 273.041015625 279.827148438 174.907226562 279.856445312 c 0
 169.80859375 279.856445312 164.666015625 279.29296875 159.517578125 278.22265625 c 0
 123.8046875 244.31640625 97.1318359375 193.810546875 97.1318359375 153.856445312 c 0
EndSplineSet
EndChar

StartChar: uni0064
Encoding: 100 100 10
Width: 400
GlyphClass: 2
Flags: HMW
HStem: -21.4639 42.9277<125.548 203.783> 279.856 42.9277 648.653 20G<357.684 357.684>
VStem: 32.0791 66.3545<139.227 150.256> 269.408 66.5889<46.0996 53.5039> 280.712 62.873
LayerCount: 2
Back
SplineSet
391 18 m 4
 372 7 350.411728335 0 327 0 c 7
 308.889229724 0 304 29 305 70 c 5
 305 128.228515625 318 423 328 649 c 5
 297 630 l 5
 325 570 313 282 305 70 c 1029
312 270 m 0
 290.3828125 286.688476562 257.292178671 299.444335938 204 299.444335938 c 3
 137.999999999 299.444335938 62 204.033324079 62 144 c 3
 62 69 104 0 157 0 c 3
 219.110072597 0 283 46 300 65 c 1033
EndSplineSet
Fore
SplineSet
308.184570312 -19.7275390625 m 0xf8
 294.294921875 -19.7275390625 283.5703125 -15.37109375 277.965820312 -5.6640625 c 0
 271.685546875 5.21484375 269.643554688 8.7509765625 269.643554688 19.9462890625 c 0
 269.643554688 21.173828125 269.643554688 21.173828125 270.172851562 33.29296875 c 1
 212.624023438 0.06640625 l 2
 191.90625 -11.89453125 168.211914062 -21.4638671875 145.428710938 -21.4638671875 c 0
 105.666992188 -21.4638671875 75.9619140625 0.455078125 57.6240234375 32.216796875 c 0
 48.6728515625 47.7216796875 32.0791015625 76.462890625 32.0791015625 124.784179688 c 0
 32.0791015625 175.727539062 75.4404296875 243.825195312 125.616210938 272.793945312 c 2
 187.970703125 308.793945312 l 2
 203.213867188 317.594726562 219.0859375 322.784179688 234.5625 322.784179688 c 0
 251.448242188 322.779296875 266.401367188 321.193359375 279.6015625 318.543945312 c 1
 280.293945312 354.7421875 280.711914062 390.4453125 280.711914062 423.927734375 c 0
 280.711914062 581.279296875 271.458984375 608.83203125 266.556640625 617.323242188 c 1
 296.783203125 634.583007812 326.317382812 652.534179688 357.68359375 668.653320312 c 1
 361.68359375 661.725585938 l 1
 355.578125 525.1953125 349.051757812 388.11328125 343.584960938 251.916992188 c 0xf4
 339.6640625 154.25390625 335.997070312 49.693359375 335.997070312 49.017578125 c 0
 335.997070312 43.181640625 336.883789062 38.1962890625 338.548828125 34.0068359375 c 0
 344.537109375 26.576171875 354.311523438 23.201171875 366.5390625 23.201171875 c 0
 383.048828125 23.201171875 404.029296875 29.35546875 426.200195312 39.994140625 c 1
 430.200195312 33.06640625 l 1
 367.845703125 -2.93359375 l 2
 345.67578125 -13.5732421875 324.694335938 -19.7275390625 308.184570312 -19.7275390625 c 0xf8
98.43359375 153.856445312 m 0
 98.43359375 124.596679688 105.135742188 95.6162109375 118.01953125 71.7275390625 c 0
 136.485351562 41.8212890625 165.462890625 21.4638671875 203.783203125 21.4638671875 c 0
 206.071289062 21.908203125 228.502929688 24.2216796875 240.65625 28.625 c 0
 258.137695312 42.09765625 269.408203125 53.50390625 269.408203125 53.50390625 c 1xf8
 271.084960938 54.4716796875 l 1
 273.455078125 110.391601562 276.271484375 183.706054688 278.243164062 258.956054688 c 1
 273.2265625 256.060546875 l 1
 252.249023438 268.682617188 221.046875 279.84375 176.208007812 279.856445312 c 0
 171.109375 279.856445312 165.966796875 279.29296875 160.818359375 278.22265625 c 0
 125.10546875 244.31640625 98.43359375 193.810546875 98.43359375 153.856445312 c 0
EndSplineSet
EndChar

StartChar: uni0065
Encoding: 101 101 11
Width: 394
GlyphClass: 2
Flags: MW
HStem: -21.4639 42.9277<125.636 203.871> 279.856 42.9277<173.748 283.719>
VStem: 32.167 66.3535<148.685 150.255>
LayerCount: 2
Back
SplineSet
300 65 m 17
 283 46 219.110072597 0 157 0 c 3
 104 0 62 69 62 144 c 3
 62 204.033324079 137.999999999 299.444335938 204 299.444335938 c 3
 284.040810958 299.444335938 314 274 337 243 c 1
 73 102 l 1049
EndSplineSet
Fore
SplineSet
145.517578125 -21.4638671875 m 0
 105.754882812 -21.4638671875 76.0498046875 0.4560546875 57.7119140625 32.21875 c 0
 48.7607421875 47.72265625 32.1669921875 76.4638671875 32.1669921875 124.784179688 c 0
 32.1669921875 175.7265625 75.529296875 243.825195312 125.705078125 272.793945312 c 2
 188.05859375 308.793945312 l 2
 203.302734375 317.594726562 219.174804688 322.784179688 234.651367188 322.784179688 c 0
 332.786132812 322.784179688 365.610351562 269.326171875 368.840820312 264.065429688 c 0
 369 263.806640625 369.086914062 263.6640625 369.107421875 263.651367188 c 0
 373.116210938 256.7109375 373.116210938 256.7109375 372.81640625 256.538085938 c 2
 310.462890625 220.538085938 l 2
 303.352539062 216.432617188 169.733398438 147.301757812 103.014648438 112.810546875 c 1
 106.295898438 98.1787109375 111.3515625 84.25390625 118.106445312 71.728515625 c 0
 136.573242188 41.822265625 165.551757812 21.4638671875 203.87109375 21.4638671875 c 0
 206.16015625 21.908203125 228.591796875 24.2216796875 240.745117188 28.625 c 0
 258.2265625 42.09765625 269.497070312 53.50390625 269.497070312 53.50390625 c 1
 331.850585938 89.50390625 l 1
 335.850585938 82.576171875 l 1
 335.850585938 82.576171875 309.591796875 56 275.065429688 36.06640625 c 2
 212.711914062 0.06640625 l 2
 191.994140625 -11.89453125 168.299804688 -21.4638671875 145.517578125 -21.4638671875 c 0
304.317382812 229.75 m 1
 290.791992188 246.309570312 254.037109375 279.856445312 176.297851562 279.856445312 c 0
 171.198242188 279.856445312 166.055664062 279.29296875 160.907226562 278.22265625 c 0
 125.193359375 244.31640625 98.5205078125 193.810546875 98.5205078125 153.856445312 c 0
 98.5205078125 143.513671875 99.3583984375 133.206054688 101.009765625 123.146484375 c 1
 124.110351562 136.483398438 l 1
 124.110351562 136.483398438 231.732421875 192.076171875 304.317382812 229.75 c 1
EndSplineSet
EndChar

StartChar: uni0066
Encoding: 102 102 12
Width: 225
GlyphClass: 2
Flags: MW
HStem: 290.471 42.9467 521.611 42.9282
VStem: 47.4132 66.1732
LayerCount: 2
Fore
SplineSet
182.258789062 564.5390625 m 0
 230.099609375 564.5390625 286.891601562 534.881835938 301.959960938 508.783203125 c 0
 307.858398438 498.56640625 308.544921875 497.376953125 309.384765625 493.24609375 c 2
 247.03125 457.24609375 l 1
 243.03125 464.173828125 l 2
 242.685546875 465.872070312 242.119140625 467.604492188 241.348632812 469.360351562 c 0
 223.49609375 494.537109375 169.61328125 521.612304688 123.903320312 521.612304688 c 0
 123.305664062 521.612304688 122.709960938 521.607421875 122.115234375 521.59765625 c 0
 114.637695312 505.182617188 114.586914062 490.547851562 114.51953125 471.3203125 c 0
 114.3359375 418.741210938 114.162109375 369.087890625 113.86328125 322.5 c 1
 167.416992188 327.249023438 238.841796875 333.418945312 248.41796875 333.418945312 c 0
 249.088867188 333.418945312 249.456054688 333.388671875 249.4921875 333.325195312 c 2
 249.4921875 333.325195312 253.4921875 326.397460938 253.495117188 326.38671875 c 2
 191.141601562 290.38671875 l 2
 191.071289062 290.444335938 190.69921875 290.471679688 190.048828125 290.471679688 c 0
 183.6796875 290.471679688 150.662109375 287.809570312 113.584960938 284.638671875 c 1
 111.552734375 43.974609375 104.825195312 -107.463867188 72.4365234375 -148.2734375 c 1
 10.0830078125 -184.2734375 l 1
 6.0830078125 -177.345703125 l 1
 39.50390625 -135.235351562 45.6015625 24.6689453125 47.4111328125 278.8515625 c 1
 17.8359375 276.220703125 -4.4970703125 274.186523438 -4.4970703125 274.186523438 c 1
 -8.4970703125 281.114257812 l 1
 47.630859375 313.51953125 l 1
 47.8564453125 353.697265625 47.984375 390.138671875 48.2041015625 452.833984375 c 0
 48.3251953125 487.54296875 60.8388671875 508.223632812 79.4775390625 518.984375 c 2
 141.831054688 554.984375 l 2
 153.436523438 561.684570312 167.416992188 564.5390625 182.258789062 564.5390625 c 0
EndSplineSet
EndChar

StartChar: uni0067
Encoding: 103 103 13
Width: 428
GlyphClass: 2
Flags: MW
HStem: -337.379 42.9287<141.141 216.091> -21.4639 42.9277<133.552 218.247> 279.856 42.9277 281.704 43.4385
VStem: 13.4824 66.3535<-257.31 -202.387> 43.9512 66.3545<129.513 142.336> 152.865 66.3545<-81.1152 -38.292> 316.692 66.3545<-222.315 -175.673> 324.103 66.3535<180.735 194.568>
LayerCount: 2
Fore
SplineSet
119.459960938 316.366210938 m 0xe7
 200.50390625 316.366210938 298.575195312 325.142578125 380.825195312 325.142578125 c 0xd7
 403.454101562 325.142578125 424.884765625 324.478515625 444.434570312 322.784179688 c 1
 448.434570312 315.856445312 l 1
 386.080078125 279.856445312 l 2
 383.181640625 280.107421875 380.2421875 280.3359375 377.263671875 280.54296875 c 1
 385.3671875 261.043945312 390.456054688 235.2734375 390.456054688 207.39453125 c 0xe680
 390.456054688 154.076171875 371.840820312 93.0439453125 320.094726562 53.416015625 c 0
 251.514648438 0.896484375 219.219726562 -27.4345703125 219.219726562 -49.1494140625 c 0
 219.219726562 -51.8017578125 219.701171875 -54.3564453125 220.658203125 -56.84375 c 0
 245.016601562 -88.287109375 347.44921875 -108.877929688 373.412109375 -153.846679688 c 0
 380.009765625 -165.2734375 383.046875 -170.534179688 383.046875 -180.811523438 c 0
 383.046875 -216.736328125 330.086914062 -252.286132812 300.7265625 -269.236328125 c 2
 238.373046875 -305.236328125 l 2
 209.80078125 -321.732421875 174.599609375 -337.37890625 149.674804688 -337.37890625 c 0
 132.606445312 -337.37890625 53.2587890625 -334.782226562 25.90625 -287.40625 c 0
 18.79296875 -275.084960938 13.482421875 -265.887695312 13.482421875 -248.732421875 c 0
 13.482421875 -214.185546875 39.74609375 -174.765625 90.1201171875 -143.326171875 c 2
 152.474609375 -107.326171875 l 1
 156.474609375 -114.25390625 l 1
 106.099609375 -145.693359375 79.8359375 -185.11328125 79.8359375 -219.66015625 c 0xeb
 79.8359375 -229.57421875 81.9990234375 -239.086914062 86.3759765625 -247.895507812 c 0
 115.515625 -291.895507812 190.916015625 -294.450195312 208.028320312 -294.450195312 c 0
 224.153320312 -294.450195312 244.579101562 -287.90234375 264.727539062 -278.8125 c 1
 291.325195312 -259.59375 316.692382812 -234.74609375 316.692382812 -209.883789062 c 0
 316.692382812 -204.073242188 315.348632812 -198.56640625 312.879882812 -193.323242188 c 0
 282.458984375 -148.942382812 178.875976562 -129.060546875 159.977539062 -96.3291015625 c 0
 153.928710938 -85.8515625 152.865234375 -84.009765625 152.865234375 -78.220703125 c 0
 152.865234375 -60.3603515625 174.713867188 -38.0244140625 220.629882812 -1.4345703125 c 1
 202.28515625 -11.373046875 158.318359375 -20.69921875 152.634765625 -21.4638671875 c 0
 114.469726562 -21.4638671875 85.3623046875 1.6953125 67.642578125 32.3857421875 c 0
 59.33984375 46.7666015625 43.951171875 73.419921875 43.951171875 111.90625 c 0
 43.951171875 172.766601562 86.78125 241.852539062 136.724609375 270.6875 c 2
 145.333007812 275.657226562 l 1
 116.196289062 274.384765625 87.732421875 273.4375 61.1064453125 273.4375 c 0
 25.8740234375 273.4375 -6.140625 275.096679688 -32.2392578125 279.856445312 c 1
 -36.2392578125 286.784179688 l 1
 26.115234375 322.784179688 l 1
 52.212890625 318.024414062 84.2275390625 316.366210938 119.459960938 316.366210938 c 0xe7
324.102539062 178.323242188 m 0xd680
 324.102539062 210.813476562 317.190429688 240.439453125 306.649414062 260.614257812 c 0
 300.77734375 269.793945312 294.04296875 276.240234375 286.900390625 279.046875 c 1
 285.366210938 281.704101562 l 2
 284.3828125 281.678710938 188.484375 278.346679688 187.080078125 277.536132812 c 0
 183.135742188 277.536132812 178.1015625 277.20703125 172.174804688 276.029296875 c 0
 136.681640625 241.565429688 110.305664062 188.739257812 110.305664062 140.978515625 c 0
 110.305664062 118.047851562 116.46875 93.333984375 128.040039062 71.890625 c 0
 145.913085938 42.9169921875 174.255859375 21.4638671875 210.989257812 21.4638671875 c 0
 225.50390625 21.4638671875 240.107421875 24.8134765625 254.045898438 30.0263671875 c 1
 270.782226562 42.87890625 281.280273438 53.50390625 281.280273438 53.50390625 c 1
 285.135742188 55.73046875 l 1
 313.263671875 92.4609375 324.102539062 137.637695312 324.102539062 178.323242188 c 0xd680
EndSplineSet
EndChar

StartChar: uni0068
Encoding: 104 104 14
Width: 382
GlyphClass: 2
Flags: MWO
HStem: 274.761 42.9282 648.654 20G
VStem: 38.9071 66.3538 51.6706 62.1838 289.434 66.3538
LayerCount: 2
Back
SplineSet
80 194 m 1
 113 247 158.999999999 299.444335938 208 299.444335938 c 3
 273.000000001 299.444335938 324 221 324 153 c 3
 324 58 271 -25 211 -60 c 1024
73 0 m 0
 74 31 74 29 75 70 c 1
 75 128.228515625 90 423 100 649 c 1
 69 630 l 1
 97 570 83 282 75 70 c 1025
EndSplineSet
Fore
SplineSet
178.55859375 274.760742188 m 0xd8
 172.831054688 274.760742188 166.999023438 274.182617188 161.091796875 272.981445312 c 0
 145.450195312 257.708984375 129.92578125 237.407226562 114.979492188 211.3671875 c 1
 113.853515625 210.716796875 l 1xd8
 105.259765625 14.537109375 l 1
 42.90625 -21.462890625 l 1
 38.90625 -14.53515625 l 1xe8
 46.462890625 157.97265625 51.669921875 310.698242188 51.669921875 432.734375 c 0
 51.669921875 581.801757812 43.271484375 609.033203125 38.484375 617.32421875 c 1
 68.7099609375 634.583007812 98.244140625 652.534179688 129.609375 668.654296875 c 1
 133.609375 661.7265625 l 1
 116.0859375 261.67578125 l 1
 120.720703125 264.887695312 120.720703125 264.887695312 187.760742188 303.592773438 c 0
 204.548828125 313.28515625 221.124023438 317.689453125 236.912109375 317.689453125 c 0
 273.521484375 317.689453125 305.89453125 294.009765625 326.866210938 257.686523438 c 0
 336.5390625 240.932617188 355.788085938 207.592773438 355.788085938 153.067382812 c 0
 355.788085938 85.6953125 324.1875 9.9794921875 242.401367188 -45.462890625 c 1
 180.047851562 -81.462890625 l 1
 176.047851562 -74.53515625 l 1
 257.833984375 -19.0927734375 289.434570312 56.623046875 289.434570312 123.995117188 c 0
 289.434570312 158.9765625 280.915039062 191.708007812 266.477539062 218.184570312 c 0
 245.478515625 252.563476562 214.00390625 274.760742188 178.55859375 274.760742188 c 0xd8
EndSplineSet
EndChar

StartChar: uni0069
Encoding: 105 105 15
Width: 151
GlyphClass: 2
Flags: MW
HStem: -20.6535 42.9282 302.784 20G 352.346 89.9077
VStem: 25.6604 100.374 47.7324 66.3538 59.8559 66.3538
LayerCount: 2
Fore
SplineSet
29.66015625 399.326171875 m 1x30
 25.66015625 406.25390625 l 1
 88.0146484375 442.25390625 l 1
 122.03515625 395.274414062 l 1
 126.03515625 388.346679688 l 1
 63.6806640625 352.346679688 l 1
 29.66015625 399.326171875 l 1x30
47.732421875 41.8603515625 m 0xc8
 47.732421875 96.98046875 59.85546875 180.778320312 59.85546875 234.658203125 c 0
 59.85546875 252.512695312 58.5244140625 267.08203125 54.9794921875 276.233398438 c 0
 52.8486328125 278.59375 50.267578125 279.856445312 47.169921875 279.856445312 c 0
 40.759765625 279.856445312 35.12890625 278.221679688 29.80859375 275.791015625 c 0
 5.720703125 261.883789062 5.720703125 261.883789062 2.6201171875 260.416015625 c 2
 -1.3798828125 267.34375 l 1
 -0.552734375 267.821289062 3.4208984375 270.169921875 81.296875 315.130859375 c 0
 88.689453125 319.399414062 96.2998046875 322.784179688 105.524414062 322.784179688 c 0
 111.657226562 322.784179688 113.29296875 319.952148438 119.486328125 309.223632812 c 0
 124.424804688 300.669921875 126.209960938 284.40234375 126.209960938 263.729492188 c 0xc4
 126.209960938 209.850585938 114.0859375 126.051757812 114.0859375 70.9326171875 c 0
 114.0859375 51.8720703125 115.536132812 36.2412109375 119.4375 26.462890625 c 0
 121.8046875 23.7392578125 124.698242188 22.2744140625 128.204101562 22.2744140625 c 0
 150.829101562 22.2744140625 153.072265625 23.5556640625 171.53515625 34.1015625 c 0
 173.828125 35.4111328125 176.37109375 36.8642578125 179.234375 38.474609375 c 2
 183.234375 31.546875 l 1
 124.911132812 -2.1259765625 124.911132812 -2.1259765625 113.180664062 -8.826171875 c 0
 94.71875 -19.3720703125 92.4755859375 -20.6533203125 69.849609375 -20.6533203125 c 0
 63.119140625 -20.6533203125 61.212890625 -17.353515625 54.94140625 -6.490234375 c 0
 49.6337890625 2.7041015625 47.732421875 20.033203125 47.732421875 41.8603515625 c 0xc8
EndSplineSet
EndChar

StartChar: uni006A
Encoding: 106 106 16
Width: 148
GlyphClass: 2
Flags: MW
HStem: 302.784 20G 352.987 89.9077
VStem: 27.6565 100.374 58.187 66.3538
LayerCount: 2
Fore
SplineSet
31.65625 399.966796875 m 1x60
 27.65625 406.89453125 l 1
 90.0107421875 442.89453125 l 1
 124.03125 395.915039062 l 1
 128.03125 388.987304688 l 1
 65.6767578125 352.987304688 l 1
 31.65625 399.966796875 l 1x60
108.331054688 322.784179688 m 0x90
 111.041992188 322.784179688 111.3515625 322.248046875 117.154296875 312.198242188 c 0
 122.586914062 302.7890625 124.541015625 276.096679688 124.541015625 242.274414062 c 0
 124.541015625 200.969726562 122.524414062 152.01953125 113.140625 33.166015625 c 0
 108.30859375 -28.0380859375 69.0478515625 -121.268554688 27.2001953125 -145.4296875 c 0
 -35.5185546875 -181.640625 -35.5185546875 -181.640625 -35.8837890625 -181.84375 c 2
 -39.8837890625 -174.916015625 l 1
 4.6044921875 -149.23046875 42.1826171875 -54.2275390625 46.7861328125 4.09375 c 0
 56.16015625 122.8203125 58.1865234375 171.83203125 58.1865234375 213.202148438 c 0
 58.1865234375 242.826171875 56.6875 266.979492188 52.666015625 278.841796875 c 0
 51.833984375 279.510742188 50.939453125 279.856445312 49.9765625 279.856445312 c 0
 44.4677734375 279.856445312 39.615234375 278.649414062 35.0703125 276.767578125 c 0
 9.0859375 261.765625 9.0859375 261.765625 6.236328125 260.416015625 c 2
 2.236328125 267.34375 l 2
 3.0732421875 267.827148438 0.9697265625 266.891601562 85.75 315.83984375 c 0
 92.5537109375 319.768554688 99.6220703125 322.784179688 108.331054688 322.784179688 c 0x90
EndSplineSet
EndChar

StartChar: uni006B
Encoding: 107 107 17
Width: 370
GlyphClass: 2
Flags: MW
HStem: -356.804 21G<9.56152 9.56152> -21.4639 42.9277<254.779 353.035> 279.856 42.9277<256.611 318.768> 648.653 20G<118.129 118.129>
VStem: 41.1582 68.1992
LayerCount: 2
Fore
SplineSet
5.5615234375 -349.875976562 m 1
 29.5654296875 -79.81640625 41.158203125 246.405273438 41.158203125 423.919921875 c 0
 41.158203125 581.27734375 31.9052734375 608.831054688 27.001953125 617.323242188 c 1
 57.228515625 634.583007812 86.7626953125 652.534179688 118.12890625 668.653320312 c 1
 122.12890625 661.725585938 l 2
 121.938476562 657.479492188 103.600585938 237.776367188 103.58203125 237.158203125 c 1
 114.251953125 245.299804688 114.251953125 245.299804688 188.825195312 288.354492188 c 0
 228.615234375 311.327148438 275.892578125 322.784179688 314.965820312 322.784179688 c 0
 322.569335938 322.784179688 327.23828125 314.697265625 334.071289062 302.862304688 c 0
 337.805664062 296.393554688 340.026367188 289.936523438 340.026367188 289.936523438 c 1
 277.671875 253.936523438 l 1
 273.671875 260.864257812 l 2
 272.154296875 265.278320312 266.401367188 279.856445312 256.611328125 279.856445312 c 0
 251.168945312 278.77734375 195.153320312 273.743164062 163.973632812 261.495117188 c 1
 135.451171875 237.908203125 114.604492188 206.62890625 109.985351562 167.625976562 c 0
 109.563476562 164.0703125 109.357421875 160.549804688 109.357421875 157.069335938 c 0
 109.357421875 142.185546875 113.137695312 128.010742188 120.12109375 114.77734375 c 0
 155.213867188 58.8955078125 248.5390625 21.4638671875 353.03515625 21.4638671875 c 1
 357.03515625 14.5361328125 l 1
 294.680664062 -21.4638671875 l 1
 214.877929688 -21.4638671875 141.588867188 0.3671875 95.7783203125 35.5751953125 c 1
 93.3056640625 -18.34765625 86.2998046875 -158.978515625 71.916015625 -320.803710938 c 1
 9.5615234375 -356.803710938 l 1
 5.5615234375 -349.875976562 l 1
EndSplineSet
EndChar

StartChar: uni006C
Encoding: 108 108 18
Width: 149
GlyphClass: 2
Flags: MW
HStem: -19.7275 42.9287 648.653 20G<120.37 120.37>
VStem: 32.3301 66.3545<14.3486 49.3545> 43.4004 62.8721
LayerCount: 2
Back
SplineSet
155 18 m 0
 136 7 114.412109375 0 91 0 c 3
 72.8896484375 0 68 29 69 70 c 1
 69 128.228515625 82 423 92 649 c 1
 61 630 l 1
 89 570 77 282 69 70 c 1025
EndSplineSet
Fore
SplineSet
32.330078125 19.9462890625 m 0xe0
 32.330078125 23.9873046875 43.400390625 253.865234375 43.400390625 423.919921875 c 0
 43.400390625 581.27734375 34.146484375 608.831054688 29.244140625 617.323242188 c 1
 59.4697265625 634.583007812 89.0048828125 652.534179688 120.370117188 668.653320312 c 1
 124.370117188 661.725585938 l 1
 118.265625 525.194335938 111.73828125 388.115234375 106.272460938 251.916992188 c 0xd0
 102.352539062 154.239257812 98.6845703125 49.69140625 98.6845703125 49.017578125 c 0
 98.6845703125 43.181640625 99.5712890625 38.1962890625 101.236328125 34.0068359375 c 0
 107.224609375 26.576171875 116.999023438 23.201171875 129.2265625 23.201171875 c 0
 145.736328125 23.201171875 166.717773438 29.35546875 188.887695312 39.994140625 c 1
 192.887695312 33.06640625 l 1
 130.534179688 -2.93359375 l 2
 108.364257812 -13.5732421875 87.3828125 -19.7275390625 70.873046875 -19.7275390625 c 0
 56.982421875 -19.7275390625 46.2568359375 -15.37109375 40.65234375 -5.6630859375 c 0
 34.3720703125 5.21484375 32.330078125 8.7509765625 32.330078125 19.9462890625 c 0xe0
EndSplineSet
EndChar

StartChar: uni006D
Encoding: 109 109 19
Width: 602
GlyphClass: 2
Flags: MW
HStem: 275.211 42.9282 302.784 20G
VStem: 19.66 66.3538 30.9995 66.3505 269.408 66.3538 501.22 66.3538
LayerCount: 2
Fore
SplineSet
217.92578125 318.139648438 m 0x9c
 254.186523438 318.139648438 286.192382812 294.778320312 306.958984375 258.810546875 c 0
 311.762695312 250.490234375 311.762695312 250.490234375 312.54296875 249.07421875 c 1
 321.05859375 256.780273438 329.590820312 263.022460938 338.065429688 267.915039062 c 2
 400.418945312 303.915039062 l 2
 417.180664062 313.592773438 433.717773438 317.991210938 449.458007812 317.991210938 c 0
 485.802734375 317.991210938 517.901367188 294.541015625 538.721679688 258.478515625 c 0
 548.383789062 241.743164062 567.568359375 208.514648438 567.568359375 153.935546875 c 0
 567.568359375 86.5595703125 536.125976562 10.626953125 454.809570312 -45.4619140625 c 1
 392.456054688 -81.4619140625 l 1
 388.456054688 -74.5341796875 l 1
 469.772460938 -18.4453125 501.21484375 57.4873046875 501.21484375 124.86328125 c 0
 501.21484375 159.872070312 492.725585938 192.571289062 478.333007812 218.975585938 c 0
 457.487304688 253.08984375 426.28515625 275.061523438 391.10546875 275.061523438 c 0
 385.411132812 275.061523438 379.61328125 274.486328125 373.73828125 273.29296875 c 0
 358.153320312 258.083007812 342.673828125 237.883789062 327.752929688 211.99609375 c 1
 332.924804688 194.083007812 335.759765625 174.620117188 335.759765625 154.375 c 0
 335.759765625 86.9951171875 304.35546875 10.951171875 223.151367188 -45.4619140625 c 1
 160.797851562 -81.4619140625 l 1
 156.797851562 -74.5341796875 l 1
 238.001953125 -18.12109375 269.40625 57.9228515625 269.40625 125.302734375 c 0
 269.40625 144.627929688 266.823242188 163.240234375 262.090820312 180.47265625 c 1
 261.0390625 182.294921875 l 2
 261.159179688 182.504882812 261.279296875 182.71484375 261.400390625 182.923828125 c 0
 257.633789062 195.97265625 252.626953125 208.19921875 246.573242188 219.306640625 c 0
 225.782226562 253.325195312 194.66796875 275.211914062 159.571289062 275.211914062 c 0
 153.875976562 275.211914062 148.076171875 274.635742188 142.198242188 273.44140625 c 0
 126.450195312 258.079101562 110.805664062 237.627929688 95.7333984375 211.3671875 c 1
 94.1787109375 210.469726562 l 1
 91.0400390625 171.08984375 86.6181640625 111.337890625 86.0126953125 14.537109375 c 1
 23.6591796875 -21.462890625 l 1
 19.6591796875 -14.53515625 l 1xac
 20.2978515625 87.546875 25.1806640625 148.426757812 28.3271484375 187.663085938 c 0
 29.8720703125 206.930664062 30.9990234375 220.979492188 30.9990234375 232.125 c 0
 30.9990234375 258.243164062 24.82421875 265.435546875 12.326171875 279.856445312 c 2
 8.326171875 286.784179688 l 1
 70.6796875 322.784179688 l 1x5c
 78.7294921875 313.49609375 80.8642578125 311.032226562 89.4052734375 296.239257812 c 0
 95.15234375 286.284179688 97.2548828125 276.734375 97.349609375 262.237304688 c 1
 101.916992188 265.39453125 101.916992188 265.39453125 168.88671875 304.059570312 c 0
 185.65234375 313.739257812 202.189453125 318.139648438 217.92578125 318.139648438 c 0x9c
EndSplineSet
EndChar

StartChar: uni006E
Encoding: 110 110 20
Width: 387
GlyphClass: 2
Flags: MW
HStem: 275.211 42.9282 302.784 20G
VStem: 45.8377 66.3538 57.1775 66.3504 295.507 66.3538
LayerCount: 2
Fore
SplineSet
244.077148438 318.139648438 m 0x98
 280.314453125 318.139648438 312.302734375 294.7890625 333.05859375 258.838867188 c 0
 342.71484375 242.11328125 361.862304688 208.94921875 361.862304688 154.370117188 c 0
 361.862304688 86.9912109375 330.477539062 10.94921875 249.333007812 -45.4638671875 c 1
 186.979492188 -81.4638671875 l 1
 182.979492188 -74.5361328125 l 1
 264.124023438 -18.123046875 295.508789062 57.9189453125 295.508789062 125.297851562 c 0
 295.508789062 160.305664062 287.037109375 192.974609375 272.669921875 219.336914062 c 0
 251.888671875 253.337890625 220.796875 275.211914062 185.723632812 275.211914062 c 0
 180.037109375 275.211914062 174.24609375 274.63671875 168.376953125 273.4453125 c 0
 152.629882812 258.08203125 136.985351562 237.62890625 121.911132812 211.366210938 c 1
 120.358398438 210.469726562 l 1
 117.219726562 171.08984375 112.797851562 111.337890625 112.192382812 14.5361328125 c 1
 49.8388671875 -21.4638671875 l 1
 45.8388671875 -14.5361328125 l 1xa8
 46.4775390625 87.5439453125 51.3603515625 148.423828125 54.5068359375 187.66015625 c 0
 56.0517578125 206.928710938 57.1787109375 220.977539062 57.1787109375 232.123046875 c 0
 57.1787109375 258.2421875 51.00390625 265.434570312 38.5048828125 279.856445312 c 2
 34.5048828125 286.784179688 l 1
 96.8583984375 322.784179688 l 1x58
 104.908203125 313.49609375 107.04296875 311.032226562 115.583984375 296.239257812 c 0
 121.330078125 286.286132812 123.43359375 276.737304688 123.528320312 262.244140625 c 1
 128.096679688 265.401367188 128.096679688 265.401367188 195.06640625 304.06640625 c 0
 211.823242188 313.741210938 228.350585938 318.139648438 244.077148438 318.139648438 c 0x98
EndSplineSet
EndChar

StartChar: uni006F
Encoding: 111 111 21
Width: 433
GlyphClass: 2
Flags: MW
HStem: -22.0713 42.9277<154.751 248.412> 279.856 42.9277<175.395 269.056>
VStem: 27.4863 66.3545<151.901 163.798> 329.967 66.3545<136.915 148.812>
LayerCount: 2
Fore
SplineSet
27.486328125 135.8203125 m 0
 27.486328125 191.776367188 57.9814453125 240.505859375 103.147460938 266.583007812 c 2
 165.500976562 302.583007812 l 2
 187.76171875 315.434570312 213.586914062 322.784179688 241.081054688 322.784179688 c 0
 297.030273438 322.784179688 346.067382812 292.348632812 372.225585938 247.040039062 c 0
 381.515625 230.948242188 396.321289062 205.305664062 396.321289062 164.892578125 c 0
 396.321289062 108.936523438 365.825195312 60.20703125 320.659179688 34.1298828125 c 2
 258.305664062 -1.8701171875 l 2
 236.044921875 -14.7216796875 210.220703125 -22.0712890625 182.7265625 -22.0712890625 c 0
 126.776367188 -22.0712890625 77.740234375 8.3642578125 51.58203125 53.671875 c 0
 42.291015625 69.763671875 27.486328125 95.40625 27.486328125 135.8203125 c 0
93.8408203125 164.892578125 m 0
 93.8408203125 138.909179688 100.416015625 114.484375 111.982421875 93.162109375 c 0
 138.600585938 49.759765625 186.557617188 20.8564453125 241.081054688 20.8564453125 c 0
 255.743164062 20.8564453125 269.931640625 22.947265625 283.357421875 26.84765625 c 1
 312.056640625 54.298828125 329.966796875 92.9375 329.966796875 135.8203125 c 0
 329.966796875 161.803710938 323.391601562 186.228515625 311.825195312 207.55078125 c 0
 285.20703125 250.953125 237.249023438 279.856445312 182.7265625 279.856445312 c 0
 168.063476562 279.856445312 153.875 277.765625 140.44921875 273.865234375 c 1
 111.750976562 246.4140625 93.8408203125 207.775390625 93.8408203125 164.892578125 c 0
EndSplineSet
EndChar

StartChar: uni0070
Encoding: 112 112 22
Width: 432
GlyphClass: 2
Flags: MW
HStem: -356.804 21G -22.0715 42.9282 279.856 42.9282
VStem: 40.0985 66.129 51.6189 66.2947 325.381 66.3538
LayerCount: 2
Fore
SplineSet
236.495117188 322.784179688 m 0xec
 292.4453125 322.784179688 341.477539062 292.349609375 367.635742188 247.04296875 c 0
 376.926757812 230.951171875 391.731445312 205.30859375 391.731445312 164.893554688 c 0
 391.731445312 108.9375 361.237304688 60.2080078125 316.071289062 34.130859375 c 2
 253.717773438 -1.869140625 l 2
 231.45703125 -14.7216796875 205.6328125 -22.0712890625 178.138671875 -22.0712890625 c 0
 152.140625 -22.0712890625 127.635742188 -15.5 106.225585938 -3.9189453125 c 1
 104.657226562 -107.567382812 97.1650390625 -320.803710938 97.1650390625 -320.803710938 c 1
 34.8115234375 -356.803710938 l 1
 30.8115234375 -349.875976562 l 1
 30.8115234375 -349.875976562 39.29296875 -108.49609375 40.09765625 -14.5361328125 c 0xf4
 40.9599609375 86.3193359375 45.78515625 146.95703125 48.9111328125 186.239257812 c 0
 50.4775390625 205.927734375 51.6171875 220.250976562 51.6171875 231.584960938 c 0
 51.6171875 258.065429688 45.4052734375 265.26953125 32.7626953125 279.857421875 c 2
 28.7626953125 286.78515625 l 1
 91.1162109375 322.78515625 l 1
 99.107421875 313.564453125 113.642578125 295.841796875 116.805664062 277.116210938 c 1
 160.916015625 302.583007812 l 2
 183.176757812 315.434570312 209.000976562 322.784179688 236.495117188 322.784179688 c 0xec
178.137695312 279.857421875 m 0
 163.474609375 279.857421875 149.286132812 277.766601562 135.860351562 273.866210938 c 0
 130.698242188 268.928710938 125.884765625 263.62890625 121.461914062 258.0078125 c 2
 117.908203125 255.956054688 l 1
 117.655273438 245.40625 116.618164062 232.373046875 115.260742188 215.311523438 c 0
 113.147460938 188.750976562 110.256835938 152.427734375 108.33984375 100.510742188 c 1
 110.353515625 101.673828125 l 1
 114.353515625 94.74609375 l 1
 108.5078125 91.37109375 l 1
 135.336914062 48.9658203125 182.720703125 20.857421875 236.491210938 20.857421875 c 0
 251.154296875 20.857421875 265.342773438 22.9482421875 278.768554688 26.8486328125 c 1
 307.466796875 54.2998046875 325.376953125 92.9384765625 325.376953125 135.821289062 c 0
 325.376953125 161.8046875 318.801757812 186.23046875 307.235351562 207.552734375 c 0
 280.6171875 250.955078125 232.66015625 279.857421875 178.137695312 279.857421875 c 0
EndSplineSet
EndChar

StartChar: uni0071
Encoding: 113 113 23
Width: 410
GlyphClass: 2
Flags: MW
HStem: -356.804 21G -21.4641 42.9282 279.856 42.9282
VStem: 44.1541 66.3538 283.049 66.3538
LayerCount: 2
Fore
SplineSet
110.5078125 153.856445312 m 0
 110.5078125 124.596679688 117.2109375 95.6201171875 130.094726562 71.7314453125 c 0
 148.560546875 41.8251953125 177.5390625 21.466796875 215.858398438 21.466796875 c 0
 228.087890625 21.466796875 240.580078125 24.2236328125 252.733398438 28.6279296875 c 0
 270.21484375 42.099609375 281.485351562 53.505859375 281.485351562 53.505859375 c 1
 295.250976562 61.453125 l 1
 298.752929688 143.668945312 301.643554688 212.385742188 301.643554688 237.879882812 c 0
 301.643554688 241.859375 301.573242188 244.78515625 301.423828125 246.544921875 c 0
 285.197265625 265.755859375 245.369140625 279.857421875 188.28515625 279.857421875 c 0
 183.185546875 279.857421875 178.04296875 279.293945312 172.89453125 278.223632812 c 0
 137.180664062 244.317382812 110.5078125 193.810546875 110.5078125 153.856445312 c 0
283.048828125 -305.250976562 m 0
 283.048828125 -227.5 289.143554688 -81.9228515625 294.354492188 40.4560546875 c 1
 290.681640625 38.16796875 290.681640625 38.16796875 224.69921875 0.072265625 c 0
 203.981445312 -11.8896484375 180.287109375 -21.458984375 157.50390625 -21.458984375 c 0
 117.741210938 -21.458984375 88.0361328125 0.4609375 69.6982421875 32.2236328125 c 0
 60.7470703125 47.7275390625 44.1533203125 76.46875 44.1533203125 124.7890625 c 0
 44.1533203125 175.731445312 87.5146484375 243.829101562 137.69140625 272.798828125 c 2
 200.044921875 308.798828125 l 2
 215.288085938 317.599609375 231.161132812 322.7890625 246.637695312 322.7890625 c 0
 308.64453125 322.7890625 350.291015625 306.150390625 363.448242188 284.388671875 c 2
 367.448242188 277.4609375 l 2
 367.82421875 276.809570312 367.99609375 273.1640625 367.99609375 266.954101562 c 0
 367.99609375 240.5546875 364.896484375 167.807617188 361.228515625 81.7177734375 c 0
 355.912109375 -43.0439453125 349.40234375 -195.828125 349.40234375 -276.178710938 c 0
 349.40234375 -295.923828125 349.795898438 -311.294921875 350.696289062 -320.80078125 c 1
 288.342773438 -356.80078125 l 1
 284.342773438 -349.873046875 l 2
 283.442382812 -340.3671875 283.048828125 -324.99609375 283.048828125 -305.250976562 c 0
EndSplineSet
EndChar

StartChar: uni0072
Encoding: 114 114 24
Width: 325
GlyphClass: 2
Flags: MW
HStem: 279.856 42.9282 302.784 20G
VStem: 44.1483 66.3538 55.6687 66.3538 230.883 66.3538
LayerCount: 2
Fore
SplineSet
122.022460938 260.65625 m 0x58
 122.022460938 249.322265625 120.8828125 234.999023438 119.31640625 215.310546875 c 0
 116.190429688 176.028320312 111.365234375 115.390625 110.502929688 14.53515625 c 0
 109.69921875 -79.4248046875 106.887695312 -147.46484375 106.887695312 -147.46484375 c 1
 44.5341796875 -183.46484375 l 1
 40.5341796875 -176.537109375 l 1
 40.5341796875 -176.537109375 43.345703125 -108.497070312 44.1494140625 -14.537109375 c 0x68
 45.01171875 86.318359375 49.8369140625 146.956054688 52.962890625 186.23828125 c 0
 54.529296875 205.926757812 55.6689453125 220.25 55.6689453125 231.583984375 c 0
 55.6689453125 258.064453125 49.45703125 265.268554688 36.814453125 279.856445312 c 2x98
 32.814453125 286.784179688 l 1
 95.16796875 322.784179688 l 1
 103.306640625 313.393554688 105.459960938 310.909179688 114.020507812 296.08203125 c 0
 119.94140625 285.826171875 122.022460938 275.970703125 122.022460938 260.65625 c 0x58
230.8828125 208.213867188 m 0x88
 230.8828125 220.465820312 228.001953125 231.470703125 223.125 241.09375 c 0
 206.919921875 265.966796875 176.924804688 279.856445312 152.262695312 279.856445312 c 0
 139.52734375 279.856445312 125.198242188 277.541015625 109.318359375 271.172851562 c 2
 69.6435546875 248.266601562 l 1
 65.6435546875 255.194335938 l 1
 75.6650390625 262.7109375 75.6650390625 262.7109375 147.938476562 304.4375 c 0
 171.87109375 318.255859375 192.802734375 322.784179688 210.616210938 322.784179688 c 0
 236.387695312 322.784179688 267.981445312 307.618164062 283.579101562 280.6015625 c 0
 290.947265625 267.837890625 297.236328125 256.9453125 297.236328125 237.286132812 c 0
 297.236328125 203.131835938 268.451171875 178.43359375 241.215820312 162.708984375 c 2
 208.620117188 143.889648438 l 1
 269.783203125 122.040039062 292.952148438 45.8173828125 356.416992188 21.4638671875 c 1
 360.416992188 14.5361328125 l 1
 298.063476562 -21.4638671875 l 1
 228.401367188 5.2666015625 207.294921875 94.4794921875 131.203125 105.706054688 c 1
 127.203125 112.633789062 l 1
 189.556640625 148.633789062 l 1
 189.556640625 148.633789062 194.541015625 150.112304688 202.323242188 153.104492188 c 0
 218.515625 167.501953125 230.8828125 185.827148438 230.8828125 208.213867188 c 0x88
EndSplineSet
EndChar

StartChar: uni0073
Encoding: 115 115 25
Width: 414
GlyphClass: 2
Flags: MW
HStem: -18.2248 42.9282 279.856 42.9282
VStem: 44.1541 66.3538 309.639 66.3538
LayerCount: 2
Fore
SplineSet
171.306640625 279.856445312 m 0
 153.087890625 279.856445312 136.999023438 278.04296875 122.970703125 274.817382812 c 1
 114.579101562 263.647460938 110.506835938 251.219726562 110.506835938 238.90625 c 0
 110.506835938 230.936523438 112.258789062 223.654296875 115.478515625 216.977539062 c 0
 159.5078125 151.904296875 351.358398438 149.142578125 370.458007812 116.060546875 c 0
 375.991210938 106.4765625 375.991210938 106.4765625 375.991210938 103.635742188 c 0
 375.991210938 69.5576171875 358.829101562 47.5458984375 335.973632812 34.349609375 c 2
 273.620117188 -1.650390625 l 2
 253.129882812 -13.48046875 228.064453125 -18.224609375 206.686523438 -18.224609375 c 0
 139.46484375 -18.224609375 93.16796875 1.8271484375 75.787109375 31.931640625 c 0
 69.564453125 42.7099609375 67.7392578125 45.87109375 65.8291015625 53.5048828125 c 1
 128.182617188 89.5048828125 l 1
 132.182617188 82.5771484375 l 2
 133.141601562 78.744140625 134.5078125 75.0263671875 136.268554688 71.439453125 c 0
 155.10546875 43.2470703125 200.3984375 24.705078125 265.040039062 24.705078125 c 0
 274.625 24.705078125 284.951171875 25.6591796875 295.274414062 27.77734375 c 1
 304.161132812 39.9130859375 309.638671875 55.3134765625 309.638671875 74.564453125 c 0
 309.638671875 75.2294921875 309.576171875 75.8828125 309.452148438 76.525390625 c 0
 279.116210938 107.022460938 93.1064453125 111.4375 54.978515625 177.4765625 c 0
 48.1220703125 189.352539062 44.1533203125 196.2265625 44.1533203125 209.833984375 c 0
 44.1533203125 231.190429688 56.4033203125 252.889648438 82.1884765625 267.77734375 c 2
 144.541992188 303.77734375 l 2
 164.557617188 315.333984375 192.729492188 322.78515625 229.659179688 322.78515625 c 0
 330.370117188 322.78515625 348.270507812 291.78125 361.911132812 268.155273438 c 0
 367.978515625 257.646484375 371.895507812 245.850585938 375.18359375 233.237304688 c 1
 312.830078125 197.237304688 l 1
 308.830078125 204.165039062 l 2
 305.907226562 215.376953125 302.487304688 225.943359375 297.502929688 235.533203125 c 0
 280.36328125 262.275390625 247.377929688 279.856445312 171.306640625 279.856445312 c 0
EndSplineSet
EndChar

StartChar: uni0074
Encoding: 116 116 26
Width: 423
GlyphClass: 2
Flags: MW
HStem: -21.4639 42.9277<129.013 213.707> 273.438 42.9287<31.7798 131.341> 282.215 40.4932
VStem: 39.4121 66.3535<129.513 142.498>
LayerCount: 2
Fore
SplineSet
104.686523438 316.366210938 m 0xd0
 157.995117188 316.366210938 240.654296875 323.197265625 241.938476562 322.708007812 c 0
 266.93359375 324.086914062 292.107421875 325.142578125 317.151367188 325.142578125 c 0
 337.01953125 325.142578125 356.8046875 324.478515625 376.354492188 322.784179688 c 1
 380.354492188 315.856445312 l 1
 318.000976562 279.856445312 l 1
 298.451171875 281.55078125 278.665039062 282.21484375 258.797851562 282.21484375 c 0xb0
 257.900390625 282.21484375 184.083007812 281.338867188 169.196289062 278.427734375 c 1
 132.958984375 243.315429688 105.765625 189.142578125 105.765625 140.978515625 c 0
 105.765625 118.047851562 111.928710938 93.333984375 123.5 71.890625 c 0
 141.374023438 42.9169921875 169.716796875 21.4638671875 206.44921875 21.4638671875 c 0
 220.963867188 21.4638671875 235.567382812 24.8134765625 249.506835938 30.0263671875 c 1
 266.243164062 42.87890625 276.741210938 53.50390625 276.741210938 53.50390625 c 1
 339.094726562 89.50390625 l 1
 343.094726562 82.576171875 l 1
 343.094726562 82.576171875 318.28515625 57.4677734375 284.14453125 37.755859375 c 2
 221.790039062 1.755859375 l 2
 199.729492188 -10.98046875 173.772460938 -21.4638671875 148.095703125 -21.4638671875 c 0
 109.930664062 -21.4638671875 80.822265625 1.6953125 63.103515625 32.3857421875 c 0
 54.7998046875 46.7666015625 39.412109375 73.419921875 39.412109375 111.90625 c 0
 39.412109375 173.08984375 83.2919921875 243.966796875 133.848632812 273.155273438 c 2
 140.909179688 277.232421875 l 1
 108.537109375 275.252929688 76.779296875 273.4375 46.3330078125 273.4375 c 0
 17.2265625 273.4375 -10.6806640625 275.096679688 -36.7783203125 279.856445312 c 1
 -40.7783203125 286.784179688 l 1
 21.5751953125 322.784179688 l 1
 47.673828125 318.024414062 75.5810546875 316.366210938 104.686523438 316.366210938 c 0xd0
EndSplineSet
EndChar

StartChar: uni0075
Encoding: 117 117 27
Width: 381
GlyphClass: 2
Flags: MW
HStem: -21.4639 42.9277<92.6899 180.435> 303.677 20G<99.5864 107.119>
VStem: 37.208 66.3535<110.035 125.799> 57.8525 66.3535<239.822 292.377> 267.945 66.1855<34.1211 101.526> 276.558 66.3535<230.399 238.122>
LayerCount: 2
Fore
SplineSet
37.2080078125 98.8642578125 m 0xe8
 37.2080078125 152.734375 57.8525390625 220.852539062 57.8525390625 258.791992188 c 0
 57.8525390625 265.716796875 57.1650390625 271.635742188 55.5380859375 276.279296875 c 0
 52.802734375 279.178710938 49.0595703125 280.749023438 44.0859375 280.749023438 c 0
 38.37890625 280.749023438 31.0517578125 278.681640625 21.767578125 274.186523438 c 1
 17.767578125 281.114257812 l 1
 80.12109375 317.114257812 l 2
 89.40625 321.610351562 96.7333984375 323.676757812 102.439453125 323.676757812 c 0
 111.797851562 323.676757812 113.8125 320.1875 120.143554688 309.221679688 c 0
 123.038085938 304.209960938 124.206054688 296.890625 124.206054688 287.864257812 c 0xd0
 124.206054688 249.923828125 103.561523438 181.806640625 103.561523438 127.936523438 c 0
 103.561523438 92.1337890625 108.524414062 65.9228515625 117.796875 47.77734375 c 0
 129.733398438 29.4716796875 147.201171875 21.4638671875 169.220703125 21.4638671875 c 0
 191.649414062 21.4638671875 215.291992188 24.2119140625 237.543945312 30.9853515625 c 1
 251.420898438 44.9658203125 262.37890625 62.748046875 268.931640625 85.130859375 c 1
 271.407226562 134.139648438 276.557617188 186.611328125 276.557617188 227.5390625 c 0
 276.557617188 248.704101562 275.125976562 265.987304688 271.108398438 276.284179688 c 0
 269.080078125 278.529296875 266.665039062 279.7265625 263.805664062 279.7265625 c 0
 261.779296875 279.7265625 261.779296875 279.7265625 249.376953125 272.56640625 c 1
 245.376953125 279.494140625 l 1
 248.729492188 282.357421875 248.729492188 282.357421875 314.056640625 320.07421875 c 0
 317.087890625 321.82421875 319.77734375 322.655273438 322.159179688 322.655273438 c 0
 327.885742188 322.655273438 329.435546875 319.971679688 335.603515625 309.288085938 c 0
 341.047851562 299.859375 342.911132812 280.76171875 342.911132812 256.610351562 c 0xe4
 342.911132812 204.1875 334.130859375 127.953125 334.130859375 75.0986328125 c 0
 334.130859375 53.4169921875 335.608398438 35.669921875 339.775390625 25.11328125 c 0
 341.889648438 22.7353515625 344.41796875 21.4638671875 347.420898438 21.4638671875 c 0
 354.888671875 21.4638671875 363.62109375 23.8935546875 380.630859375 33.6142578125 c 1
 384.630859375 26.6865234375 l 1
 322.27734375 -9.3134765625 l 2
 305.267578125 -19.0341796875 296.53515625 -21.4638671875 289.067382812 -21.4638671875 c 0
 283.12890625 -21.4638671875 281.48046875 -18.6083984375 275.283203125 -7.875 c 0
 270.62109375 0.2001953125 268.517578125 15.1201171875 267.9453125 34.12109375 c 1
 213.842773438 2.884765625 l 2
 183.01171875 -14.9150390625 145.4921875 -21.4638671875 110.8671875 -21.4638671875 c 0
 74.5126953125 -21.4638671875 62.6591796875 -0.9326171875 53.380859375 15.138671875 c 0
 42.86328125 33.3544921875 37.2080078125 60.64453125 37.2080078125 98.8642578125 c 0xe8
EndSplineSet
EndChar

StartChar: uni0076
Encoding: 118 118 28
Width: 400
GlyphClass: 2
Flags: MW
HStem: -21.4639 42.9277<98.5859 183.408> 303.677 20G<105.482 113.015>
VStem: 43.1035 66.3535<110.035 125.799> 63.749 66.3535<239.822 292.377> 302.626 66.3535<232.445 235.97>
LayerCount: 2
Fore
SplineSet
43.103515625 98.8642578125 m 0xe8
 43.103515625 152.734375 63.7490234375 220.852539062 63.7490234375 258.791992188 c 0
 63.7490234375 265.716796875 63.060546875 271.635742188 61.4345703125 276.279296875 c 0
 58.69921875 279.178710938 54.9560546875 280.749023438 49.982421875 280.749023438 c 0
 44.275390625 280.749023438 36.9482421875 278.681640625 27.6630859375 274.186523438 c 1
 23.6630859375 281.114257812 l 1
 86.0166015625 317.114257812 l 2
 95.3017578125 321.610351562 102.62890625 323.676757812 108.3359375 323.676757812 c 0
 117.694335938 323.676757812 119.708984375 320.1875 126.040039062 309.221679688 c 0
 128.93359375 304.209960938 130.102539062 296.890625 130.102539062 287.864257812 c 0xd8
 130.102539062 249.924804688 109.45703125 181.806640625 109.45703125 127.936523438 c 0
 109.45703125 92.1337890625 114.419921875 65.9228515625 123.692382812 47.77734375 c 0
 135.62890625 29.4716796875 153.096679688 21.4638671875 175.116210938 21.4638671875 c 0
 191.69921875 21.4638671875 209.34375 25.283203125 226.799804688 31.890625 c 1
 251.622070312 51.689453125 271.649414062 75.56640625 281.243164062 98.8642578125 c 0
 292.682617188 126.645507812 302.625976562 181.321289062 302.625976562 225.426757812 c 0
 302.625976562 246.512695312 300.353515625 265.182617188 294.885742188 277.342773438 c 0
 291.170898438 282.278320312 286.471679688 285.06640625 280.640625 285.06640625 c 0
 279.157226562 285.06640625 277.600585938 284.885742188 275.96875 284.514648438 c 2
 255.2734375 272.56640625 l 1
 251.2734375 279.494140625 l 1
 255.18359375 282.833007812 258.829101562 285.453125 262.224609375 287.4140625 c 2
 324.578125 323.4140625 l 2
 330.006835938 326.547851562 334.793945312 327.995117188 338.995117188 327.995117188 c 0
 349.036132812 327.995117188 352.633789062 321.762695312 359.337890625 310.150390625 c 0
 366.185546875 298.291015625 368.979492188 277.879882812 368.979492188 254.498046875 c 0
 368.979492188 210.392578125 359.036132812 155.717773438 347.596679688 127.936523438 c 0
 334.318359375 95.689453125 301.049804688 62.3310546875 262.74609375 40.216796875 c 2
 200.391601562 4.216796875 l 2
 173.270507812 -11.4423828125 143.625 -21.4638671875 116.762695312 -21.4638671875 c 0
 80.4091796875 -21.4638671875 68.5556640625 -0.9326171875 59.2763671875 15.138671875 c 0
 48.7587890625 33.3544921875 43.103515625 60.64453125 43.103515625 98.8642578125 c 0xe8
EndSplineSet
EndChar

StartChar: uni0077
Encoding: 119 119 29
Width: 622
GlyphClass: 2
Flags: MW
HStem: -21.4639 42.9277<89.2456 175.166> 303.677 20G<96.1426 103.675 327.803 335.335>
VStem: 33.7627 66.3535<110.036 125.8> 54.4082 66.3545<239.823 292.378> 265.423 66.3535<110.036 125.8> 286.068 66.3545<239.823 292.378> 524.946 66.3535<232.446 235.97>
LayerCount: 2
Fore
SplineSet
265.422851562 98.8642578125 m 1xea
 265.422851562 152.735351562 286.068359375 220.853515625 286.068359375 258.79296875 c 0
 286.068359375 265.716796875 285.380859375 271.635742188 283.754882812 276.279296875 c 0
 281.01953125 279.178710938 277.276367188 280.749023438 272.302734375 280.749023438 c 0
 266.595703125 280.749023438 259.268554688 278.681640625 249.983398438 274.186523438 c 1
 245.983398438 281.114257812 l 1
 308.336914062 317.114257812 l 2
 317.622070312 321.610351562 324.94921875 323.676757812 330.65625 323.676757812 c 0
 340.014648438 323.676757812 342.029296875 320.1875 348.360351562 309.221679688 c 0
 351.25390625 304.209960938 352.422851562 296.891601562 352.422851562 287.865234375 c 0xc6
 352.422851562 249.92578125 331.776367188 181.806640625 331.776367188 127.936523438 c 0
 331.776367188 92.134765625 336.739257812 65.923828125 346.01171875 47.7783203125 c 0
 357.948242188 29.47265625 375.416992188 21.4638671875 397.4375 21.4638671875 c 0
 400.65234375 22.1123046875 431.665039062 25.283203125 449.12109375 31.890625 c 1
 473.942382812 51.689453125 493.969726562 75.56640625 503.5625 98.8642578125 c 0
 515.002929688 126.645507812 524.946289062 181.321289062 524.946289062 225.426757812 c 0
 524.946289062 246.512695312 522.673828125 265.181640625 517.205078125 277.342773438 c 0
 513.491210938 282.278320312 508.791015625 285.06640625 502.9609375 285.06640625 c 0
 501.4765625 285.06640625 499.919921875 284.885742188 498.288085938 284.514648438 c 2
 477.592773438 272.56640625 l 1
 473.592773438 279.494140625 l 1
 477.502929688 282.833007812 481.1484375 285.453125 484.543945312 287.4140625 c 2
 546.897460938 323.4140625 l 2
 552.326171875 326.547851562 557.11328125 327.995117188 561.314453125 327.995117188 c 0
 571.35546875 327.995117188 574.954101562 321.76171875 581.658203125 310.150390625 c 0
 588.505859375 298.291015625 591.299804688 277.879882812 591.299804688 254.499023438 c 0
 591.299804688 210.392578125 581.356445312 155.717773438 569.916015625 127.936523438 c 0
 556.638671875 95.6884765625 523.370117188 62.3310546875 485.06640625 40.2158203125 c 2
 422.712890625 4.2158203125 l 2
 395.591796875 -11.4423828125 365.9453125 -21.4638671875 339.083984375 -21.4638671875 c 0
 302.728515625 -21.4638671875 290.875 -0.9326171875 281.595703125 15.1396484375 c 0
 276.922851562 23.232421875 273.209960938 33.1171875 270.526367188 44.955078125 c 1
 265.764648438 41.75390625 265.764648438 41.75390625 198.387695312 2.853515625 c 0
 170.114257812 -13.4697265625 137.665039062 -21.4638671875 107.422851562 -21.4638671875 c 0
 71.068359375 -21.4638671875 59.21484375 -0.931640625 49.935546875 15.1396484375 c 0
 39.4189453125 33.35546875 33.7626953125 60.6455078125 33.7626953125 98.8642578125 c 0xea
 33.7626953125 152.735351562 54.408203125 220.853515625 54.408203125 258.79296875 c 0
 54.408203125 265.716796875 53.720703125 271.635742188 52.0947265625 276.279296875 c 0
 49.359375 279.178710938 45.6162109375 280.749023438 40.642578125 280.749023438 c 0
 34.935546875 280.749023438 27.6083984375 278.681640625 18.3232421875 274.186523438 c 1
 14.3232421875 281.114257812 l 1
 76.6767578125 317.114257812 l 2
 85.9619140625 321.610351562 93.2890625 323.676757812 98.99609375 323.676757812 c 0
 108.354492188 323.676757812 110.369140625 320.1875 116.700195312 309.221679688 c 0
 119.59375 304.209960938 120.762695312 296.891601562 120.762695312 287.865234375 c 0xd2
 120.762695312 249.92578125 100.116210938 181.806640625 100.116210938 127.936523438 c 0
 100.116210938 92.134765625 105.079101562 65.923828125 114.3515625 47.7783203125 c 0
 126.288085938 29.47265625 143.756835938 21.4638671875 165.776367188 21.4638671875 c 0
 184.555664062 21.4638671875 204.186523438 24.546875 223.138671875 30.7919921875 c 1
 242.201171875 48.2783203125 257.30859375 70.916015625 265.422851562 98.8642578125 c 1xea
EndSplineSet
EndChar

StartChar: uni0078
Encoding: 120 120 30
Width: 525
GlyphClass: 2
Flags: MW
HStem: -181.317 42.9287<-68.521 6.39111> -21.4639 42.9277<406.064 481.852> 279.856 42.9277
VStem: 19.6299 66.3535<237.509 269.749>
LayerCount: 2
Fore
SplineSet
420.266601562 -21.4638671875 m 0
 391.862304688 -21.4638671875 342.712890625 35.6640625 275.303710938 114.017578125 c 1
 213.063476562 18.900390625 145.633789062 -82.845703125 72.421875 -125.115234375 c 2
 10.068359375 -161.115234375 l 2
 -12.1875 -173.963867188 -34.9765625 -181.317382812 -58.3173828125 -181.317382812 c 0
 -78.724609375 -181.317382812 -99.552734375 -175.696289062 -120.813476562 -163.213867188 c 1
 -124.813476562 -156.286132812 l 1
 -62.458984375 -120.286132812 l 1
 -41.1982421875 -132.768554688 -20.3701171875 -138.388671875 0.0361328125 -138.388671875 c 0
 12.74609375 -138.388671875 25.2919921875 -136.208984375 37.677734375 -132.1484375 c 1
 100.194335938 -81.3017578125 158.361328125 7.6142578125 212.575195312 90.486328125 c 0
 224.756835938 109.107421875 236.739257812 127.423828125 248.525390625 144.934570312 c 1
 190.888671875 210.791992188 131.520507812 272.592773438 87.6513671875 279.26171875 c 0
 86.576171875 275.655273438 85.9833984375 271.797851562 85.9833984375 267.69921875 c 0
 85.9833984375 265.462890625 86.16015625 263.154296875 86.5302734375 260.775390625 c 2
 24.17578125 224.775390625 l 1
 20.17578125 231.703125 l 2
 19.8056640625 234.083007812 19.6298828125 236.390625 19.6298828125 238.626953125 c 0
 19.6298828125 256.86328125 31.34765625 270.3046875 45.1865234375 278.294921875 c 2
 107.540039062 314.294921875 l 2
 117.26953125 319.912109375 128.046875 322.833984375 136.538085938 322.833984375 c 0
 137.178710938 322.833984375 137.807617188 322.817382812 138.420898438 322.784179688 c 0
 179.133789062 322.784179688 235.376953125 268.112304688 291.435546875 205.34375 c 1
 316.297851562 237.760742188 340.245117188 263.2890625 363.323242188 276.61328125 c 2
 425.676757812 312.61328125 l 2
 437.053710938 319.181640625 448.219726562 322.784179688 459.180664062 322.784179688 c 0
 489.151367188 322.784179688 514.260742188 292.00390625 514.260742188 292.00390625 c 1
 518.260742188 285.076171875 l 1
 455.90625 249.076171875 l 1
 455.90625 249.076171875 430.796875 279.856445312 400.826171875 279.856445312 c 0
 399.521484375 279.856445312 398.213867188 279.8046875 396.903320312 279.704101562 c 0
 371.203125 254.400390625 344.474609375 217.842773438 316.655273438 176.640625 c 1
 324.627929688 167.451171875 332.546875 158.23828125 340.368164062 149.140625 c 0
 397.915039062 82.203125 450.131835938 21.4638671875 478.62109375 21.4638671875 c 0
 485.083007812 21.4638671875 491.416992188 22.5595703125 497.416015625 24.314453125 c 2
 540.180664062 49.00390625 l 1
 544.180664062 42.076171875 l 1
 544.180664062 42.076171875 535.875 34.2314453125 523.204101562 26.916015625 c 2
 460.849609375 -9.083984375 l 2
 449.779296875 -15.4755859375 435.375 -21.4638671875 420.266601562 -21.4638671875 c 0
EndSplineSet
EndChar

StartChar: uni0079
Encoding: 121 121 31
Width: 380
GlyphClass: 2
Flags: MW
HStem: -356.804 21G -21.4641 42.9282 303.677 20G
VStem: 40.5331 66.3538 61.1783 66.3538 259.246 66.3538 279.994 66.3538
LayerCount: 2
Fore
SplineSet
40.533203125 98.8642578125 m 0xf4
 40.533203125 152.734375 61.1748046875 220.854492188 61.1748046875 258.793945312 c 0
 61.1748046875 265.717773438 60.4873046875 271.63671875 58.861328125 276.280273438 c 0
 56.1259765625 279.1796875 52.3828125 280.749023438 47.4091796875 280.749023438 c 0
 41.7021484375 280.749023438 34.375 278.682617188 25.08984375 274.186523438 c 1
 21.08984375 281.114257812 l 1
 83.443359375 317.114257812 l 2
 92.728515625 321.610351562 100.055664062 323.676757812 105.762695312 323.676757812 c 0
 115.12109375 323.676757812 117.135742188 320.1875 123.466796875 309.221679688 c 0
 126.360351562 304.209960938 127.529296875 296.891601562 127.529296875 287.864257812 c 0xe8
 127.529296875 249.924804688 106.883789062 181.806640625 106.883789062 127.936523438 c 0
 106.883789062 92.134765625 111.846679688 65.923828125 121.119140625 47.77734375 c 0
 133.055664062 29.4716796875 150.5234375 21.4638671875 172.543945312 21.4638671875 c 0
 194.97265625 21.4638671875 218.615234375 24.2119140625 240.868164062 30.9853515625 c 1
 254.744140625 44.9658203125 265.703125 62.748046875 272.190429688 85.09375 c 1
 274.423828125 86.3837890625 l 1
 277.591796875 135.4375 279.9921875 178.465820312 279.9921875 211.887695312 c 0
 279.9921875 241.346679688 278.127929688 263.342773438 273.28125 275.423828125 c 0
 271.188476562 277.803710938 268.741210938 279.038085938 265.899414062 279.038085938 c 0
 263.909179688 279.038085938 263.909179688 279.038085938 252.701171875 272.567382812 c 1
 248.701171875 279.495117188 l 2
 251.680664062 282.040039062 251.680664062 282.040039062 316.705078125 319.58203125 c 0
 319.484375 321.186523438 321.993164062 321.966796875 324.252929688 321.966796875 c 0
 329.934570312 321.966796875 331.5625 319.147460938 337.7578125 308.416992188 c 0
 344.0078125 297.591796875 346.34765625 273.958007812 346.34765625 240.9609375 c 0xf2
 346.34765625 142.690429688 325.599609375 -38.625 325.599609375 -211.963867188 c 0
 325.599609375 -248.899414062 326.541992188 -285.47265625 328.827148438 -320.802734375 c 1
 266.473632812 -356.802734375 l 1
 262.473632812 -349.875 l 1
 260.188476562 -314.544921875 259.24609375 -277.971679688 259.24609375 -241.036132812 c 0
 259.24609375 -146.865234375 265.370117188 -50.33984375 270.963867188 33.9443359375 c 1
 217.169921875 2.8857421875 l 2
 186.338867188 -14.9150390625 148.819335938 -21.4638671875 114.193359375 -21.4638671875 c 0
 77.8388671875 -21.4638671875 65.9853515625 -0.9326171875 56.7060546875 15.1396484375 c 0
 46.189453125 33.35546875 40.533203125 60.64453125 40.533203125 98.8642578125 c 0xf4
EndSplineSet
EndChar

StartChar: uni007A
Encoding: 122 122 32
Width: 420
GlyphClass: 2
Flags: MW
HStem: -19.6572 42.9287<226.323 296.592> 273.721 42.9287<107.346 240.418>
VStem: 320.196 66.3535<77.916 127.548>
LayerCount: 2
Fore
SplineSet
194.70703125 316.649414062 m 0
 286.12890625 316.649414062 346.770507812 322.791015625 348.307617188 322.791015625 c 0
 349.2734375 322.791015625 353.571289062 315.459960938 353.571289062 313.952148438 c 0
 353.571289062 302.309570312 318.122070312 239.243164062 270.975585938 173.345703125 c 1
 316.560546875 199.6640625 l 2
 319.3359375 199.970703125 322.016601562 200.120117188 324.604492188 200.120117188 c 0
 355.73828125 200.120117188 367.004882812 180.604492188 375.305664062 166.227539062 c 0
 382.9453125 152.995117188 386.549804688 136.19921875 386.549804688 118.896484375 c 0
 386.549804688 88.03515625 375.081054688 55.564453125 354.581054688 38.8359375 c 0
 346.624023438 32.3427734375 346.624023438 32.3427734375 276.1953125 -8.3193359375 c 0
 263.594726562 -15.5947265625 250.526367188 -19.6572265625 237.391601562 -19.6572265625 c 0
 215.25390625 -19.6572265625 192.930664062 -8.1162109375 172.34765625 19.0361328125 c 1
 168.34765625 25.9638671875 l 1
 230.701171875 61.9638671875 l 1
 251.284179688 34.8115234375 273.608398438 23.271484375 295.745117188 23.271484375 c 0
 297.439453125 23.271484375 299.1328125 23.3388671875 300.823242188 23.47265625 c 0
 313.365234375 41.2314453125 320.196289062 66.0068359375 320.196289062 89.8251953125 c 0
 320.196289062 105.608398438 317.196289062 120.971679688 310.870117188 133.591796875 c 0
 301.423828125 147.845703125 286.758789062 157.19140625 266.250976562 157.19140625 c 0
 263.891601562 157.19140625 261.454101562 157.067382812 258.939453125 156.813476562 c 0
 216.705078125 99.8232421875 167.233398438 43.7451171875 125.795898438 19.8203125 c 0
 58.212890625 -19.1982421875 58.212890625 -19.1982421875 53.27734375 -21.4638671875 c 1
 49.27734375 -14.5361328125 l 1
 70.1865234375 -2.4638671875 l 1
 157.626953125 57.279296875 273.311523438 240.73828125 286.0625 279.537109375 c 1
 236.622070312 275.3828125 182.916015625 273.720703125 136.352539062 273.720703125 c 0
 78.3388671875 273.720703125 31.412109375 276.30078125 17.6376953125 279.856445312 c 1
 13.6376953125 286.784179688 l 1
 75.9912109375 322.784179688 l 1
 89.765625 319.229492188 136.692382812 316.649414062 194.70703125 316.649414062 c 0
EndSplineSet
EndChar

StartChar: uni00FE
Encoding: 254 254 33
Width: 387
GlyphClass: 2
Flags: MW
HStem: -356.804 21G 279.052 42.9282 648.654 20G
VStem: 51.02 62.6707 279.362 66.3538
LayerCount: 2
Fore
SplineSet
15.4228515625 -349.875976562 m 1
 39.427734375 -79.822265625 51.017578125 246.401367188 51.017578125 423.919921875 c 0
 51.017578125 581.27734375 41.7646484375 608.831054688 36.861328125 617.323242188 c 1
 67.087890625 634.583007812 96.6220703125 652.534179688 127.98828125 668.653320312 c 1
 131.98828125 661.725585938 l 1
 114.313476562 256.251953125 l 1
 149.416015625 276.518554688 l 2
 188.8046875 299.259765625 237.94140625 321.98046875 276.684570312 321.98046875 c 0
 299.28515625 321.98046875 318.349609375 314.249023438 329.87890625 294.279296875 c 0
 337.831054688 280.505859375 345.713867188 266.852539062 345.713867188 231.407226562 c 0
 345.713867188 219.520507812 344.713867188 206.13671875 342.58984375 191.116210938 c 0
 334.365234375 132.969726562 257.911132812 78.943359375 190.961914062 40.2900390625 c 0
 116.75390625 -2.5546875 116.75390625 -2.5546875 103.426757812 -9.830078125 c 1
 99.8623046875 -78.9755859375 93.109375 -193.3125 81.7763671875 -320.803710938 c 1
 19.4228515625 -356.803710938 l 1
 15.4228515625 -349.875976562 l 1
279.360351562 202.334960938 m 0
 279.360351562 224.84375 275.776367188 241.985351562 269.444335938 254.70703125 c 0
 257.772460938 272.192382812 239.622070312 279.051757812 218.333984375 279.051757812 c 0
 189.124023438 279.051757812 154.006835938 266.13671875 121.61328125 250.03515625 c 0
 118.047851562 247.711914062 118.047851562 247.711914062 113.69140625 245.197265625 c 1
 111.419921875 170.44921875 107.536132812 72.0556640625 104.05078125 2.4453125 c 1
 105.16796875 3.08984375 153.194335938 28.4462890625 153.688476562 28.712890625 c 0
 212.030273438 65.4091796875 269.188476562 112.213867188 276.236328125 162.043945312 c 0
 278.360351562 177.064453125 279.360351562 190.448242188 279.360351562 202.334960938 c 0
EndSplineSet
EndChar

StartChar: uni0131
Encoding: 305 305 34
Width: 151
GlyphClass: 2
Flags: MW
HStem: -20.6535 42.9282 302.784 20G
VStem: 35.7564 66.3538 47.8799 66.3538
LayerCount: 2
Fore
SplineSet
35.7568359375 41.8603515625 m 0xe0
 35.7568359375 96.9794921875 47.8798828125 180.776367188 47.8798828125 234.65625 c 0
 47.8798828125 252.510742188 46.548828125 267.080078125 43.00390625 276.231445312 c 0
 40.873046875 278.592773438 38.2919921875 279.85546875 35.1943359375 279.85546875 c 0
 28.7841796875 279.85546875 23.1533203125 278.220703125 17.8330078125 275.791015625 c 0
 -6.2548828125 261.883789062 -6.2548828125 261.883789062 -9.35546875 260.415039062 c 2
 -13.35546875 267.342773438 l 1
 -12.5283203125 267.8203125 -8.5546875 270.16796875 69.3212890625 315.129882812 c 0
 76.71484375 319.3984375 84.3251953125 322.783203125 93.548828125 322.783203125 c 0
 99.681640625 322.783203125 101.317382812 319.950195312 107.510742188 309.22265625 c 0
 112.44921875 300.668945312 114.233398438 284.401367188 114.233398438 263.729492188 c 0xd0
 114.233398438 209.849609375 102.110351562 126.05078125 102.110351562 70.931640625 c 0
 102.110351562 51.87109375 103.559570312 36.240234375 107.461914062 26.4619140625 c 0
 109.828125 23.73828125 112.721679688 22.2744140625 116.227539062 22.2744140625 c 0
 138.853515625 22.2744140625 141.096679688 23.5556640625 159.559570312 34.1015625 c 0
 161.852539062 35.4111328125 164.395507812 36.86328125 167.258789062 38.4736328125 c 2
 171.258789062 31.5458984375 l 1
 112.935546875 -2.126953125 112.935546875 -2.126953125 101.206054688 -8.8271484375 c 0
 82.7431640625 -19.373046875 80.5 -20.654296875 57.8740234375 -20.654296875 c 0
 51.142578125 -20.654296875 49.2373046875 -17.353515625 42.9658203125 -6.490234375 c 0
 37.658203125 2.703125 35.7568359375 20.033203125 35.7568359375 41.8603515625 c 0xe0
EndSplineSet
EndChar

StartChar: uni017F
Encoding: 383 383 35
Width: 224
GlyphClass: 2
Flags: MW
HStem: 521.611 42.9282
VStem: 49.2518 66.1949
LayerCount: 2
Fore
SplineSet
183.879882812 564.5390625 m 0
 231.720703125 564.5390625 288.514648438 534.884765625 303.583007812 508.786132812 c 0
 309.481445312 498.569335938 310.16796875 497.379882812 311.0078125 493.249023438 c 2
 248.654296875 457.249023438 l 1
 244.654296875 464.176757812 l 2
 244.30859375 465.875 243.7421875 467.607421875 242.970703125 469.36328125 c 0
 225.118164062 494.540039062 171.235351562 521.614257812 125.525390625 521.614257812 c 0
 124.927734375 521.614257812 124.331054688 521.609375 123.736328125 521.599609375 c 0
 116.2578125 505.18359375 116.20703125 490.541992188 116.139648438 471.336914062 c 0
 115.948242188 416.541015625 115.768554688 364.922851562 115.4453125 316.640625 c 1
 115.4453125 316.640625 118.21484375 311.84375 118.225585938 311.807617188 c 2
 115.401367188 310.176757812 l 1
 113.612304688 54.6865234375 107.577148438 -106.038085938 74.0576171875 -148.2734375 c 1
 11.7041015625 -184.2734375 l 1
 7.7041015625 -177.345703125 l 1
 41.01171875 -135.377929688 47.181640625 23.58203125 49.013671875 276.258789062 c 1
 33.513671875 276.194335938 -2.876953125 274.1875 -2.876953125 274.1875 c 1
 -6.876953125 281.115234375 l 1
 49.2509765625 313.520507812 l 1
 49.4765625 353.705078125 49.6044921875 390.166992188 49.82421875 452.834960938 c 0
 49.9462890625 487.54296875 62.4599609375 508.223632812 81.0986328125 518.984375 c 2
 143.452148438 554.984375 l 2
 155.057617188 561.684570312 169.038085938 564.5390625 183.879882812 564.5390625 c 0
EndSplineSet
EndChar

StartChar: uni01BF
Encoding: 447 447 36
Width: 397
GlyphClass: 2
Flags: MW
HStem: -356.804 21G 279.052 42.9282
VStem: 48.1981 66.0305 59.7189 66.3538 290.708 66.3538
LayerCount: 2
Fore
SplineSet
126.073242188 260.657226562 m 0xd8
 126.073242188 259.302734375 126.056640625 257.90625 126.025390625 256.461914062 c 1
 160.765625 276.518554688 l 2
 200.154296875 299.259765625 249.291015625 321.98046875 288.034179688 321.98046875 c 0
 310.634765625 321.98046875 329.69921875 314.249023438 341.228515625 294.279296875 c 0
 349.180664062 280.505859375 357.063476562 266.852539062 357.063476562 231.407226562 c 0
 357.063476562 219.520507812 356.063476562 206.13671875 353.939453125 191.116210938 c 0
 345.71484375 132.969726562 269.260742188 78.943359375 202.311523438 40.2900390625 c 0
 127.865234375 -2.69140625 127.865234375 -2.69140625 114.23046875 -10.126953125 c 1
 112.470703125 -115.831054688 105.268554688 -320.803710938 105.268554688 -320.803710938 c 1
 42.9150390625 -356.803710938 l 1
 38.9150390625 -349.875976562 l 1
 38.9150390625 -349.875976562 47.396484375 -108.49609375 48.2001953125 -14.5361328125 c 0xe8
 49.0625 86.3203125 53.888671875 146.958007812 57.0146484375 186.240234375 c 0
 58.1826171875 200.920898438 59.11328125 212.618164062 59.51171875 222.317382812 c 1
 59.126953125 222.983398438 l 1
 59.720703125 223.326171875 59.720703125 226.142578125 59.720703125 231.584960938 c 0
 59.720703125 258.065429688 53.5078125 265.26953125 40.865234375 279.856445312 c 2
 36.865234375 286.784179688 l 1
 99.21875 322.784179688 l 1
 107.357421875 313.393554688 109.510742188 310.909179688 118.071289062 296.08203125 c 0
 123.9921875 285.826171875 126.073242188 275.970703125 126.073242188 260.657226562 c 0xd8
290.708984375 202.3359375 m 0
 290.708984375 224.844726562 287.123046875 241.986328125 280.791015625 254.708007812 c 0
 269.119140625 272.193359375 250.96875 279.052734375 229.680664062 279.052734375 c 0
 200.470703125 279.052734375 165.353515625 266.137695312 132.959960938 250.036132812 c 0
 129.39453125 247.712890625 129.39453125 247.712890625 125.57421875 245.5078125 c 0
 124.422851562 225.12890625 119.092773438 172.2265625 116.444335938 100.512695312 c 1
 118.458984375 101.67578125 l 1
 122.458984375 94.748046875 l 1
 116.11328125 91.083984375 l 1
 115.272460938 65.8818359375 115.272460938 65.8818359375 114.411132812 1.876953125 c 1
 117.173828125 3.4716796875 164.532226562 28.4423828125 165.037109375 28.7138671875 c 0
 223.37890625 65.41015625 280.537109375 112.21484375 287.584960938 162.044921875 c 0
 289.708984375 177.065429688 290.708984375 190.44921875 290.708984375 202.3359375 c 0
EndSplineSet
EndChar

StartChar: uni0237
Encoding: 567 567 37
Width: 148
GlyphClass: 2
Flags: MW
HStem: 302.784 20G
VStem: 44.2149 66.3538
LayerCount: 2
Fore
SplineSet
94.3583984375 322.784179688 m 0
 97.0703125 322.784179688 97.37890625 322.249023438 103.181640625 312.19921875 c 0
 108.614257812 302.790039062 110.568359375 276.09765625 110.568359375 242.275390625 c 0
 110.568359375 200.970703125 108.551757812 152.020507812 99.16796875 33.1669921875 c 0
 94.3369140625 -28.037109375 55.076171875 -121.267578125 13.228515625 -145.428710938 c 0
 -49.490234375 -181.639648438 -49.490234375 -181.639648438 -49.8544921875 -181.842773438 c 2
 -53.8544921875 -174.915039062 l 1
 -9.3662109375 -149.229492188 28.2119140625 -54.2265625 32.8154296875 4.0947265625 c 0
 42.189453125 122.821289062 44.2158203125 171.83203125 44.2158203125 213.203125 c 0
 44.2158203125 242.826171875 42.716796875 266.979492188 38.6943359375 278.841796875 c 0
 37.86328125 279.509765625 36.9677734375 279.85546875 36.0048828125 279.85546875 c 0
 30.49609375 279.85546875 25.6435546875 278.6484375 21.0986328125 276.766601562 c 0
 -4.8857421875 261.764648438 -4.8857421875 261.764648438 -7.7353515625 260.415039062 c 2
 -11.7353515625 267.342773438 l 1
 -10.8994140625 267.825195312 -13.0029296875 266.890625 71.77734375 315.838867188 c 0
 78.58203125 319.767578125 85.650390625 322.784179688 94.3583984375 322.784179688 c 0
EndSplineSet
EndChar

StartChar: uni25CC
Encoding: 775 775 38
Width: 213
GlyphClass: 4
Flags: MW
HStem: 351.346 89.9077
VStem: 54.6844 100.374
LayerCount: 2
Fore
SplineSet
58.6845703125 398.326171875 m 1
 54.6845703125 405.25390625 l 1
 117.038085938 441.25390625 l 1
 151.05859375 394.274414062 l 1
 155.05859375 387.346679688 l 1
 92.705078125 351.346679688 l 1
 58.6845703125 398.326171875 l 1
EndSplineSet
EndChar

StartChar: uni0323
Encoding: 803 803 39
Width: 213
GlyphClass: 4
Flags: MW
HStem: -124.654 89.9077
VStem: 57.1141 100.374
LayerCount: 2
Fore
SplineSet
61.1142578125 -77.673828125 m 1
 57.1142578125 -70.74609375 l 1
 119.467773438 -34.74609375 l 1
 153.48828125 -81.7255859375 l 1
 157.48828125 -88.6533203125 l 1
 95.134765625 -124.653320312 l 1
 61.1142578125 -77.673828125 l 1
EndSplineSet
EndChar

StartChar: runeFeoh
Encoding: 5792 5792 40
Width: 454
GlyphClass: 2
Flags: MW
VStem: 59.9735 65.2696 195.501 66.3538 331.455 66.3538
LayerCount: 2
Fore
SplineSet
195.500976562 491.487304688 m 0
 195.500976562 496.407226562 194.400390625 501.350585938 192.00390625 506.293945312 c 1
 254.357421875 542.293945312 l 1
 259.44140625 533.48828125 261.85546875 529.306640625 261.85546875 520.559570312 c 0
 261.85546875 484.014648438 201.077148438 448.741210938 158.767578125 424.186523438 c 0
 129.32421875 407.098632812 124.934570312 403.341796875 124.586914062 403.140625 c 2
 125.201171875 266.091796875 l 1
 128.916992188 268.19921875 132.63671875 270.310546875 136.357421875 272.42578125 c 0
 241.032226562 334.173828125 331.455078125 396.328125 331.455078125 444.104492188 c 0
 331.455078125 449.9375 330.107421875 455.555664062 327.2734375 460.932617188 c 1
 389.626953125 496.932617188 l 1
 395.220703125 487.244140625 397.80859375 482.76171875 397.80859375 473.176757812 c 0
 397.80859375 421.11328125 290.4296875 351.975585938 174.243164062 284.895507812 c 2
 125.243164062 256.60546875 l 1
 126.327148438 14.53515625 l 1
 63.9736328125 -21.46484375 l 1
 59.9736328125 -14.537109375 l 1
 57.54296875 528.163085938 l 1
 119.896484375 564.163085938 l 1
 123.896484375 557.235351562 l 1
 124.537109375 414.243164062 l 1
 160.107421875 436.452148438 195.500976562 463.599609375 195.500976562 491.487304688 c 0
EndSplineSet
EndChar

StartChar: runeUr
Encoding: 5794 5794 41
Width: 503
GlyphClass: 2
Flags: MW
VStem: 59.9735 66.3538 379.935 66.3538
LayerCount: 2
Fore
SplineSet
379.935546875 -14.380859375 m 0
 379.935546875 -7.0537109375 342.155273438 231.087890625 294.063476562 325.66796875 c 0
 263.122070312 386.520507812 227.666015625 412.403320312 124.243164062 480.19921875 c 1
 126.329101562 14.5390625 l 1
 63.9755859375 -21.4609375 l 1
 59.9755859375 -14.533203125 l 1
 57.544921875 528.166992188 l 1
 119.8984375 564.166992188 l 1
 133.606445312 555.166992188 146.408203125 546.797851562 158.3828125 538.969726562 c 0
 290.71484375 452.461914062 314.450195312 435.537109375 350.5234375 373.055664062 c 0
 353.844726562 367.302734375 357.118164062 361.224609375 360.416015625 354.73828125 c 0
 408.5078125 260.158203125 446.2890625 22.01953125 446.2890625 14.6923828125 c 0
 446.2890625 14.544921875 446.2890625 14.544921875 383.922851562 -21.462890625 c 1
 379.922851562 -14.53515625 l 2
 379.931640625 -14.509765625 379.935546875 -14.4580078125 379.935546875 -14.380859375 c 0
EndSplineSet
EndChar

StartChar: runeYr
Encoding: 5795 5795 42
Width: 503
GlyphClass: 2
Flags: MW
VStem: 59.9735 65.4942 211.443 66.3538 379.935 66.3538
LayerCount: 2
Fore
SplineSet
379.935546875 -14.40625 m 0
 379.935546875 -10.689453125 367.806640625 67.634765625 348.543945312 152.028320312 c 1
 348.284179688 151.877929688 l 1
 274.06640625 170.0625 l 1
 277.798828125 14.5380859375 l 1
 215.4453125 -21.4619140625 l 1
 211.4453125 -14.5341796875 l 1
 206.619140625 186.587890625 l 1
 125.469726562 206.470703125 l 1
 126.329101562 14.5380859375 l 1
 63.9755859375 -21.4619140625 l 1
 59.9755859375 -14.5341796875 l 1
 57.544921875 528.166015625 l 1
 119.8984375 564.166015625 l 1
 133.606445312 555.166015625 146.408203125 546.796875 158.3828125 538.96875 c 0
 290.71484375 452.4609375 314.450195312 435.536132812 350.5234375 373.0546875 c 0
 353.844726562 367.301757812 357.118164062 361.223632812 360.416015625 354.737304688 c 0
 408.5078125 260.157226562 446.2890625 21.2265625 446.2890625 14.6669921875 c 0
 446.2890625 14.544921875 446.2890625 14.544921875 383.922851562 -21.462890625 c 1
 379.922851562 -14.53515625 l 2
 379.931640625 -14.5185546875 379.935546875 -14.4755859375 379.935546875 -14.40625 c 0
333.560546875 212.711914062 m 1
 291.486328125 369.391601562 260.2421875 391.048828125 124.2421875 480.19921875 c 1
 125.211914062 263.760742188 l 1
 333.560546875 212.711914062 l 1
EndSplineSet
EndChar

StartChar: runeThorn
Encoding: 5798 5798 43
Width: 391
GlyphClass: 2
Flags: MW
VStem: 57.5428 66.5622
LayerCount: 2
Fore
SplineSet
58.353515625 528.1640625 m 1
 120.70703125 564.163085938 l 1
 124.70703125 557.235351562 l 1
 124.528320312 437.80078125 l 1
 330.497070312 293.623046875 l 1
 334.497070312 286.6953125 l 1
 124.077148438 135.354492188 l 1
 123.896484375 14.53515625 l 1
 61.54296875 -21.46484375 l 1
 57.54296875 -14.537109375 l 1
 57.72265625 105.840820312 l 1
 57.54296875 106.15234375 l 1
 58.1103515625 205.0625 57.8984375 304.751953125 58.16796875 403.9609375 c 1
 57.54296875 405.043945312 l 1
 58.169921875 405.40625 l 1
 58.353515625 528.1640625 l 1
124.104492188 154.026367188 m 1
 265.234375 255.53125 l 1
 124.403320312 354.112304688 l 1
 124.104492188 154.026367188 l 1
EndSplineSet
EndChar

StartChar: runeOs
Encoding: 5801 5801 44
Width: 531
GlyphClass: 2
Flags: MW
VStem: 57.5428 66.3538
LayerCount: 2
Fore
SplineSet
57.54296875 528.1640625 m 1
 119.896484375 564.163085938 l 1
 347.947265625 404.102539062 l 1
 384.352539062 477.056640625 408.397460938 526.544921875 407.462890625 528.163085938 c 1
 407.462890625 528.163085938 469.81640625 564.163085938 469.876953125 564.126953125 c 0
 473.900390625 557.158203125 473.900390625 557.158203125 473.900390625 557.073242188 c 0
 473.900390625 550.9765625 384.717773438 374.174804688 384.717773438 374.174804688 c 1
 322.364257812 338.174804688 l 1
 123.897460938 477.471679688 l 1
 123.897460938 348.607421875 l 1
 351.1328125 205.126953125 l 1
 407.462890625 336.194335938 l 1
 469.81640625 372.194335938 l 1
 473.81640625 365.266601562 l 1
 392.006835938 174.916015625 l 1
 329.653320312 138.916015625 l 1
 123.896484375 268.834960938 l 1
 123.896484375 14.5361328125 l 1
 61.54296875 -21.4638671875 l 1
 57.54296875 -14.5361328125 l 1
 57.54296875 528.1640625 l 1
EndSplineSet
EndChar

StartChar: runeAs
Encoding: 5802 5802 45
Width: 531
GlyphClass: 2
Flags: MW
VStem: 57.5428 66.3538
LayerCount: 2
Fore
SplineSet
57.54296875 528.1640625 m 1
 119.895507812 564.1640625 l 1
 347.946289062 404.103515625 l 1
 384.3515625 477.057617188 408.396484375 526.545898438 407.461914062 528.1640625 c 1
 407.461914062 528.1640625 469.815429688 564.1640625 469.875976562 564.127929688 c 0
 473.899414062 557.159179688 473.899414062 557.159179688 473.899414062 557.07421875 c 0
 473.899414062 550.977539062 384.716796875 374.17578125 384.716796875 374.17578125 c 1
 322.36328125 338.17578125 l 1
 123.896484375 477.47265625 l 1
 123.896484375 348.608398438 l 1
 388.006835938 181.84375 l 1
 392.006835938 174.916015625 l 1
 329.653320312 138.916015625 l 1
 123.896484375 268.834960938 l 1
 123.896484375 14.5361328125 l 1
 61.54296875 -21.4638671875 l 1
 57.54296875 -14.5361328125 l 1
 57.54296875 528.1640625 l 1
EndSplineSet
EndChar

StartChar: uni0105
Encoding: 5803 5803 46
Width: 449
GlyphClass: 2
Flags: MW
VStem: 57.5428 66.3538
LayerCount: 2
Fore
SplineSet
57.54296875 528.1640625 m 1
 119.896484375 564.1640625 l 1
 380.716796875 381.103515625 l 1
 384.716796875 374.17578125 l 1
 322.36328125 338.17578125 l 1
 123.896484375 477.47265625 l 1
 123.896484375 348.608398438 l 1
 388.006835938 181.84375 l 1
 392.006835938 174.916015625 l 1
 329.653320312 138.916015625 l 1
 123.896484375 268.834960938 l 1
 123.896484375 14.5361328125 l 1
 61.54296875 -21.4638671875 l 1
 57.54296875 -14.5361328125 l 1
 57.54296875 528.1640625 l 1
EndSplineSet
EndChar

StartChar: runeRad
Encoding: 5809 5809 47
Width: 427
GlyphClass: 2
Flags: MW
VStem: 57.9031 66.3538
LayerCount: 2
Fore
SplineSet
124.256835938 413.775390625 m 0
 124.256835938 364.07421875 124.221679688 306.678710938 124.173828125 251.181640625 c 1
 298.754882812 371.110351562 l 1
 124.23046875 479.177734375 l 1
 124.249023438 459.876953125 124.256835938 437.71875 124.256835938 413.775390625 c 0
57.54296875 -14.5380859375 m 2
 57.54296875 -13.4580078125 57.9033203125 225.221679688 57.9033203125 384.701171875 c 0
 57.9033203125 464.44140625 57.8134765625 524.381835938 57.54296875 524.921875 c 2
 119.896484375 560.921875 l 1
 364.516601562 409.451171875 l 1
 368.516601562 402.5234375 l 1
 183.780273438 275.619140625 l 1
 364.516601562 85.4521484375 l 1
 368.516601562 78.5244140625 l 1
 306.163085938 42.5244140625 l 1
 124.158203125 234.026367188 l 1
 124.046875 113.118164062 123.896484375 16.7294921875 123.896484375 14.5341796875 c 2
 61.54296875 -21.4658203125 l 1
 57.54296875 -14.5380859375 l 2
EndSplineSet
EndChar

StartChar: runeKauna
Encoding: 5810 5810 48
Width: 549
GlyphClass: 2
Flags: W
LayerCount: 2
Fore
SplineSet
497.268554688 561.458007812 m 0
 504.603515625 561.458007812 511.60546875 556.8671875 521.65625 547.151367188 c 2
 525.65625 540.223632812 l 1
 463.302734375 504.223632812 l 1
 455.834960938 511.442382812 450.05078125 515.831054688 444.5625 517.610351562 c 1
 352.569335938 447.083007812 152.330078125 310.859375 126.630859375 293.409179688 c 1
 487.63671875 21.462890625 l 1
 491.63671875 14.53515625 l 1
 429.283203125 -21.46484375 l 1
 61.54296875 255.5546875 l 1
 57.54296875 262.482421875 l 1
 102.42578125 292.897460938 310.841796875 434.953125 395.327148438 501.899414062 c 0
 406.346679688 510.630859375 414.485351562 517.080078125 421.27734375 521.001953125 c 2
 483.630859375 557.001953125 l 2
 488.716796875 559.938476562 493.047851562 561.458007812 497.268554688 561.458007812 c 0
EndSplineSet
EndChar

StartChar: runeCen
Encoding: 5811 5811 49
Width: 449
GlyphClass: 2
Flags: MW
VStem: 59.9735 66.3538
LayerCount: 2
Fore
SplineSet
59.9736328125 528.1640625 m 1
 122.327148438 564.163085938 l 1
 126.327148438 557.235351562 l 1
 126.327148438 186.693359375 l 1
 388.006835938 21.4638671875 l 1
 392.006835938 14.5361328125 l 1
 329.653320312 -21.4638671875 l 1
 126.327148438 106.919921875 l 1
 126.327148438 14.5361328125 l 1
 63.9736328125 -21.4638671875 l 1
 59.9736328125 -14.5361328125 l 1
 59.9736328125 150.543945312 l 1
 57.54296875 154.75390625 l 1
 59.9736328125 156.157226562 l 1
 59.9736328125 528.1640625 l 1
EndSplineSet
EndChar

StartChar: runeKaun
Encoding: 5812 5812 50
Width: 454
GlyphClass: 2
Flags: MW
VStem: 57.5428 67.4 331.455 66.3538
LayerCount: 2
Fore
SplineSet
331.455078125 511.3359375 m 0
 331.455078125 517.168945312 330.107421875 522.78515625 327.2734375 528.162109375 c 1
 389.626953125 564.162109375 l 1
 395.220703125 554.473632812 397.80859375 549.991210938 397.80859375 540.40625 c 0
 397.80859375 488.344726562 290.436523438 419.208984375 174.25390625 352.130859375 c 2
 124.942382812 323.661132812 l 1
 126.327148438 14.5341796875 l 1
 63.9736328125 -21.4658203125 l 1
 59.9736328125 -14.5380859375 l 1
 57.54296875 528.162109375 l 1
 119.896484375 564.162109375 l 1
 123.896484375 557.234375 l 1
 124.900390625 333.151367188 l 1
 128.720703125 335.317382812 132.544921875 337.48828125 136.370117188 339.663085938 c 0
 241.0390625 401.409179688 331.455078125 463.561523438 331.455078125 511.3359375 c 0
EndSplineSet
EndChar

StartChar: runeGyfu
Encoding: 5815 5815 51
Width: 640
GlyphClass: 2
Flags: W
LayerCount: 2
Fore
SplineSet
62.3544921875 521.236328125 m 1
 58.3544921875 528.162109375 l 1
 120.708007812 564.162109375 l 1
 334.620117188 311.390625 l 1
 431.995117188 425.505859375 517.624023438 525.731445312 517.624023438 525.731445312 c 1
 579.977539062 561.731445312 l 1
 583.977539062 554.803710938 l 1
 583.977539062 554.803710938 469.872070312 421.247070312 355.311523438 286.94140625 c 1
 579.977539062 21.462890625 l 1
 583.977539062 14.53515625 l 1
 521.624023438 -21.46484375 l 1
 307.790039062 231.21484375 l 1
 210.047851562 116.56640625 123.897460938 15.298828125 123.897460938 14.537109375 c 2
 61.5439453125 -21.4638671875 l 1
 61.5439453125 -21.4638671875 57.5439453125 -14.5361328125 57.54296875 -14.533203125 c 0
 57.54296875 -13.6572265625 172.233398438 121.0234375 287.087890625 255.677734375 c 1
 62.3544921875 521.236328125 l 1
EndSplineSet
EndChar

StartChar: runeGar
Encoding: 5816 5816 52
Width: 636
GlyphClass: 2
Flags: W
LayerCount: 2
Fore
SplineSet
59.923828125 521.236328125 m 1
 55.923828125 528.162109375 l 1
 118.27734375 564.162109375 l 1
 224.622070312 438.499023438 l 1
 277.231445312 491.108398438 l 1
 339.584960938 527.108398438 l 1
 436.643554688 433.759765625 l 1
 483.452148438 488.579101562 515.193359375 525.731445312 515.193359375 525.731445312 c 1
 577.546875 561.731445312 l 1
 581.546875 554.803710938 l 1
 581.546875 554.803710938 529.013671875 493.315429688 459.450195312 411.825195312 c 1
 572.42578125 303.16796875 l 1
 576.42578125 296.240234375 l 1
 456.396484375 164.622070312 l 1
 577.546875 21.4638671875 l 1
 581.546875 14.5361328125 l 1
 519.193359375 -21.4638671875 l 1
 407.287109375 110.771484375 l 1
 361.3828125 60.4345703125 l 1
 299.029296875 24.4345703125 l 1
 207.333007812 116.131835938 l 1
 156.546875 56.4345703125 121.467773438 15.0244140625 121.467773438 14.5380859375 c 2
 59.1142578125 -21.462890625 l 1
 59.1142578125 -21.462890625 55.1142578125 -14.53515625 55.11328125 -14.5322265625 c 0
 55.11328125 -13.91796875 111.534179688 52.51953125 184.859375 138.604492188 c 1
 60.2568359375 263.208007812 l 1
 56.2568359375 270.135742188 l 1
 173.338867188 387.217773438 l 1
 59.923828125 521.236328125 l 1
332.190429688 311.389648438 m 1
 352.243164062 334.889648438 371.796875 357.799804688 390.208007812 379.368164062 c 1
 294.665039062 471.259765625 l 1
 241.7109375 418.305664062 l 1
 332.190429688 311.389648438 l 1
284.657226562 255.673828125 m 1
 190.426757812 367.021484375 l 1
 124.073242188 300.668945312 l 1
 231.456054688 193.28515625 l 1
 248.897460938 213.745117188 266.775390625 234.709960938 284.657226562 255.673828125 c 1
352.880859375 286.938476562 m 1
 437.21875 187.279296875 l 1
 508.57421875 265.524414062 l 1
 413.020507812 357.426757812 l 1
 393.408203125 334.444335938 373.151367188 310.703125 352.880859375 286.938476562 c 1
305.358398438 231.2109375 m 1
 287.681640625 210.4765625 270.3828125 190.178710938 253.905273438 170.834960938 c 1
 341.939453125 82.80078125 l 1
 388.109375 133.427734375 l 1
 305.358398438 231.2109375 l 1
EndSplineSet
EndChar

StartChar: runeWynn
Encoding: 5817 5817 53
Width: 391
GlyphClass: 2
Flags: MW
VStem: 57.9031 66.3538
LayerCount: 2
Fore
SplineSet
57.9033203125 386.32421875 m 0
 57.9033203125 466.430664062 57.814453125 526.686523438 57.5458984375 527.348632812 c 2
 119.897460938 563.353515625 l 1
 330.498046875 415.93359375 l 1
 334.498046875 409.005859375 l 1
 124.1796875 257.739257812 l 1
 124.07421875 132.118164062 123.897460938 14.53515625 123.897460938 14.53515625 c 1
 61.5439453125 -21.46484375 l 1
 61.5439453125 -21.46484375 57.5888671875 -14.615234375 57.5439453125 -14.5361328125 c 1
 57.5439453125 -14.5361328125 l 1
 57.544921875 -14.1591796875 57.7197265625 102.817382812 57.8251953125 227.9765625 c 1
 57.54296875 228.46484375 l 2
 57.9033203125 228.723632812 57.9033203125 258.55859375 57.9033203125 386.32421875 c 0
124.2578125 415.395507812 m 0
 124.2578125 372.697265625 124.232421875 324.358398438 124.1953125 276.400390625 c 1
 265.235351562 377.840820312 l 1
 124.235351562 476.541015625 l 1
 124.250976562 458.244140625 124.2578125 437.581054688 124.2578125 415.395507812 c 0
EndSplineSet
EndChar

StartChar: runeHaegl
Encoding: 5819 5819 54
Width: 544
GlyphClass: 2
Flags: MW
VStem: 55.1136 66.3538 423.314 66.3538
LayerCount: 2
Fore
SplineSet
122.50390625 557.236328125 m 2
 122.50390625 556.48046875 122.448242188 539.20703125 122.2890625 481.635742188 c 1
 423.16015625 310.69140625 l 1
 423.245117188 369.633789062 423.314453125 425.002929688 423.314453125 465.012695312 c 0
 423.314453125 502.701171875 423.252929688 526.760742188 423.0859375 527.341796875 c 2
 485.436523438 563.349609375 l 1
 489.436523438 556.421875 l 2
 489.60546875 556.12890625 489.666992188 532.004882812 489.666992188 494.083984375 c 0
 489.666992188 466.337890625 489.205078125 100.189453125 489.203125 96.2109375 c 2
 489.432617188 95.814453125 l 1
 489.19921875 95.6796875 489.19921875 95.6796875 489.19921875 77.171875 c 0
 489.19921875 39.1787109375 489.260742188 14.95703125 489.4296875 14.5400390625 c 2
 427.077148438 -21.462890625 l 1
 423.077148438 -14.53515625 l 2
 422.907226562 -14.240234375 422.844726562 10.0087890625 422.844726562 48.1005859375 c 0
 422.844726562 52.6181640625 422.845703125 57.330078125 422.84765625 62.2197265625 c 1
 121.681640625 233.333007812 l 1
 121.555664062 170.924804688 121.466796875 112.373046875 121.466796875 71.572265625 c 0
 121.466796875 36.751953125 121.53125 14.861328125 121.693359375 14.537109375 c 2
 59.33984375 -21.462890625 l 1
 55.33984375 -14.53515625 l 2
 55.177734375 -14.2109375 55.11328125 7.6796875 55.11328125 42.5 c 0
 55.11328125 98.615234375 55.2822265625 188.310546875 55.4833984375 275.43359375 c 1
 55.3408203125 275.680664062 l 1
 55.44921875 275.743164062 55.44921875 275.743164062 55.9208984375 447.2421875 c 1
 55.3408203125 448.247070312 l 1
 55.9248046875 448.583984375 l 1
 56.0703125 501.619140625 56.150390625 527.727539062 56.150390625 528.1640625 c 2
 118.50390625 564.1640625 l 1
 122.50390625 557.236328125 l 2
422.9140625 138.353515625 m 1
 422.950195312 168.678710938 422.998046875 201.456054688 423.047851562 234.671875 c 1
 122.0859375 405.66796875 l 1
 122.0078125 375.400390625 121.92578125 342.645507812 121.848632812 309.416992188 c 1
 151.029296875 293.142578125 326.874023438 193.047851562 422.9140625 138.353515625 c 1
EndSplineSet
EndChar

StartChar: runeNyd
Encoding: 5822 5822 55
Width: 449
GlyphClass: 2
Flags: MW
VStem: 191.193 66.3538
LayerCount: 2
Fore
SplineSet
191.193359375 528.1640625 m 1
 253.546875 564.163085938 l 1
 257.546875 557.235351562 l 1
 257.546875 279.608398438 l 1
 388.006835938 197.233398438 l 1
 392.006835938 190.305664062 l 1
 329.653320312 154.305664062 l 1
 257.546875 199.834960938 l 1
 257.546875 14.5361328125 l 1
 195.193359375 -21.4638671875 l 1
 191.193359375 -14.5361328125 l 1
 191.193359375 241.732421875 l 1
 61.54296875 323.596679688 l 1
 57.54296875 330.524414062 l 1
 119.896484375 366.524414062 l 1
 191.193359375 321.505859375 l 1
 191.193359375 528.1640625 l 1
EndSplineSet
EndChar

StartChar: runeIs
Encoding: 5825 5825 56
Width: 181
GlyphClass: 2
Flags: MW
VStem: 57.5433 66.3538
LayerCount: 2
Fore
SplineSet
124.93359375 557.236328125 m 2
 124.93359375 552.379882812 123.896484375 214.977539062 123.896484375 71.5712890625 c 0
 123.896484375 36.7509765625 123.9609375 14.8603515625 124.123046875 14.5361328125 c 2
 61.76953125 -21.4638671875 l 1
 57.76953125 -14.5361328125 l 2
 57.607421875 -14.2119140625 57.54296875 7.6787109375 57.54296875 42.4990234375 c 0
 57.54296875 181.696289062 58.580078125 527.515625 58.580078125 528.1640625 c 2
 120.93359375 564.1640625 l 1
 124.93359375 557.236328125 l 2
EndSplineSet
EndChar

StartChar: runeGer
Encoding: 5828 5828 57
Width: 602
GlyphClass: 2
Flags: MW
VStem: 268.503 66.3538
LayerCount: 2
Fore
SplineSet
268.143554688 -14.5361328125 m 0
 268.14453125 -14.1630859375 268.31640625 100.482421875 268.421875 224.212890625 c 1
 61.54296875 373.005859375 l 1
 57.54296875 379.93359375 l 1
 268.143554688 527.353515625 l 1
 330.497070312 563.353515625 l 1
 541.096679688 415.93359375 l 1
 545.096679688 409.005859375 l 1
 334.779296875 257.739257812 l 1
 334.673828125 132.118164062 334.497070312 14.53515625 334.497070312 14.53515625 c 1
 272.143554688 -21.46484375 l 1
 272.143554688 -21.46484375 268.188476562 -14.615234375 268.143554688 -14.5361328125 c 0
334.858398438 415.395507812 m 0
 334.858398438 372.697265625 334.833007812 324.358398438 334.795898438 276.400390625 c 1
 475.8359375 377.840820312 l 1
 334.8359375 476.541015625 l 1
 334.8515625 458.244140625 334.858398438 437.581054688 334.858398438 415.395507812 c 0
268.504882812 386.322265625 m 0
 268.504882812 441.114257812 268.463867188 486.618164062 268.3515625 510.119140625 c 1
 126.75390625 411.000976562 l 1
 268.483398438 309.065429688 l 1
 268.497070312 335.904296875 268.504882812 362.026367188 268.504882812 386.322265625 c 0
EndSplineSet
EndChar

StartChar: runeEoh
Encoding: 5831 5831 58
Width: 718
GlyphClass: 2
Flags: MW
VStem: 325.765 66.2415
LayerCount: 2
Fore
SplineSet
656.926757812 394.874023438 m 1
 660.926757812 387.946289062 l 1
 598.573242188 351.946289062 l 1
 392.704101562 481.935546875 l 1
 392.006835938 14.5361328125 l 1
 329.653320312 -21.4638671875 l 1
 61.54296875 147.826171875 l 1
 57.54296875 154.75390625 l 1
 119.896484375 190.75390625 l 1
 325.765625 60.7646484375 l 1
 326.462890625 528.1640625 l 1
 388.81640625 564.1640625 l 1
 656.926757812 394.874023438 l 1
EndSplineSet
EndChar

StartChar: runePeorth
Encoding: 5832 5832 59
Width: 550
GlyphClass: 2
Flags: MW
VStem: 59.9735 66.3538
LayerCount: 2
Fore
SplineSet
126.327148438 30.515625 m 1
 325.654296875 156.373046875 l 1
 388.0078125 192.373046875 l 1
 422.54296875 133.0859375 457.143554688 73.86328125 491.637695312 14.53515625 c 1
 429.284179688 -21.46484375 l 1
 331.090820312 146.981445312 l 1
 126.328125 17.6904296875 l 1
 126.328125 14.53515625 l 1
 63.974609375 -21.46484375 l 1
 62.6650390625 -19.197265625 l 1
 61.5439453125 -19.8447265625 l 1
 57.5439453125 -12.9169921875 l 1
 59.974609375 -11.3818359375 l 1
 59.974609375 528.163085938 l 1
 122.328125 564.163085938 l 1
 354.53125 401.1875 l 1
 385.864257812 453.474609375 427.71875 523.918945312 427.783203125 527.23046875 c 2
 427.712890625 527.3515625 l 1
 427.712890625 527.3515625 490.06640625 563.3515625 490.120117188 563.321289062 c 2
 490.120117188 563.321289062 494.120117188 556.393554688 494.13671875 556.310546875 c 0
 494.13671875 551.1796875 387.146484375 374.174804688 387.146484375 374.174804688 c 1
 324.79296875 338.174804688 l 1
 126.327148438 477.471679688 l 1
 126.327148438 30.515625 l 1
EndSplineSet
EndChar

StartChar: runeEolhx
Encoding: 5833 5833 60
Width: 615
GlyphClass: 2
Flags: MW
VStem: 275.02 66.3538
LayerCount: 2
Fore
SplineSet
275.020507812 528.1640625 m 1
 337.375 564.166015625 l 1
 341.375 557.23828125 l 1
 341.375 410.674804688 l 1
 491.5625 527.916015625 l 1
 488.004882812 532.685546875 483.5546875 538.248046875 483.5546875 538.248046875 c 1
 479.5546875 545.17578125 l 1
 541.908203125 581.17578125 l 1
 551.666992188 568.9765625 552.500976562 567.53125 557.834960938 558.29296875 c 0
 558.10546875 557.823242188 558.2578125 557.485351562 558.235351562 557.236328125 c 2
 341.374023438 387.946289062 l 1
 341.374023438 14.5361328125 l 1
 279.020507812 -21.4638671875 l 1
 275.020507812 -14.5361328125 l 1
 275.020507812 355.059570312 l 1
 61.54296875 521.236328125 l 1
 57.54296875 528.1640625 l 1
 119.896484375 564.1640625 l 1
 275.020507812 443.412109375 l 1
 275.020507812 528.1640625 l 1
EndSplineSet
EndChar

StartChar: runeSowilo
Encoding: 5834 5834 61
Width: 486
GlyphClass: 2
Flags: MW
HStem: -17.3627 42.9282 519.404 42.9282
LayerCount: 2
Fore
SplineSet
371.163085938 519.403320312 m 0
 370.287109375 519.403320312 369.323242188 519.302734375 368.25390625 519.095703125 c 0
 297.026367188 474.6484375 131.263671875 381.215820312 128.849609375 379.858398438 c 1
 178.077148438 350.296875 413.944335938 206.952148438 413.944335938 206.952148438 c 1
 417.944335938 200.024414062 l 1
 399.192382812 189.198242188 365.958984375 167.888671875 257.840820312 98.5634765625 c 0
 166.618164062 40.0712890625 158.02734375 34.5634765625 147.40234375 28.4287109375 c 2
 85.048828125 -7.5712890625 l 2
 73.2568359375 -14.37890625 66.1181640625 -17.36328125 61.2001953125 -17.36328125 c 0
 57.234375 -17.36328125 54.556640625 -17.36328125 45.3955078125 0.0439453125 c 1
 107.749023438 36.0439453125 l 1
 111.888671875 28.873046875 113.798828125 25.5654296875 119.552734375 25.5654296875 c 0
 120.8359375 25.5654296875 122.26953125 25.7685546875 123.897460938 26.189453125 c 0
 337.30078125 162.669921875 337.30078125 162.669921875 347.671875 168.8359375 c 1
 300.860351562 197.28125 62.2890625 342.2265625 61.556640625 342.2265625 c 2
 57.556640625 349.155273438 l 2
 57.556640625 349.974609375 234.790039062 449.711914062 236.578125 450.731445312 c 0
 271.8828125 471.421875 305.078125 491.514648438 328.083984375 506.833007812 c 0
 337.912109375 513.376953125 337.912109375 513.376953125 407.583984375 553.6015625 c 0
 418.181640625 559.720703125 425.04296875 562.333007812 429.516601562 562.333007812 c 0
 433.825195312 562.333007812 433.971679688 562.079101562 439.79296875 551.995117188 c 0
 441.58203125 548.895507812 441.971679688 543.8828125 442.225585938 537.796875 c 1
 379.872070312 501.796875 l 1
 375.872070312 508.724609375 l 2
 375.715820312 512.461914062 375.508789062 515.794921875 374.958007812 518.528320312 c 0
 373.934570312 519.099609375 372.6875 519.403320312 371.163085938 519.403320312 c 0
EndSplineSet
EndChar

StartChar: runeSigel
Encoding: 5835 5835 62
Width: 468
GlyphClass: 2
Flags: MW
VStem: 57.5433 66.3538 345.318 66.3517
LayerCount: 2
Fore
SplineSet
342.932617188 321.66015625 m 1
 328.583984375 314.345703125 64.578125 175.225585938 61.7646484375 173.750976562 c 2
 57.7646484375 180.678710938 l 2
 57.6064453125 180.953125 57.54296875 194.809570312 57.54296875 216.845703125 c 0
 57.54296875 305.82421875 58.580078125 528.1640625 58.580078125 528.1640625 c 1
 120.93359375 564.1640625 l 1
 124.93359375 557.236328125 l 1
 124.93359375 557.236328125 123.896484375 334.896484375 123.896484375 245.91796875 c 0
 123.896484375 234.267578125 123.9140625 224.903320312 123.954101562 218.624023438 c 1
 157.723632812 236.172851562 403.733398438 366.524414062 405.244140625 366.524414062 c 2
 409.244140625 359.596679688 l 1
 409.244140625 359.596679688 410.858398438 16.5380859375 411.668945312 14.5439453125 c 2
 349.317382812 -21.4609375 l 1
 345.317382812 -14.533203125 l 2
 344.584960938 -13.2646484375 343.192382812 267.801757812 342.932617188 321.66015625 c 1
EndSplineSet
EndChar

StartChar: runeTir
Encoding: 5839 5839 63
Width: 596
GlyphClass: 2
Flags: MW
VStem: 263.283 66.3538
LayerCount: 2
Fore
SplineSet
535.426757812 398.923828125 m 1
 539.426757812 391.997070312 l 1
 477.073242188 355.997070312 l 1
 329.63671875 472.125 l 1
 329.63671875 14.537109375 l 1
 267.283203125 -21.462890625 l 1
 263.283203125 -14.53515625 l 1
 263.283203125 503.161132812 l 1
 123.896484375 389.56640625 l 1
 131.1875 374.986328125 l 1
 68.833984375 338.986328125 l 1
 64.6728515625 345.7578125 61.21875 353.237304688 57.54296875 360.494140625 c 1
 263.283203125 528.1640625 l 1
 325.63671875 564.1640625 l 1
 535.426757812 398.923828125 l 1
EndSplineSet
EndChar

StartChar: runeBeorc
Encoding: 5842 5842 64
Width: 388
GlyphClass: 2
Flags: MW
VStem: 55.9227 66.381
LayerCount: 2
Fore
SplineSet
262.849609375 134.291992188 m 1
 122.517578125 212.680664062 l 1
 122.44140625 134.571289062 122.348632812 65.1806640625 122.303710938 33.20703125 c 1
 262.849609375 134.291992188 l 1
122.63671875 415.395507812 m 0
 122.63671875 377.223632812 122.6171875 334.544921875 122.5859375 291.659179688 c 1
 263.379882812 378.005859375 l 1
 122.614257812 476.541015625 l 1
 122.629882812 458.244140625 122.63671875 437.581054688 122.63671875 415.395507812 c 0
56.283203125 386.504882812 m 0
 56.283203125 466.521484375 56.193359375 526.6875 55.9228515625 527.353515625 c 2
 118.276367188 563.353515625 l 1
 328.876953125 415.93359375 l 1
 332.876953125 409.005859375 l 1
 129.522460938 284.291992188 l 1
 328.876953125 172.93359375 l 1
 332.876953125 166.005859375 l 1
 122.276367188 14.53515625 l 1
 59.9228515625 -21.46484375 l 1
 55.9228515625 -14.537109375 l 2
 55.9228515625 -14.5341796875 56.283203125 225.9453125 56.283203125 386.504882812 c 0
EndSplineSet
EndChar

StartChar: runeOpenP
Encoding: 5845 5845 65
Width: 462
GlyphClass: 2
Flags: MW
HStem: 185.442 56.5835
VStem: 58.4783 66.3538
LayerCount: 2
Fore
SplineSet
57.54296875 49.2060546875 m 0
 57.54296875 154.188476562 58.4775390625 362.138671875 58.4775390625 466.041992188 c 0
 58.4775390625 503.1484375 58.3583984375 526.984375 58.009765625 528.1640625 c 2
 120.375976562 564.153320312 l 1
 124.375976562 557.225585938 l 2
 124.708984375 556.6484375 124.831054688 532.682617188 124.831054688 495.11328125 c 0
 124.831054688 455.845703125 124.697265625 401.717773438 124.53125 343.903320312 c 1
 159.108398438 345.4453125 190.911132812 351.38671875 220.46875 363.051757812 c 1
 264.3984375 397.671875 303.24609375 450.702148438 339.421875 528.165039062 c 1
 401.775390625 564.165039062 l 1
 405.775390625 557.237304688 l 1
 361.561523438 462.560546875 313.35546875 404.3828125 256.758789062 371.70703125 c 2
 194.405273438 335.70703125 l 2
 172.430664062 323.01953125 149.190429688 314.176757812 124.427734375 308.53515625 c 1
 124.229492188 242.02734375 l 1
 215.233398438 222.935546875 305.961914062 199.620117188 368.72265625 90.9150390625 c 0
 388.266601562 57.0634765625 396.325195312 36.986328125 404.15625 15.3486328125 c 1
 341.802734375 -20.6513671875 l 1
 337.802734375 -13.7236328125 l 1
 328.918945312 10.82421875 319.056640625 32.4033203125 308.356445312 51.4267578125 c 0
 259.25390625 134.278320312 193.528320312 166.353515625 124.073242188 185.443359375 c 1
 123.96875 144.71875 123.896484375 107.5078125 123.896484375 78.2783203125 c 0
 123.896484375 39.8515625 124.021484375 15.220703125 124.364257812 14.5361328125 c 2
 62.0107421875 -21.4638671875 l 1
 58.0107421875 -14.5361328125 l 2
 57.66796875 -13.8515625 57.54296875 10.779296875 57.54296875 49.2060546875 c 0
EndSplineSet
EndChar

StartChar: runeEh
Encoding: 5846 5846 66
Width: 596
GlyphClass: 2
Flags: MW
VStem: 57.5428 66.3538 473.073 66.3538
LayerCount: 2
Fore
SplineSet
123.896484375 471.594726562 m 1
 123.89453125 14.5361328125 l 1
 61.541015625 -21.4638671875 l 1
 57.541015625 -14.5361328125 l 1
 57.541015625 528.1640625 l 1
 58.5927734375 528.771484375 l 1
 57.541015625 530.59375 l 1
 119.89453125 566.59375 l 1
 166.220703125 526.944335938 208.932617188 492.7734375 251.645507812 458.602539062 c 0
 273.42578125 441.177734375 295.206054688 423.752929688 317.465820312 405.6015625 c 1
 473.072265625 528.1640625 l 1
 535.42578125 564.1640625 l 1
 539.42578125 557.236328125 l 1
 539.42578125 14.5361328125 l 1
 477.072265625 -21.4638671875 l 1
 473.072265625 -14.5361328125 l 1
 473.072265625 504.97265625 l 1
 329.635742188 391.99609375 l 1
 267.282226562 355.99609375 l 1
 259.087890625 362.709960938 125.322265625 470.4296875 123.896484375 471.594726562 c 1
EndSplineSet
EndChar

StartChar: runeMan
Encoding: 5847 5847 67
Width: 596
GlyphClass: 2
Flags: MW
VStem: 57.5428 66.3538 473.073 66.3538
LayerCount: 2
Fore
SplineSet
123.896484375 318.794921875 m 1
 261.856445312 401.516601562 l 1
 123.896484375 483.969726562 l 1
 123.896484375 318.794921875 l 1
123.896484375 308.09765625 m 1
 123.896484375 14.53515625 l 1
 61.54296875 -21.46484375 l 1
 57.54296875 -14.537109375 l 1
 57.54296875 528.163085938 l 1
 119.896484375 564.163085938 l 1
 326.840820312 440.481445312 l 1
 396.234375 481.84375 464.797851562 524.036132812 535.426757812 564.163085938 c 1
 539.426757812 557.235351562 l 1
 539.426757812 14.53515625 l 1
 477.073242188 -21.46484375 l 1
 473.073242188 -14.537109375 l 1
 473.073242188 275.280273438 l 1
 270.805664062 396.166992188 l 1
 221.83203125 366.814453125 172.888671875 337.431640625 123.896484375 308.09765625 c 1
473.073242188 517.44921875 m 1
 335.791015625 435.1328125 l 1
 473.073242188 353.084960938 l 1
 473.073242188 517.44921875 l 1
EndSplineSet
EndChar

StartChar: runeLagu
Encoding: 5850 5850 68
Width: 449
GlyphClass: 2
Flags: MW
VStem: 57.5428 66.3538
LayerCount: 2
Fore
SplineSet
388.006835938 394.874023438 m 1
 392.006835938 387.946289062 l 1
 329.653320312 351.946289062 l 1
 123.896484375 481.865234375 l 1
 123.896484375 14.5361328125 l 1
 61.54296875 -21.4638671875 l 1
 57.54296875 -14.5361328125 l 1
 57.54296875 528.1640625 l 1
 119.896484375 564.1640625 l 1
 388.006835938 394.874023438 l 1
EndSplineSet
EndChar

StartChar: runeIng
Encoding: 5853 5853 69
Width: 471
GlyphClass: 2
Flags: W
LayerCount: 2
Fore
SplineSet
-140.973632812 428.446289062 m 1
 -203.327148438 392.446289062 l 1
 -207.327148438 399.374023438 l 1
 -144.973632812 435.374023438 l 1
 -140.973632812 428.446289062 l 1
340.233398438 541.93359375 m 1
 402.586914062 577.934570312 l 1
 407.196289062 570.26171875 411.232421875 562.014648438 415.497070312 553.99609375 c 1
 367.711914062 511.240234375 320.076171875 468.334960938 272.704101562 425.165039062 c 1
 409.493164062 300.737304688 l 1
 413.493164062 293.809570312 l 1
 268.685546875 155.764648438 l 1
 410.766601562 18.4931640625 l 1
 414.766601562 11.5654296875 l 1
 352.413085938 -24.4345703125 l 1
 216.948242188 106.444335938 l 1
 123.086914062 16.966796875 l 1
 131.997070312 -0.04296875 l 1
 69.6435546875 -36.04296875 l 1
 65.0341796875 -28.3701171875 60.998046875 -20.123046875 56.7333984375 -12.1044921875 c 1
 199.139648438 123.650390625 l 1
 62.8193359375 255.35546875 l 1
 58.8193359375 262.283203125 l 1
 106.817382812 305.763671875 154.79296875 349.266601562 202.73046875 392.807617188 c 1
 61.54296875 521.237304688 l 1
 57.54296875 528.165039062 l 1
 119.896484375 564.165039062 l 1
 255.557617188 440.762695312 l 1
 286.5859375 468.983398438 317.956054688 496.862304688 349.143554688 524.923828125 c 1
 340.233398438 541.93359375 l 1
219.877929688 377.209960938 m 1
 188.879882812 349.060546875 157.83203125 320.963867188 126.809570312 292.838867188 c 1
 250.876953125 172.971679688 l 1
 345.374023438 263.0546875 l 1
 219.877929688 377.209960938 l 1
EndSplineSet
EndChar

StartChar: runeDaeg
Encoding: 5854 5854 70
Width: 596
GlyphClass: 2
Flags: MW
VStem: 57.5428 66.3538 473.073 66.3538
LayerCount: 2
Fore
SplineSet
123.896484375 14.5361328125 m 1
 61.54296875 -21.4638671875 l 1
 57.54296875 -14.5361328125 l 1
 57.54296875 528.1640625 l 1
 119.896484375 564.1640625 l 2
 121.465820312 561.446289062 189.10546875 472.926757812 310.374023438 314.75390625 c 1
 397.046875 427.803710938 472.727539062 526.782226562 473.073242188 528.165039062 c 2
 535.426757812 564.165039062 l 1
 539.426757812 557.237304688 l 1
 539.426757812 14.537109375 l 1
 477.073242188 -21.462890625 l 1
 477.073242188 -21.462890625 384.502929688 99.0771484375 286.747070312 226.540039062 c 1
 199.8125 113.286132812 123.896484375 14.5361328125 123.896484375 14.5361328125 c 1
332.399414062 286.028320312 m 1
 383.901367188 218.868164062 435.015625 152.262695312 473.073242188 102.681640625 c 1
 473.073242188 469.65234375 l 1
 434.466796875 419.1328125 383.462890625 352.5859375 332.399414062 286.028320312 c 1
264.733398438 255.245117188 m 1
 213.176757812 322.483398438 161.995117188 389.282226562 123.897460938 439.12109375 c 1
 123.897460938 71.8115234375 l 1
 162.544921875 122.118164062 213.616210938 188.618164062 264.733398438 255.245117188 c 1
EndSplineSet
EndChar

StartChar: runeEthel
Encoding: 5855 5855 71
Width: 567
GlyphClass: 2
Flags: W
LayerCount: 2
Fore
SplineSet
440.224609375 355.263671875 m 1
 415.809570312 377.444335938 319.661132812 464.734375 267.013671875 511.609375 c 1
 201.46875 452.961914062 138.032226562 394.298828125 127.208984375 384.274414062 c 1
 298.73046875 218.559570312 l 1
 440.224609375 355.263671875 l 1
265.470703125 151.388671875 m 1
 123.946289062 14.6572265625 l 1
 127.45703125 8.693359375 130.978515625 2.740234375 134.427734375 -3.28515625 c 1
 72.07421875 -39.28515625 l 1
 67.2255859375 -31.0166015625 62.3232421875 -22.8017578125 57.544921875 -14.462890625 c 1
 247.338867188 168.905273438 l 1
 63.23828125 346.7734375 l 1
 59.23828125 353.701171875 l 1
 59.23828125 353.701171875 166.147460938 452.893554688 252.169921875 528.163085938 c 1
 314.5234375 564.163085938 l 1
 370.4375 514.701171875 504.336914062 392.958984375 504.336914062 392.958984375 c 1
 508.336914062 386.03125 l 1
 316.86328125 201.041015625 l 1
 506.029296875 18.2802734375 l 1
 510.029296875 11.3525390625 l 1
 447.67578125 -24.6474609375 l 1
 265.470703125 151.388671875 l 1
EndSplineSet
EndChar

StartChar: uni0148
Encoding: 5856 5856 72
Width: 741
GlyphClass: 2
Flags: MW
VStem: 337.005 66.3538
LayerCount: 2
Fore
SplineSet
403.358398438 476.900390625 m 1
 403.359375 14.5380859375 l 1
 341.005859375 -21.4619140625 l 1
 337.005859375 -14.5341796875 l 1
 337.005859375 511.478515625 l 1
 197.634765625 415.365234375 l 1
 135.28125 379.365234375 l 1
 131.28125 386.29296875 l 1
 57.5439453125 528.165039062 l 1
 119.897460938 564.165039062 l 1
 123.897460938 557.237304688 l 1
 191.25 427.649414062 l 1
 337.005859375 528.165039062 l 1
 399.359375 564.165039062 l 1
 570.045898438 442.799804688 l 1
 592.63671875 481.092773438 618.34375 525.157226562 618.37890625 527.443359375 c 2
 618.325195312 527.536132812 l 1
 618.325195312 527.536132812 680.678710938 563.536132812 680.719726562 563.512695312 c 2
 680.719726562 563.512695312 684.719726562 556.584960938 684.732421875 556.51953125 c 0
 684.732421875 552.541992188 602.885742188 415.364257812 602.885742188 415.364257812 c 1
 540.532226562 379.364257812 l 1
 403.358398438 476.900390625 l 1
EndSplineSet
EndChar

StartChar: runeIor
Encoding: 5857 5857 73
Width: 453
GlyphClass: 2
Flags: MW
VStem: 194.433 66.3538
LayerCount: 2
Fore
SplineSet
82.603515625 126.766601562 m 1
 80.2529296875 130.236328125 74.3359375 142.427734375 72.9658203125 143.357421875 c 2
 68.9658203125 150.28515625 l 1
 109.901367188 181.6015625 150.836914062 212.91796875 191.772460938 244.234375 c 1
 69.140625 338.049804688 l 1
 65.140625 344.977539062 l 1
 127.494140625 380.977539062 l 1
 194.432617188 329.768554688 l 1
 194.432617188 528.165039062 l 1
 256.786132812 564.165039062 l 1
 260.786132812 557.237304688 l 1
 260.786132812 297.03125 l 1
 322.247070312 344.049804688 l 1
 319.943359375 347.584960938 317.501953125 351.135742188 317.501953125 351.135742188 c 1
 313.501953125 358.063476562 l 1
 375.85546875 394.063476562 l 2
 375.994140625 393.861328125 388.6171875 374.991210938 388.603515625 373.122070312 c 2
 263.182617188 277.172851562 l 1
 380.77734375 187.2109375 l 1
 384.77734375 180.283203125 l 1
 322.423828125 144.283203125 l 1
 260.786132812 191.436523438 l 1
 260.786132812 14.5361328125 l 1
 198.432617188 -21.4638671875 l 1
 194.432617188 -14.5361328125 l 1
 194.432617188 224.578125 l 1
 135.629882812 179.592773438 l 1
 140.984375 170.318359375 142.3359375 167.76953125 144.95703125 162.766601562 c 1
 82.603515625 126.766601562 l 1
EndSplineSet
EndChar

StartChar: runeCalc
Encoding: 5859 5859 74
Width: 629
GlyphClass: 2
Flags: MW
VStem: 283.845 66.3538
LayerCount: 2
Fore
SplineSet
283.844726562 528.1640625 m 1
 346.196289062 564.1640625 l 1
 350.196289062 557.236328125 l 1
 350.196289062 185.887695312 l 1
 567.638671875 21.2880859375 l 1
 571.638671875 14.3603515625 l 1
 509.28515625 -21.6396484375 l 1
 350.196289062 98.787109375 l 1
 350.196289062 14.537109375 l 1
 287.842773438 -21.462890625 l 1
 283.842773438 -14.53515625 l 1
 283.842773438 135.4375 l 1
 124.157226562 14.55859375 l 1
 126.63671875 10.263671875 129.048828125 3.9384765625 131.99609375 -4.9033203125 c 1
 69.642578125 -40.9033203125 l 1
 65.642578125 -33.9755859375 l 2
 62.533203125 -24.6484375 61.515625 -21.5947265625 57.54296875 -14.712890625 c 1
 281.415039062 154.75390625 l 1
 283.844726562 156.15625 l 1
 283.844726562 528.1640625 l 1
EndSplineSet
EndChar

StartChar: runeEar
Encoding: 5861 5861 75
Width: 596
GlyphClass: 2
Flags: MW
VStem: 57.5428 66.3538 473.073 66.3538
LayerCount: 2
Fore
SplineSet
57.54296875 -16.9658203125 m 1
 57.5439453125 528.1640625 l 1
 58.595703125 528.771484375 l 1
 57.5439453125 530.59375 l 1
 119.897460938 566.59375 l 1
 148.416992188 548.0390625 181.892578125 527.15234375 214.359375 506.89453125 c 0
 257.393554688 480.04296875 298.65625 454.296875 324.260742188 436.55078125 c 1
 473.073242188 528.1640625 l 1
 535.426757812 564.1640625 l 1
 539.426757812 557.236328125 l 1
 539.426757812 14.5361328125 l 1
 477.073242188 -21.4638671875 l 1
 271.049804688 106.971679688 l 1
 152.890625 29.58203125 152.890625 29.58203125 123.896484375 12.1064453125 c 2
 61.54296875 -23.8935546875 l 1
 57.54296875 -16.9658203125 l 1
123.897460938 24.935546875 m 1
 125.296875 25.8447265625 231.134765625 97.1533203125 263.727539062 115.970703125 c 2
 326.081054688 151.970703125 l 1
 473.07421875 60.3349609375 l 1
 473.07421875 516.385742188 l 1
 330.081054688 428.35546875 l 1
 267.727539062 392.35546875 l 1
 246.053710938 407.498046875 246.053710938 407.498046875 123.897460938 484.026367188 c 1
 123.897460938 24.935546875 l 1
EndSplineSet
EndChar

StartChar: runeSinglePunct
Encoding: 5867 5867 76
Width: 264
GlyphClass: 2
Flags: MW
HStem: 222 136<87 125>
VStem: 31 151<277 303>
LayerCount: 2
Fore
SplineSet
36 292 m 1
 31 303 l 1
 125 358 l 1
 176 287 l 1
 182 277 l 1
 87 222 l 1
 36 292 l 1
EndSplineSet
EndChar

StartChar: runeMultiPunct
Encoding: 5868 5868 77
Width: 262
GlyphClass: 2
Flags: MW
HStem: 128 136<100 138> 333 136<101 139>
VStem: 44 151<183 209> 45 151<388 414>
LayerCount: 2
Fore
SplineSet
49 198 m 1xa0
 44 209 l 1
 138 264 l 1
 189 193 l 1
 195 183 l 1
 100 128 l 1
 49 198 l 1xa0
50 403 m 1x50
 45 414 l 1
 139 469 l 1
 190 398 l 1
 196 388 l 1
 101 333 l 1
 50 403 l 1x50
EndSplineSet
EndChar

StartChar: uni16ED
Encoding: 5869 5869 78
Width: 365
GlyphClass: 2
Flags: MW
HStem: 269.47 43.1818
VStem: 147.835 66.3538
LayerCount: 2
Fore
SplineSet
147.834960938 362.114257812 m 1
 210.188476562 398.114257812 l 1
 214.188476562 391.186523438 l 1
 214.188476562 312.65234375 l 1
 305.767578125 312.25390625 l 1
 309.767578125 305.326171875 l 1
 247.4140625 269.326171875 l 1
 214.188476562 269.470703125 l 1
 214.188476562 217.036132812 l 1
 151.834960938 181.036132812 l 1
 147.834960938 187.963867188 l 1
 147.834960938 269.758789062 l 1
 61.1142578125 270.135742188 l 1
 57.1142578125 277.063476562 l 1
 119.467773438 313.063476562 l 1
 147.834960938 312.940429688 l 1
 147.834960938 362.114257812 l 1
EndSplineSet
EndChar

StartChar: runeTolK
Encoding: 5873 5873 79
Width: 461
GlyphClass: 2
Flags: MW
VStem: 58.4783 66.3538
LayerCount: 2
Fore
SplineSet
57.54296875 49.2060546875 m 0
 57.54296875 154.188476562 58.4765625 362.138671875 58.4765625 466.041992188 c 0
 58.4765625 503.1484375 58.357421875 526.984375 58.0087890625 528.1640625 c 2
 120.375 564.153320312 l 1
 124.375 557.225585938 l 2
 124.708007812 556.6484375 124.830078125 532.682617188 124.830078125 495.11328125 c 0
 124.830078125 467.31640625 124.830078125 467.31640625 124.111328125 200.255859375 c 1
 137.350585938 205.680664062 154.875 212.5859375 174.219726562 220.208007812 c 0
 226.08984375 240.646484375 291.049804688 266.243164062 321.5859375 282.28515625 c 1
 325.5859375 275.357421875 l 1
 349.076171875 200.836914062 385.525390625 80.95703125 404.15625 15.34765625 c 1
 341.802734375 -20.65234375 l 1
 337.802734375 -13.724609375 l 1
 319.8046875 49.6572265625 285.177734375 163.6875 261.668945312 238.541992188 c 1
 232.170898438 223.309570312 173.51171875 200.004882812 124.060546875 180.509765625 c 1
 123.962890625 141.715820312 123.896484375 106.323242188 123.896484375 78.2783203125 c 0
 123.896484375 39.8515625 124.021484375 15.220703125 124.364257812 14.5361328125 c 2
 62.0107421875 -21.4638671875 l 1
 58.0107421875 -14.5361328125 l 2
 57.66796875 -13.8515625 57.54296875 10.779296875 57.54296875 49.2060546875 c 0
EndSplineSet
EndChar

StartChar: runeTolSH
Encoding: 5874 5874 80
Width: 468
GlyphClass: 2
Flags: MW
VStem: 57.5428 66.3538 345.287 66.3865
LayerCount: 2
Fore
SplineSet
122.327148438 366.524414062 m 2
 123.112304688 366.524414062 123.169921875 366.5234375 345.286132812 249.31640625 c 1
 345.110351562 350.583984375 344.282226562 528.163085938 344.282226562 528.163085938 c 1
 406.635742188 564.163085938 l 1
 410.635742188 557.235351562 l 1
 410.635742188 557.235351562 411.672851562 334.895507812 411.672851562 245.916992188 c 0
 411.672851562 223.733398438 411.608398438 209.838867188 411.447265625 209.74609375 c 2
 349.091796875 173.74609375 l 2
 348.73046875 173.74609375 128.21875 290.125 125.987304688 291.299804688 c 1
 125.467773438 190.8828125 124.475585938 15.115234375 123.896484375 14.5361328125 c 2
 61.54296875 -21.4638671875 l 1
 57.54296875 -14.5361328125 l 2
 58.353515625 -13.7255859375 59.9736328125 330.524414062 59.9736328125 330.524414062 c 1
 122.327148438 366.524414062 l 2
EndSplineSet
EndChar

StartChar: runeTolOO
Encoding: 5875 5875 81
Width: 602
GlyphClass: 2
Flags: MW
VStem: 268.503 66.3538
LayerCount: 2
Fore
SplineSet
268.143554688 -14.5361328125 m 0
 268.14453125 -14.1630859375 268.31640625 100.482421875 268.421875 224.212890625 c 1
 61.54296875 373.005859375 l 1
 57.54296875 379.93359375 l 1
 268.143554688 527.353515625 l 1
 330.497070312 563.353515625 l 1
 541.096679688 415.93359375 l 1
 545.096679688 409.005859375 l 1
 334.779296875 257.739257812 l 1
 334.673828125 132.118164062 334.497070312 14.53515625 334.497070312 14.53515625 c 1
 272.143554688 -21.46484375 l 1
 272.143554688 -21.46484375 268.188476562 -14.615234375 268.143554688 -14.5361328125 c 0
334.858398438 415.395507812 m 0
 334.858398438 372.697265625 334.833007812 324.358398438 334.795898438 276.400390625 c 1
 475.8359375 377.840820312 l 1
 334.8359375 476.541015625 l 1
 334.8515625 458.244140625 334.858398438 437.581054688 334.858398438 415.395507812 c 0
268.504882812 386.322265625 m 0
 268.504882812 441.114257812 268.463867188 486.618164062 268.3515625 510.119140625 c 1
 126.75390625 411.000976562 l 1
 268.483398438 309.065429688 l 1
 268.497070312 335.904296875 268.504882812 362.026367188 268.504882812 386.322265625 c 0
EndSplineSet
EndChar

StartChar: uni25C7
Encoding: 9671 9671 87
Width: 810
GlyphClass: 2
Flags: MW
HStem: 0.631607 21G
LayerCount: 2
Fore
SplineSet
434.469726562 601.423828125 m 1
 713.401367188 322.4921875 l 1
 717.401367188 315.564453125 l 1
 438.469726562 36.6318359375 l 1
 376.116210938 0.6318359375 l 1
 97.18359375 279.564453125 l 1
 93.18359375 286.4921875 l 1
 372.116210938 565.423828125 l 1
 434.469726562 601.423828125 l 1
649.583007812 285.028320312 m 1
 389.291992188 545.319335938 l 1
 161 317.028320312 l 1
 421.291992188 56.736328125 l 1
 649.583007812 285.028320312 l 1
EndSplineSet
EndChar

StartChar: uniA75B
Encoding: 42843 42843 89
Width: 204
GlyphClass: 2
Flags: MW
HStem: 279.856 42.9282
VStem: 103.713 66.3538
LayerCount: 2
Fore
SplineSet
103.712890625 208.213867188 m 0
 103.712890625 220.465820312 100.83203125 231.470703125 95.955078125 241.09375 c 0
 79.75 265.966796875 49.7548828125 279.856445312 25.0927734375 279.856445312 c 0
 12.357421875 279.856445312 -1.9716796875 277.541992188 -17.8515625 271.172851562 c 2
 -57.5263671875 248.266601562 l 1
 -61.5263671875 255.194335938 l 1
 -51.5048828125 262.7109375 -51.5048828125 262.7109375 20.767578125 304.4375 c 0
 44.7001953125 318.254882812 65.6318359375 322.784179688 83.4453125 322.784179688 c 0
 109.216796875 322.784179688 140.810546875 307.6171875 156.408203125 280.600585938 c 0
 163.77734375 267.837890625 170.06640625 256.9453125 170.06640625 237.28515625 c 0
 170.06640625 203.130859375 141.28125 178.432617188 114.045898438 162.708007812 c 2
 81.4501953125 143.888671875 l 1
 142.61328125 122.0390625 165.782226562 45.8173828125 229.248046875 21.4638671875 c 1
 233.248046875 14.5361328125 l 1
 170.89453125 -21.4638671875 l 1
 101.232421875 5.267578125 80.1259765625 94.4794921875 4.0341796875 105.706054688 c 1
 0.0341796875 112.633789062 l 1
 62.3876953125 148.633789062 l 1
 62.3876953125 148.633789062 67.3720703125 150.112304688 75.154296875 153.104492188 c 0
 91.345703125 167.501953125 103.712890625 185.826171875 103.712890625 208.213867188 c 0
EndSplineSet
EndChar

StartChar: gargP
Encoding: 58816 58816 90
Width: 481
GlyphClass: 2
Flags: MW
HStem: -21.4641 42.9282 310.907 42.9282 321.536 42.9282 453.346 89.9077
VStem: 28.8231 66.3538 196.684 100.374 380.823 66.3538
LayerCount: 2
Fore
SplineSet
200.684570312 500.326171875 m 1x14
 196.684570312 507.25390625 l 1
 259.038085938 543.25390625 l 1
 293.05859375 496.274414062 l 1
 297.05859375 489.346679688 l 1
 234.705078125 453.346679688 l 1
 200.684570312 500.326171875 l 1x14
226.176757812 364.463867188 m 0xaa
 281.086914062 364.463867188 402.962890625 353.8359375 459.978515625 353.8359375 c 0xca
 475.071289062 353.8359375 485.619140625 354.580078125 489.176757812 356.463867188 c 1
 493.176757812 349.536132812 l 1
 444.09765625 321.200195312 l 1
 444.09765625 321.200195312 447.172851562 315.872070312 447.176757812 315.856445312 c 2
 447.176757812 56.5361328125 l 2
 447.176757812 42.236328125 447.176757812 13.8330078125 455.079101562 -3.71875 c 0
 458.853515625 -8.7509765625 463.82421875 -11.8662109375 470.373046875 -11.8662109375 c 0
 475.103515625 -11.8662109375 480.657226562 -10.240234375 487.176757812 -6.5361328125 c 1
 491.176757812 -13.4638671875 l 1
 428.823242188 -49.4638671875 l 2
 422.303710938 -53.1689453125 416.75 -54.794921875 412.018554688 -54.794921875 c 0
 401.17578125 -54.794921875 397.401367188 -48.2568359375 390.623046875 -36.517578125 c 0
 382.658203125 -22.7216796875 381.166992188 0.763671875 380.887695312 17.32421875 c 1
 361.077148438 5.88671875 l 2
 337.84765625 -7.525390625 301.229492188 -21.4638671875 207.823242188 -21.4638671875 c 0
 91.357421875 -21.4638671875 47.5576171875 -4.5087890625 36.123046875 15.296875 c 0
 30.060546875 25.7978515625 28.8232421875 27.9404296875 28.8232421875 34.4638671875 c 2
 28.8232421875 286.784179688 l 2
 28.8232421875 299.225585938 35.1181640625 307.954101562 45.72265625 314.077148438 c 2
 108.077148438 350.077148438 l 2
 132.583984375 364.2265625 180.111328125 364.463867188 226.176757812 364.463867188 c 0xaa
401.625 310.907226562 m 0
 344.608398438 310.907226562 222.733398438 321.536132812 167.823242188 321.536132812 c 0xaa
 142.779296875 321.536132812 117.302734375 321.465820312 95.328125 319.127929688 c 0
 95.2275390625 318.06640625 95.1767578125 316.9765625 95.1767578125 315.856445312 c 2
 95.1767578125 63.5361328125 l 2
 95.1767578125 60.623046875 95.671875 57.7099609375 96.779296875 54.837890625 c 0
 111.19140625 36.5244140625 156.411132812 21.4638671875 266.176757812 21.4638671875 c 0
 321.067382812 21.4638671875 356.34765625 26.27734375 380.823242188 32.9697265625 c 1
 380.823242188 273.732421875 l 1
 371.823242188 268.536132812 l 1
 367.823242188 275.463867188 l 1
 367.823242188 275.463867188 379.059570312 285.8359375 380.639648438 286.748046875 c 2
 424.209960938 311.903320312 l 1
 418.91796875 311.206054688 411.182617188 310.907226562 401.625 310.907226562 c 0
EndSplineSet
EndChar

StartChar: gargB
Encoding: 58817 58817 91
Width: 481
GlyphClass: 2
Flags: MW
HStem: -21.4641 42.9282 257.683 42.9282 302.801 20G 333.435 42.9282 452.346 89.9077
VStem: 28.8231 66.3538 193.684 100.374 380.823 66.3538
LayerCount: 2
Fore
SplineSet
197.684570312 499.326171875 m 1
 193.684570312 506.25390625 l 1
 256.038085938 542.25390625 l 1
 290.05859375 495.274414062 l 1
 294.05859375 488.346679688 l 1
 231.705078125 452.346679688 l 1
 197.684570312 499.326171875 l 1
95.1767578125 315.856445312 m 2
 95.1767578125 63.5361328125 l 2
 95.1767578125 60.623046875 95.671875 57.7099609375 96.779296875 54.837890625 c 0
 111.19140625 36.5244140625 156.411132812 21.4638671875 266.176757812 21.4638671875 c 0
 321.067382812 21.4638671875 356.34765625 26.27734375 380.823242188 32.9697265625 c 1
 380.823242188 273.732421875 l 1
 371.823242188 268.536132812 l 1
 367.823242188 275.463867188 l 1
 367.823242188 275.463867188 379.059570312 285.8359375 380.639648438 286.748046875 c 0
 401.4921875 298.75390625 422.278320312 310.856445312 443.172851562 322.80078125 c 1
 443.172851562 322.80078125 447.172851562 315.872070312 447.176757812 315.856445312 c 2
 447.176757812 56.5361328125 l 2
 447.176757812 42.236328125 447.176757812 13.8330078125 455.079101562 -3.71875 c 0
 458.853515625 -8.7509765625 463.82421875 -11.8662109375 470.373046875 -11.8662109375 c 0
 475.103515625 -11.8662109375 480.657226562 -10.240234375 487.176757812 -6.5361328125 c 1
 491.176757812 -13.4638671875 l 1
 428.823242188 -49.4638671875 l 2
 422.303710938 -53.1689453125 416.75 -54.794921875 412.018554688 -54.794921875 c 0
 401.17578125 -54.794921875 397.401367188 -48.2568359375 390.623046875 -36.517578125 c 0
 382.658203125 -22.7216796875 381.166992188 0.763671875 380.887695312 17.32421875 c 1
 361.077148438 5.88671875 l 2
 337.84765625 -7.525390625 301.229492188 -21.4638671875 207.823242188 -21.4638671875 c 0
 91.357421875 -21.4638671875 47.5576171875 -4.5087890625 36.123046875 15.296875 c 0
 30.060546875 25.7978515625 28.8232421875 27.9404296875 28.8232421875 34.4638671875 c 2
 28.8232421875 286.784179688 l 2
 28.8232421875 305.705078125 38.744140625 319.48828125 54.064453125 328.333007812 c 2
 116.41796875 364.333007812 l 2
 130.397460938 372.404296875 148.87109375 376.36328125 168.403320312 376.36328125 c 0
 206.4296875 376.36328125 248.470703125 361.357421875 269.176757812 332.463867188 c 0
 285.872070312 309.16796875 308.022460938 300.611328125 331.807617188 300.611328125 c 0
 356.940429688 300.611328125 383.899414062 310.165039062 408.178710938 321.978515625 c 2
 466.176757812 355.463867188 l 1
 470.176757812 348.536132812 l 1
 448.896484375 335.12890625 448.896484375 335.12890625 375.90234375 292.985351562 c 0
 346.131835938 275.797851562 308.061523438 257.682617188 273.454101562 257.682617188 c 0
 249.668945312 257.682617188 227.518554688 266.240234375 210.823242188 289.536132812 c 0
 190.116210938 318.428710938 148.076171875 333.435546875 110.049804688 333.435546875 c 0
 106.067382812 333.435546875 102.129882812 333.270507812 98.2646484375 332.940429688 c 0
 96.2607421875 327.801757812 95.1767578125 322.109375 95.1767578125 315.856445312 c 2
EndSplineSet
EndChar

StartChar: gargM
Encoding: 58818 58818 92
Width: 481
GlyphClass: 2
Flags: MW
HStem: -21.4641 42.9282 302.801 20G 406.346 89.9077
VStem: 28.8231 66.3538 191.684 100.374 380.823 66.3538
LayerCount: 2
Fore
SplineSet
195.684570312 453.326171875 m 1
 191.684570312 460.25390625 l 1
 254.038085938 496.25390625 l 1
 288.05859375 449.274414062 l 1
 292.05859375 442.346679688 l 1
 229.705078125 406.346679688 l 1
 195.684570312 453.326171875 l 1
447.176757812 56.5361328125 m 2
 447.176757812 42.236328125 447.176757812 13.8330078125 455.079101562 -3.71875 c 0
 458.853515625 -8.7509765625 463.82421875 -11.8662109375 470.373046875 -11.8662109375 c 0
 475.103515625 -11.8662109375 480.657226562 -10.240234375 487.176757812 -6.5361328125 c 1
 491.176757812 -13.4638671875 l 1
 428.823242188 -49.4638671875 l 2
 422.303710938 -53.1689453125 416.75 -54.794921875 412.018554688 -54.794921875 c 0
 401.17578125 -54.794921875 397.401367188 -48.2568359375 390.623046875 -36.517578125 c 0
 382.658203125 -22.7216796875 381.166992188 0.763671875 380.887695312 17.32421875 c 1
 361.077148438 5.88671875 l 2
 337.84765625 -7.525390625 301.229492188 -21.4638671875 207.823242188 -21.4638671875 c 0
 91.357421875 -21.4638671875 47.5576171875 -4.5087890625 36.123046875 15.296875 c 0
 30.060546875 25.7978515625 28.8232421875 27.9404296875 28.8232421875 34.4638671875 c 2
 28.8232421875 273.732421875 l 1
 19.8232421875 268.536132812 l 1
 15.8232421875 275.463867188 l 1
 15.8232421875 275.463867188 27.9365234375 284.982421875 28.8232421875 286.568359375 c 2
 28.8232421875 286.784179688 l 1
 28.8232421875 286.784179688 91.1767578125 322.784179688 91.21875 322.752929688 c 2
 91.21875 322.752929688 95.21875 315.825195312 95.228515625 315.786132812 c 0
 95.228515625 315.749023438 95.2109375 315.700195312 95.1767578125 315.640625 c 2
 95.1767578125 63.5361328125 l 2
 95.1767578125 60.623046875 95.671875 57.7099609375 96.779296875 54.837890625 c 0
 111.19140625 36.5244140625 156.411132812 21.4638671875 266.176757812 21.4638671875 c 0
 321.067382812 21.4638671875 356.34765625 26.27734375 380.823242188 32.9697265625 c 1
 380.823242188 273.732421875 l 1
 371.823242188 268.536132812 l 1
 367.823242188 275.463867188 l 1
 367.823242188 275.463867188 379.059570312 285.8359375 380.639648438 286.748046875 c 0
 401.4921875 298.75390625 422.278320312 310.856445312 443.172851562 322.80078125 c 1
 443.172851562 322.80078125 447.172851562 315.872070312 447.176757812 315.856445312 c 2
 447.176757812 56.5361328125 l 2
EndSplineSet
EndChar

StartChar: gargF
Encoding: 58819 58819 93
Width: 481
GlyphClass: 2
Flags: MW
HStem: -21.4641 42.9282 310.907 42.9282 321.536 42.9282
VStem: 28.8231 66.3538 380.823 66.3538
LayerCount: 2
Fore
SplineSet
226.176757812 364.463867188 m 0xb8
 281.086914062 364.463867188 402.9609375 353.833007812 459.9765625 353.833007812 c 0xd8
 475.069335938 353.833007812 485.6171875 354.578125 489.17578125 356.461914062 c 1
 493.17578125 349.534179688 l 1
 444.096679688 321.198242188 l 1
 444.096679688 321.198242188 447.172851562 315.87109375 447.176757812 315.854492188 c 2
 447.176757812 56.5341796875 l 2
 447.176757812 42.2353515625 447.176757812 13.83203125 455.078125 -3.7197265625 c 0
 458.852539062 -8.751953125 463.82421875 -11.8671875 470.372070312 -11.8671875 c 0
 475.102539062 -11.8671875 480.65625 -10.2412109375 487.17578125 -6.537109375 c 1
 491.17578125 -13.46484375 l 1
 428.822265625 -49.46484375 l 2
 422.302734375 -53.1689453125 416.749023438 -54.794921875 412.018554688 -54.794921875 c 0
 401.174804688 -54.794921875 397.400390625 -48.2578125 390.623046875 -36.5185546875 c 0
 382.658203125 -22.72265625 381.166992188 0.763671875 380.887695312 17.3232421875 c 1
 361.077148438 5.8857421875 l 2
 337.84765625 -7.525390625 301.229492188 -21.46484375 207.822265625 -21.46484375 c 0
 91.3564453125 -21.46484375 47.556640625 -4.509765625 36.1220703125 15.2958984375 c 0
 30.0595703125 25.796875 28.822265625 27.939453125 28.822265625 34.4638671875 c 2
 28.822265625 286.784179688 l 2
 28.822265625 299.225585938 35.1171875 307.954101562 45.72265625 314.077148438 c 2
 108.076171875 350.077148438 l 2
 132.583984375 364.2265625 180.111328125 364.463867188 226.176757812 364.463867188 c 0xb8
401.623046875 310.905273438 m 0
 344.607421875 310.905273438 222.732421875 321.534179688 167.822265625 321.534179688 c 0xb8
 142.778320312 321.534179688 117.301757812 321.463867188 95.3271484375 319.125976562 c 0
 95.2265625 318.065429688 95.17578125 316.975585938 95.17578125 315.85546875 c 2
 95.17578125 63.53515625 l 2
 95.17578125 60.6220703125 95.6708984375 57.708984375 96.7783203125 54.8369140625 c 0
 111.190429688 36.5234375 156.41015625 21.462890625 266.17578125 21.462890625 c 0
 321.06640625 21.462890625 356.345703125 26.2763671875 380.821289062 32.9677734375 c 1
 380.821289062 273.73046875 l 1
 371.821289062 268.534179688 l 1
 367.821289062 275.461914062 l 1
 367.821289062 275.461914062 379.057617188 285.833984375 380.637695312 286.74609375 c 2
 424.208007812 311.901367188 l 1
 418.916015625 311.204101562 411.180664062 310.905273438 401.623046875 310.905273438 c 0
EndSplineSet
EndChar

StartChar: gargV
Encoding: 58820 58820 94
Width: 481
GlyphClass: 2
Flags: MW
HStem: -21.4641 42.9282 257.683 42.9282 302.801 20G 333.435 42.9282
VStem: 28.8231 66.3538 380.823 66.3538
LayerCount: 2
Fore
SplineSet
95.1767578125 315.856445312 m 2
 95.1767578125 63.5361328125 l 2
 95.1767578125 60.623046875 95.671875 57.7099609375 96.779296875 54.837890625 c 0
 111.19140625 36.5244140625 156.411132812 21.4638671875 266.176757812 21.4638671875 c 0
 321.067382812 21.4638671875 356.346679688 26.27734375 380.822265625 32.96875 c 1
 380.822265625 273.731445312 l 1
 371.822265625 268.53515625 l 1
 367.822265625 275.462890625 l 1
 367.822265625 275.462890625 379.05859375 285.834960938 380.638671875 286.747070312 c 0
 401.491210938 298.752929688 422.27734375 310.85546875 443.172851562 322.799804688 c 1
 443.172851562 322.799804688 447.172851562 315.872070312 447.176757812 315.85546875 c 2
 447.176757812 56.53515625 l 2
 447.176757812 42.236328125 447.176757812 13.8330078125 455.078125 -3.71875 c 0
 458.852539062 -8.7509765625 463.82421875 -11.8662109375 470.372070312 -11.8662109375 c 0
 475.102539062 -11.8662109375 480.65625 -10.240234375 487.17578125 -6.5361328125 c 1
 491.17578125 -13.4638671875 l 1
 428.822265625 -49.4638671875 l 2
 422.302734375 -53.16796875 416.749023438 -54.7939453125 412.018554688 -54.7939453125 c 0
 401.174804688 -54.7939453125 397.400390625 -48.2568359375 390.623046875 -36.517578125 c 0
 382.658203125 -22.7216796875 381.166992188 0.7646484375 380.887695312 17.32421875 c 1
 361.077148438 5.88671875 l 2
 337.84765625 -7.5244140625 301.229492188 -21.4638671875 207.822265625 -21.4638671875 c 0
 91.3564453125 -21.4638671875 47.556640625 -4.5087890625 36.1220703125 15.296875 c 0
 30.0595703125 25.7978515625 28.822265625 27.9404296875 28.822265625 34.46484375 c 2
 28.822265625 286.78515625 l 2
 28.822265625 305.706054688 38.7431640625 319.489257812 54.0634765625 328.333984375 c 2
 116.416992188 364.333984375 l 2
 130.395507812 372.404296875 148.869140625 376.364257812 168.40234375 376.364257812 c 0
 206.428710938 376.364257812 248.469726562 361.358398438 269.176757812 332.465820312 c 0
 285.872070312 309.169921875 308.021484375 300.61328125 331.806640625 300.61328125 c 0
 356.939453125 300.61328125 383.8984375 310.166992188 408.178710938 321.981445312 c 2
 466.176757812 355.466796875 l 1
 470.176757812 348.5390625 l 1
 448.896484375 335.131835938 448.896484375 335.131835938 375.90234375 292.98828125 c 0
 346.131835938 275.799804688 308.061523438 257.684570312 273.454101562 257.684570312 c 0
 249.668945312 257.684570312 227.51953125 266.241210938 210.82421875 289.537109375 c 0
 190.1171875 318.4296875 148.076171875 333.435546875 110.049804688 333.435546875 c 0
 106.067382812 333.435546875 102.129882812 333.271484375 98.2646484375 332.94140625 c 0
 96.2607421875 327.802734375 95.1767578125 322.110351562 95.1767578125 315.856445312 c 2
EndSplineSet
EndChar

StartChar: gargU
Encoding: 58821 58821 95
Width: 481
GlyphClass: 2
Flags: MW
HStem: -21.4641 42.9282 302.801 20G
VStem: 28.8231 66.3538 380.823 66.3538
LayerCount: 2
Fore
SplineSet
447.176757812 56.5361328125 m 2
 447.176757812 42.2373046875 447.176757812 13.833984375 455.078125 -3.7177734375 c 0
 458.852539062 -8.75 463.82421875 -11.865234375 470.372070312 -11.865234375 c 0
 475.102539062 -11.865234375 480.65625 -10.2392578125 487.17578125 -6.53515625 c 1
 491.17578125 -13.462890625 l 1
 428.822265625 -49.462890625 l 2
 422.302734375 -53.1669921875 416.749023438 -54.79296875 412.018554688 -54.79296875 c 0
 401.174804688 -54.79296875 397.400390625 -48.255859375 390.623046875 -36.5166015625 c 0
 382.658203125 -22.720703125 381.166992188 0.765625 380.887695312 17.3251953125 c 1
 361.077148438 5.8876953125 l 2
 337.84765625 -7.5234375 301.229492188 -21.462890625 207.822265625 -21.462890625 c 0
 91.3564453125 -21.462890625 47.556640625 -4.5078125 36.1220703125 15.2978515625 c 0
 30.0595703125 25.798828125 28.822265625 27.94140625 28.822265625 34.4658203125 c 2
 28.822265625 273.733398438 l 1
 19.822265625 268.537109375 l 1
 15.822265625 275.46484375 l 1
 15.822265625 275.46484375 27.935546875 284.982421875 28.822265625 286.569335938 c 2
 28.822265625 286.78515625 l 1
 28.822265625 286.78515625 91.17578125 322.78515625 91.2177734375 322.75390625 c 2
 91.2177734375 322.75390625 95.2177734375 315.826171875 95.2275390625 315.787109375 c 0
 95.2275390625 315.750976562 95.2099609375 315.702148438 95.1767578125 315.641601562 c 2
 95.1767578125 63.537109375 l 2
 95.1767578125 60.6240234375 95.671875 57.7109375 96.779296875 54.8388671875 c 0
 111.19140625 36.525390625 156.411132812 21.46484375 266.176757812 21.46484375 c 0
 321.067382812 21.46484375 356.346679688 26.2783203125 380.822265625 32.9697265625 c 1
 380.822265625 273.732421875 l 1
 371.822265625 268.536132812 l 1
 367.822265625 275.463867188 l 1
 367.822265625 275.463867188 379.05859375 285.8359375 380.638671875 286.748046875 c 0
 401.491210938 298.75390625 422.27734375 310.856445312 443.172851562 322.80078125 c 1
 443.172851562 322.80078125 447.172851562 315.873046875 447.176757812 315.856445312 c 2
 447.176757812 56.5361328125 l 2
EndSplineSet
EndChar

StartChar: gargT
Encoding: 58822 58822 96
Width: 481
GlyphClass: 2
Flags: MW
HStem: -21.4641 42.9282 322.895 42.9282 452.346 89.9077
VStem: 28.8231 66.3538 181.684 100.374 380.823 66.3538
LayerCount: 2
Fore
SplineSet
185.684570312 499.326171875 m 1
 181.684570312 506.25390625 l 1
 244.038085938 542.25390625 l 1
 278.05859375 495.274414062 l 1
 282.05859375 488.346679688 l 1
 219.705078125 452.346679688 l 1
 185.684570312 499.326171875 l 1
220.932617188 322.895507812 m 0
 129.689453125 322.895507812 18.1767578125 311.491210938 16.1259765625 311.491210938 c 0
 15.8388671875 311.491210938 15.8388671875 311.491210938 11.8232421875 318.463867188 c 1
 74.1904296875 354.440429688 l 2
 74.2275390625 354.426757812 74.32421875 354.419921875 74.4794921875 354.419921875 c 0
 80.7998046875 354.419921875 183.774414062 365.823242188 279.287109375 365.823242188 c 0
 354.797851562 365.823242188 425.64453125 358.696289062 440.380859375 333.171875 c 0
 446.3359375 322.858398438 447.176757812 321.401367188 447.176757812 315.856445312 c 2
 447.176757812 -69.4638671875 l 2
 447.176757812 -83.763671875 447.176757812 -112.166992188 455.079101562 -129.71875 c 0
 458.853515625 -134.750976562 463.82421875 -137.866210938 470.373046875 -137.866210938 c 0
 475.103515625 -137.866210938 480.657226562 -136.240234375 487.176757812 -132.536132812 c 1
 491.176757812 -139.463867188 l 1
 428.823242188 -175.463867188 l 2
 422.303710938 -179.168945312 416.75 -180.794921875 412.018554688 -180.794921875 c 0
 401.17578125 -180.794921875 397.401367188 -174.256835938 390.623046875 -162.517578125 c 0
 380.823242188 -145.543945312 380.823242188 -113.899414062 380.823242188 -98.5361328125 c 1
 364.204101562 -59.0654296875 296.598632812 -21.4638671875 210.823242188 -21.4638671875 c 0
 177.7265625 -21.4638671875 141.9921875 -25.5615234375 111.287109375 -34.99609375 c 1
 101.1171875 -46.712890625 95.1767578125 -60.7763671875 95.1767578125 -77.4638671875 c 0
 95.1767578125 -94.708984375 110.56640625 -118.948242188 128.176757812 -137.625 c 1
 132.176757812 -144.552734375 l 1
 69.8232421875 -180.552734375 l 1
 50.546875 -160.111328125 28.8232421875 -124.8515625 28.8232421875 -106.536132812 c 0
 28.8232421875 -78.6787109375 45.3759765625 -58.1337890625 70.5234375 -43.615234375 c 2
 132.877929688 -7.615234375 l 2
 168.580078125 12.9970703125 221.604492188 21.4638671875 269.176757812 21.4638671875 c 0
 307.140625 21.4638671875 347.712890625 13.6357421875 380.823242188 -2.490234375 c 1
 380.823242188 286.784179688 l 2
 380.823242188 289.184570312 380.4296875 291.459960938 379.669921875 293.6171875 c 0
 360.828125 316.40234375 293.004882812 322.895507812 220.932617188 322.895507812 c 0
EndSplineSet
EndChar

StartChar: gargD
Encoding: 58823 58823 97
Width: 481
GlyphClass: 2
Flags: MW
HStem: -21.4641 42.9282 257.799 42.9282 332.492 42.9282 453.346 89.9077
VStem: 28.8231 66.3538 192.684 100.374 380.823 66.3538
LayerCount: 2
Fore
SplineSet
196.684570312 500.326171875 m 1
 192.684570312 507.25390625 l 1
 255.038085938 543.25390625 l 1
 289.05859375 496.274414062 l 1
 293.05859375 489.346679688 l 1
 230.705078125 453.346679688 l 1
 196.684570312 500.326171875 l 1
380.823242188 -98.5361328125 m 1
 364.204101562 -59.0654296875 296.598632812 -21.4638671875 210.823242188 -21.4638671875 c 0
 177.7265625 -21.4638671875 141.9921875 -25.5615234375 111.287109375 -34.99609375 c 1
 101.1171875 -46.712890625 95.1767578125 -60.7763671875 95.1767578125 -77.4638671875 c 0
 95.1767578125 -94.708984375 110.56640625 -118.948242188 128.176757812 -137.625 c 1
 132.176757812 -144.552734375 l 1
 69.8232421875 -180.552734375 l 1
 50.546875 -160.111328125 28.8232421875 -124.8515625 28.8232421875 -106.536132812 c 0
 28.8232421875 -78.6787109375 45.3759765625 -58.1337890625 70.5234375 -43.615234375 c 2
 132.877929688 -7.615234375 l 2
 168.580078125 12.9970703125 221.604492188 21.4638671875 269.176757812 21.4638671875 c 0
 307.140625 21.4638671875 347.712890625 13.6357421875 380.823242188 -2.490234375 c 1
 380.823242188 286.784179688 l 2
 380.823242188 291.998046875 379.389648438 298.047851562 376.452148438 304.149414062 c 0
 366.32421875 319.075195312 346.802734375 332.4921875 316.8046875 332.4921875 c 0
 301.23046875 332.4921875 282.833984375 328.875976562 261.4609375 319.978515625 c 0
 257.071289062 317.045898438 257.071289062 317.045898438 190.184570312 278.428710938 c 0
 164.390625 263.536132812 137.685546875 257.798828125 113.76171875 257.798828125 c 0
 75.44140625 257.798828125 44.2548828125 272.518554688 35.369140625 287.909179688 c 0
 29.4931640625 298.087890625 28.8232421875 299.248046875 28.8232421875 303.463867188 c 0
 28.8232421875 313.275390625 35.21484375 321.958007812 47.5380859375 329.072265625 c 2
 109.891601562 365.072265625 l 2
 117.665039062 369.560546875 127.798828125 373.424804688 140.176757812 376.553710938 c 1
 144.176757812 369.625976562 l 1
 97.7021484375 342.793945312 l 2
 96.0263671875 339.538085938 95.1767578125 336.112304688 95.1767578125 332.536132812 c 0
 95.1767578125 330.833007812 95.4951171875 329.104492188 96.1083984375 327.37109375 c 0
 107.35546875 313.309570312 136.686523438 300.727539062 172.116210938 300.727539062 c 0
 188.50390625 300.727539062 206.197265625 303.419921875 224.008789062 309.90234375 c 0
 225.76171875 310.944335938 225.76171875 310.944335938 289.857421875 347.950195312 c 0
 324.44921875 367.921875 352.731445312 375.419921875 375.158203125 375.419921875 c 0
 407.432617188 375.419921875 427.579101562 359.890625 436.94921875 343.66015625 c 0
 443.30078125 332.659179688 447.176757812 325.9453125 447.176757812 315.856445312 c 2
 447.176757812 -69.4638671875 l 2
 447.176757812 -83.763671875 447.176757812 -112.166992188 455.079101562 -129.71875 c 0
 458.853515625 -134.750976562 463.82421875 -137.866210938 470.373046875 -137.866210938 c 0
 475.103515625 -137.866210938 480.657226562 -136.240234375 487.176757812 -132.536132812 c 1
 491.176757812 -139.463867188 l 1
 428.823242188 -175.463867188 l 2
 422.303710938 -179.168945312 416.75 -180.794921875 412.018554688 -180.794921875 c 0
 401.17578125 -180.794921875 397.401367188 -174.256835938 390.623046875 -162.517578125 c 0
 380.823242188 -145.543945312 380.823242188 -113.899414062 380.823242188 -98.5361328125 c 1
EndSplineSet
EndChar

StartChar: gargN
Encoding: 58824 58824 98
Width: 481
GlyphClass: 2
Flags: MW
HStem: -21.4641 42.9282 112.346 89.9077 302.801 20G
VStem: 28.8231 66.3538 174.684 100.374 380.823 66.3538
LayerCount: 2
Fore
SplineSet
178.684570312 159.326171875 m 1
 174.684570312 166.25390625 l 1
 237.038085938 202.25390625 l 1
 271.05859375 155.274414062 l 1
 275.05859375 148.346679688 l 1
 212.705078125 112.346679688 l 1
 178.684570312 159.326171875 l 1
380.823242188 -98.5361328125 m 1
 364.204101562 -59.0654296875 296.598632812 -21.4638671875 210.823242188 -21.4638671875 c 0
 177.7265625 -21.4638671875 141.9921875 -25.5615234375 111.287109375 -34.99609375 c 1
 101.1171875 -46.712890625 95.1767578125 -60.7763671875 95.1767578125 -77.4638671875 c 0
 95.1767578125 -94.708984375 110.56640625 -118.948242188 128.176757812 -137.625 c 1
 132.176757812 -144.552734375 l 1
 69.8232421875 -180.552734375 l 1
 50.546875 -160.111328125 28.8232421875 -124.8515625 28.8232421875 -106.536132812 c 0
 28.8232421875 -78.6787109375 45.3759765625 -58.1337890625 70.5234375 -43.615234375 c 2
 132.877929688 -7.615234375 l 2
 168.580078125 12.9970703125 221.604492188 21.4638671875 269.176757812 21.4638671875 c 0
 307.140625 21.4638671875 347.712890625 13.6357421875 380.823242188 -2.490234375 c 1
 380.823242188 273.732421875 l 1
 371.823242188 268.536132812 l 1
 367.823242188 275.463867188 l 1
 367.823242188 275.463867188 379.059570312 285.8359375 380.639648438 286.748046875 c 0
 401.4921875 298.75390625 422.278320312 310.856445312 443.172851562 322.80078125 c 1
 443.172851562 322.80078125 447.172851562 315.872070312 447.176757812 315.856445312 c 2
 447.176757812 -69.4638671875 l 2
 447.176757812 -83.763671875 447.176757812 -112.166992188 455.079101562 -129.71875 c 0
 458.853515625 -134.750976562 463.82421875 -137.866210938 470.373046875 -137.866210938 c 0
 475.103515625 -137.866210938 480.657226562 -136.240234375 487.176757812 -132.536132812 c 1
 491.176757812 -139.463867188 l 1
 428.823242188 -175.463867188 l 2
 422.303710938 -179.168945312 416.75 -180.794921875 412.018554688 -180.794921875 c 0
 401.17578125 -180.794921875 397.401367188 -174.256835938 390.623046875 -162.517578125 c 0
 380.823242188 -145.543945312 380.823242188 -113.899414062 380.823242188 -98.5361328125 c 1
EndSplineSet
EndChar

StartChar: gargS
Encoding: 58825 58825 99
Width: 481
GlyphClass: 2
Flags: MW
HStem: -21.4641 42.9282 322.895 42.9282
VStem: 28.8231 66.3538 380.823 66.3538
LayerCount: 2
Fore
SplineSet
220.932617188 322.895507812 m 0
 129.688476562 322.895507812 18.177734375 311.491210938 16.126953125 311.491210938 c 0
 15.83984375 311.491210938 15.83984375 311.491210938 11.82421875 318.463867188 c 1
 74.19140625 354.440429688 l 2
 74.228515625 354.42578125 74.3251953125 354.418945312 74.48046875 354.418945312 c 0
 80.80078125 354.418945312 183.775390625 365.822265625 279.288085938 365.822265625 c 0
 354.798828125 365.822265625 425.645507812 358.6953125 440.381835938 333.170898438 c 0
 446.3359375 322.857421875 447.177734375 321.400390625 447.177734375 315.85546875 c 2
 447.177734375 -69.46484375 l 2
 447.177734375 -83.763671875 447.177734375 -112.166992188 455.079101562 -129.71875 c 0
 458.853515625 -134.750976562 463.825195312 -137.866210938 470.373046875 -137.866210938 c 0
 475.103515625 -137.866210938 480.657226562 -136.240234375 487.176757812 -132.536132812 c 1
 491.176757812 -139.463867188 l 1
 428.823242188 -175.463867188 l 2
 422.303710938 -179.16796875 416.75 -180.793945312 412.01953125 -180.793945312 c 0
 401.17578125 -180.793945312 397.401367188 -174.256835938 390.624023438 -162.517578125 c 0
 380.82421875 -145.54296875 380.82421875 -113.8984375 380.82421875 -98.53515625 c 1
 364.205078125 -59.064453125 296.600585938 -21.4638671875 210.825195312 -21.4638671875 c 0
 177.729492188 -21.4638671875 141.994140625 -25.5615234375 111.2890625 -34.99609375 c 1
 101.119140625 -46.7119140625 95.1787109375 -60.775390625 95.1787109375 -77.462890625 c 0
 95.1787109375 -94.7080078125 110.568359375 -118.947265625 128.178710938 -137.623046875 c 1
 132.178710938 -144.55078125 l 1
 69.8251953125 -180.55078125 l 1
 50.5498046875 -160.109375 28.8251953125 -124.849609375 28.8251953125 -106.534179688 c 0
 28.8251953125 -78.677734375 45.3779296875 -58.1328125 70.525390625 -43.6142578125 c 2
 132.87890625 -7.6142578125 l 2
 168.581054688 12.998046875 221.60546875 21.46484375 269.177734375 21.46484375 c 0
 307.141601562 21.46484375 347.712890625 13.6357421875 380.823242188 -2.490234375 c 1
 380.823242188 286.784179688 l 2
 380.823242188 289.184570312 380.430664062 291.459960938 379.669921875 293.6171875 c 0
 360.828125 316.40234375 293.004882812 322.895507812 220.932617188 322.895507812 c 0
EndSplineSet
EndChar

StartChar: gargZ
Encoding: 58826 58826 100
Width: 481
GlyphClass: 2
Flags: MW
HStem: -21.4641 42.9282 257.799 42.9282 332.492 42.9282
VStem: 28.8231 66.3538 380.823 66.3538
LayerCount: 2
Fore
SplineSet
380.823242188 -98.5361328125 m 1
 364.204101562 -59.0654296875 296.600585938 -21.46484375 210.825195312 -21.46484375 c 0
 177.729492188 -21.46484375 141.994140625 -25.5625 111.2890625 -34.9970703125 c 1
 101.119140625 -46.712890625 95.1787109375 -60.7763671875 95.1787109375 -77.4638671875 c 0
 95.1787109375 -94.708984375 110.568359375 -118.948242188 128.178710938 -137.624023438 c 1
 132.178710938 -144.551757812 l 1
 69.8251953125 -180.551757812 l 1
 50.5498046875 -160.110351562 28.8251953125 -124.850585938 28.8251953125 -106.53515625 c 0
 28.8251953125 -78.6787109375 45.3779296875 -58.1337890625 70.525390625 -43.615234375 c 2
 132.87890625 -7.615234375 l 2
 168.581054688 12.9970703125 221.60546875 21.4638671875 269.177734375 21.4638671875 c 0
 307.141601562 21.4638671875 347.712890625 13.634765625 380.823242188 -2.4912109375 c 1
 380.823242188 286.783203125 l 2
 380.823242188 291.997070312 379.390625 298.046875 376.453125 304.1484375 c 0
 366.32421875 319.07421875 346.803710938 332.491210938 316.8046875 332.491210938 c 0
 301.231445312 332.491210938 282.833984375 328.875 261.4609375 319.977539062 c 0
 257.071289062 317.044921875 257.071289062 317.044921875 190.184570312 278.427734375 c 0
 164.389648438 263.53515625 137.685546875 257.797851562 113.76171875 257.797851562 c 0
 75.44140625 257.797851562 44.2548828125 272.517578125 35.369140625 287.908203125 c 0
 29.4921875 298.086914062 28.822265625 299.247070312 28.822265625 303.462890625 c 0
 28.822265625 313.2734375 35.2138671875 321.956054688 47.537109375 329.0703125 c 2
 109.890625 365.0703125 l 2
 117.6640625 369.55859375 127.797851562 373.422851562 140.17578125 376.551757812 c 1
 144.17578125 369.624023438 l 1
 97.701171875 342.791992188 l 2
 96.0244140625 339.537109375 95.1748046875 336.110351562 95.1748046875 332.534179688 c 0
 95.1748046875 330.831054688 95.4921875 329.102539062 96.1064453125 327.369140625 c 0
 107.353515625 313.307617188 136.684570312 300.725585938 172.114257812 300.725585938 c 0
 188.502929688 300.725585938 206.196289062 303.41796875 224.0078125 309.901367188 c 0
 225.760742188 310.943359375 225.760742188 310.943359375 289.856445312 347.94921875 c 0
 324.448242188 367.920898438 352.73046875 375.418945312 375.157226562 375.418945312 c 0
 407.431640625 375.418945312 427.578125 359.889648438 436.94921875 343.659179688 c 0
 443.30078125 332.658203125 447.176757812 325.944335938 447.176757812 315.854492188 c 2
 447.176757812 -69.4658203125 l 2
 447.176757812 -83.7646484375 447.176757812 -112.16796875 455.078125 -129.719726562 c 0
 458.852539062 -134.751953125 463.82421875 -137.8671875 470.372070312 -137.8671875 c 0
 475.102539062 -137.8671875 480.65625 -136.241210938 487.17578125 -132.537109375 c 1
 491.17578125 -139.46484375 l 1
 428.822265625 -175.46484375 l 2
 422.302734375 -179.168945312 416.749023438 -180.794921875 412.018554688 -180.794921875 c 0
 401.174804688 -180.794921875 397.400390625 -174.2578125 390.623046875 -162.518554688 c 0
 380.823242188 -145.543945312 380.823242188 -113.899414062 380.823242188 -98.5361328125 c 1
EndSplineSet
EndChar

StartChar: gargE
Encoding: 58827 58827 101
Width: 481
GlyphClass: 2
Flags: MW
HStem: -21.4641 42.9282 302.801 20G
VStem: 28.8231 66.3538 380.823 66.3538
LayerCount: 2
Fore
SplineSet
380.823242188 -98.5361328125 m 1
 364.204101562 -59.0654296875 296.599609375 -21.4658203125 210.82421875 -21.4658203125 c 0
 177.728515625 -21.4658203125 141.993164062 -25.5634765625 111.288085938 -34.998046875 c 1
 101.118164062 -46.7138671875 95.177734375 -60.77734375 95.177734375 -77.46484375 c 0
 95.177734375 -94.7099609375 110.567382812 -118.94921875 128.177734375 -137.625 c 1
 132.177734375 -144.552734375 l 1
 69.82421875 -180.552734375 l 1
 50.548828125 -160.111328125 28.82421875 -124.8515625 28.82421875 -106.536132812 c 0
 28.82421875 -78.6796875 45.376953125 -58.134765625 70.5244140625 -43.6162109375 c 2
 132.877929688 -7.6162109375 l 2
 168.580078125 12.99609375 221.604492188 21.462890625 269.176757812 21.462890625 c 0
 307.140625 21.462890625 347.711914062 13.6337890625 380.822265625 -2.4921875 c 1
 380.822265625 273.73046875 l 1
 371.822265625 268.534179688 l 1
 367.822265625 275.461914062 l 1
 367.822265625 275.461914062 379.05859375 285.833984375 380.638671875 286.74609375 c 0
 401.491210938 298.751953125 422.27734375 310.854492188 443.172851562 322.798828125 c 1
 443.172851562 322.798828125 447.172851562 315.87109375 447.176757812 315.854492188 c 2
 447.176757812 -69.4658203125 l 2
 447.176757812 -83.7646484375 447.176757812 -112.16796875 455.078125 -129.719726562 c 0
 458.852539062 -134.751953125 463.82421875 -137.8671875 470.372070312 -137.8671875 c 0
 475.102539062 -137.8671875 480.65625 -136.241210938 487.17578125 -132.537109375 c 1
 491.17578125 -139.46484375 l 1
 428.822265625 -175.46484375 l 2
 422.302734375 -179.168945312 416.749023438 -180.794921875 412.018554688 -180.794921875 c 0
 401.174804688 -180.794921875 397.400390625 -174.2578125 390.623046875 -162.518554688 c 0
 380.823242188 -145.543945312 380.823242188 -113.899414062 380.823242188 -98.5361328125 c 1
EndSplineSet
EndChar

StartChar: gargCH
Encoding: 58828 58828 102
Width: 481
GlyphClass: 2
Flags: MW
HStem: -21.2397 42.4934 279.326 42.9282 453.346 89.9077
VStem: 192.684 100.374 198.147 66.1039
LayerCount: 2
Fore
SplineSet
196.684570312 500.326171875 m 1x30
 192.684570312 507.25390625 l 1
 255.038085938 543.25390625 l 1
 289.05859375 496.274414062 l 1
 293.05859375 489.346679688 l 1
 230.705078125 453.346679688 l 1
 196.684570312 500.326171875 l 1x30
130.721679688 322.25390625 m 0xc8
 164.33203125 322.25390625 210.112304688 322.46875 263.064453125 322.719726562 c 2
 263.064453125 322.719726562 263.176757812 322.784179688 263.213867188 322.720703125 c 0
 310.84375 322.9453125 358.440429688 323.16796875 392.712890625 323.16796875 c 0
 423.010742188 323.16796875 442.895507812 322.994140625 443.18359375 322.495117188 c 2
 443.18359375 322.495117188 447.18359375 315.56640625 447.176757812 315.536132812 c 0
 447.176757812 314.841796875 380.5078125 276.250976562 367.823242188 269.536132812 c 1
 365.790039062 273.067382812 363.728515625 276.5703125 361.763671875 280.170898438 c 0
 354.139648438 280.21875 344.876953125 280.240234375 334.359375 280.240234375 c 0
 315.239257812 280.240234375 291.971679688 280.170898438 266.866210938 280.0703125 c 1
 264.62109375 21.7265625 l 1
 311.780273438 21.9501953125 358.778320312 22.16796875 392.712890625 22.16796875 c 0
 423.010742188 22.16796875 442.895507812 21.994140625 443.18359375 21.4951171875 c 2
 443.18359375 21.4951171875 447.18359375 14.56640625 447.176757812 14.5361328125 c 0
 447.176757812 13.841796875 380.5078125 -24.7490234375 367.823242188 -31.4638671875 c 1
 365.790039062 -27.9326171875 363.728515625 -24.4296875 361.763671875 -20.8291015625 c 0
 354.139648438 -20.78125 344.876953125 -20.759765625 334.359375 -20.759765625 c 0
 314.577148438 -20.759765625 290.35546875 -20.833984375 264.250976562 -20.9404296875 c 1
 263.176757812 -144.552734375 l 1
 200.823242188 -180.552734375 l 1
 196.823242188 -173.625 l 1
 198.147460938 -21.2392578125 l 1
 151.4765625 -21.4609375 105.375 -21.6748046875 72.3681640625 -21.6748046875 c 0
 54.8994140625 -21.6748046875 41.0986328125 -21.6142578125 32.8232421875 -21.4638671875 c 1
 28.8232421875 -14.5361328125 l 1
 55.0205078125 1.7177734375 82.3955078125 16.794921875 109.176757812 32.4638671875 c 1
 111.25390625 28.83203125 113.473632812 25.341796875 115.114257812 21.2734375 c 1
 119.899414062 21.259765625 125.122070312 21.25390625 130.721679688 21.25390625 c 0
 149.763671875 21.25390625 173.1640625 21.3251953125 198.517578125 21.427734375 c 1
 200.76171875 279.772460938 l 1
 153.203125 279.547851562 105.991210938 279.325195312 72.3681640625 279.325195312 c 0
 54.8994140625 279.325195312 41.0986328125 279.385742188 32.8232421875 279.536132812 c 1
 28.8232421875 286.463867188 l 1
 46.8232421875 297.463867188 46.8232421875 297.463867188 109.176757812 333.463867188 c 1
 111.25390625 329.83203125 113.473632812 326.341796875 115.114257812 322.2734375 c 1
 119.899414062 322.259765625 125.122070312 322.25390625 130.721679688 322.25390625 c 0xc8
EndSplineSet
EndChar

StartChar: gargJ
Encoding: 58829 58829 103
Width: 481
GlyphClass: 2
Flags: MW
HStem: -21.2383 42.492 257.928 42.9282 333.549 42.9282 453.346 89.9077
VStem: 192.684 100.374 198.447 66.0471 380.825 66.3538
LayerCount: 2
Fore
SplineSet
196.684570312 500.326171875 m 1x18
 192.684570312 507.25390625 l 1
 255.038085938 543.25390625 l 1
 289.05859375 496.274414062 l 1
 293.05859375 489.346679688 l 1
 230.705078125 453.346679688 l 1
 196.684570312 500.326171875 l 1x18
95.1767578125 325.536132812 m 2xe6
 95.1767578125 325.536132812 95.296875 323.750976562 95.5322265625 322.8515625 c 0
 105.868164062 311.2421875 133.57421875 300.856445312 167.489257812 300.856445312 c 0
 186.655273438 300.856445312 207.803710938 304.172851562 228.921875 312.4609375 c 2
 285.8359375 345.3203125 l 2
 323.439453125 367.030273438 360.247070312 376.477539062 388.794921875 376.477539062 c 0
 413.838867188 376.477539062 432.52734375 369.208007812 439.82421875 356.5703125 c 0
 445.881835938 346.077148438 447.178710938 343.831054688 447.178710938 336.85546875 c 0
 447.178710938 320.176757812 432.11328125 311.048828125 415.375 300.9296875 c 0
 400.078125 291.681640625 400.078125 291.681640625 342.823242188 258.625976562 c 1
 338.823242188 265.553710938 l 1
 342.208984375 267.740234375 345.646484375 269.817382812 349.021484375 271.858398438 c 0
 365.751953125 281.97265625 380.825195312 291.1015625 380.825195312 307.784179688 c 0
 380.825195312 311.067382812 380.259765625 314.139648438 379.17578125 316.985351562 c 0
 370.688476562 327.553710938 353.185546875 333.549804688 330.44140625 333.549804688 c 0
 312.357421875 333.549804688 290.958984375 329.758789062 268.14453125 321.4609375 c 1
 264.94921875 21.728515625 l 1
 311.998046875 21.951171875 358.856445312 22.16796875 392.712890625 22.16796875 c 0
 423.010742188 22.16796875 442.895507812 21.994140625 443.18359375 21.4951171875 c 2
 443.18359375 21.4951171875 447.18359375 14.56640625 447.176757812 14.5361328125 c 0
 447.176757812 13.841796875 380.5078125 -24.7490234375 367.823242188 -31.4638671875 c 1
 365.790039062 -27.9326171875 363.728515625 -24.4296875 361.763671875 -20.8291015625 c 0
 354.139648438 -20.78125 344.876953125 -20.759765625 334.359375 -20.759765625 c 0
 314.638671875 -20.759765625 290.505859375 -20.833984375 264.494140625 -20.939453125 c 1
 263.176757812 -144.552734375 l 1
 200.823242188 -180.552734375 l 1
 196.823242188 -173.625 l 1
 198.447265625 -21.23828125 l 1
 151.673828125 -21.4599609375 105.4453125 -21.6748046875 72.3681640625 -21.6748046875 c 0
 54.8994140625 -21.6748046875 41.0986328125 -21.6142578125 32.8232421875 -21.4638671875 c 1
 28.8232421875 -14.5361328125 l 1
 55.0205078125 1.7177734375 82.3955078125 16.794921875 109.176757812 32.4638671875 c 1
 111.25390625 28.83203125 113.473632812 25.341796875 115.114257812 21.2734375 c 1
 119.899414062 21.259765625 125.122070312 21.25390625 130.721679688 21.25390625 c 0
 149.860351562 21.25390625 173.400390625 21.3251953125 198.90234375 21.4287109375 c 1
 201.715820312 285.369140625 l 1
 182.733398438 274.41015625 154.185546875 257.927734375 109.134765625 257.927734375 c 0
 71.865234375 257.927734375 42.0927734375 270.470703125 34.630859375 283.395507812 c 0
 28.908203125 293.30859375 28.8232421875 293.455078125 28.8232421875 296.463867188 c 0
 28.8232421875 312.463867188 50.8232421875 329.463867188 69.8232421875 340.553710938 c 2
 132.176757812 376.553710938 l 1
 136.176757812 369.625976562 l 1
 117.176757812 358.536132812 95.1767578125 341.536132812 95.1767578125 325.536132812 c 2xe6
EndSplineSet
EndChar

StartChar: gargNY
Encoding: 58830 58830 104
Width: 481
GlyphClass: 2
Flags: MW
HStem: -21.2397 42.4934 302.784 20G 406.346 89.9077
VStem: 192.684 100.374 198.147 66.1039
LayerCount: 2
Fore
SplineSet
196.684570312 453.326171875 m 1x30
 192.684570312 460.25390625 l 1
 255.038085938 496.25390625 l 1
 289.05859375 449.274414062 l 1
 293.05859375 442.346679688 l 1
 230.705078125 406.346679688 l 1
 196.684570312 453.326171875 l 1x30
72.3681640625 -21.6748046875 m 0xc8
 54.8994140625 -21.6748046875 41.0986328125 -21.6142578125 32.8232421875 -21.4638671875 c 1
 28.8232421875 -14.5361328125 l 1
 55.0205078125 1.7177734375 82.3955078125 16.794921875 109.176757812 32.4638671875 c 1
 111.25390625 28.83203125 113.473632812 25.341796875 115.114257812 21.2734375 c 1
 119.899414062 21.259765625 125.122070312 21.25390625 130.721679688 21.25390625 c 0
 149.763671875 21.25390625 173.1640625 21.3251953125 198.517578125 21.427734375 c 1
 200.7265625 275.676757812 l 1
 191.823242188 270.536132812 l 1
 187.823242188 277.463867188 l 1
 187.823242188 277.463867188 199.823242188 285.463867188 200.823242188 286.784179688 c 2
 263.176757812 322.784179688 l 1
 267.176757812 315.856445312 l 1
 264.62109375 21.7265625 l 1
 311.780273438 21.9501953125 358.778320312 22.16796875 392.712890625 22.16796875 c 0
 423.010742188 22.16796875 442.895507812 21.994140625 443.18359375 21.4951171875 c 2
 443.18359375 21.4951171875 447.18359375 14.56640625 447.176757812 14.5361328125 c 0
 447.176757812 13.841796875 380.5078125 -24.7490234375 367.823242188 -31.4638671875 c 1
 365.790039062 -27.9326171875 363.728515625 -24.4296875 361.763671875 -20.8291015625 c 0
 354.139648438 -20.78125 344.876953125 -20.759765625 334.359375 -20.759765625 c 0
 314.577148438 -20.759765625 290.35546875 -20.833984375 264.250976562 -20.9404296875 c 1
 263.176757812 -144.552734375 l 1
 200.823242188 -180.552734375 l 1
 196.823242188 -173.625 l 1
 198.147460938 -21.2392578125 l 1
 151.4765625 -21.4609375 105.375 -21.6748046875 72.3681640625 -21.6748046875 c 0xc8
EndSplineSet
EndChar

StartChar: gargSH
Encoding: 58831 58831 105
Width: 481
GlyphClass: 2
Flags: MW
HStem: -21.2397 42.4934 279.326 42.9282
VStem: 198.147 66.1039
LayerCount: 2
Fore
SplineSet
130.721679688 322.25390625 m 0
 164.33203125 322.25390625 210.116210938 322.47265625 263.068359375 322.723632812 c 2
 263.068359375 322.723632812 263.180664062 322.788085938 263.217773438 322.723632812 c 0
 310.84765625 322.94921875 358.444335938 323.171875 392.716796875 323.171875 c 0
 423.014648438 323.171875 442.899414062 322.998046875 443.1875 322.499023438 c 2
 443.1875 322.499023438 447.1875 315.571289062 447.180664062 315.540039062 c 0
 447.180664062 314.845703125 380.510742188 276.254882812 367.826171875 269.540039062 c 1
 365.79296875 273.071289062 363.731445312 276.57421875 361.766601562 280.174804688 c 0
 354.142578125 280.22265625 344.879882812 280.243164062 334.362304688 280.243164062 c 0
 315.2421875 280.243164062 291.975585938 280.173828125 266.869140625 280.073242188 c 1
 264.625 21.7294921875 l 1
 311.783203125 21.953125 358.78125 22.1708984375 392.715820312 22.1708984375 c 0
 423.013671875 22.1708984375 442.8984375 21.9970703125 443.186523438 21.498046875 c 2
 443.186523438 21.498046875 447.186523438 14.5703125 447.1796875 14.5390625 c 0
 447.1796875 13.8447265625 380.509765625 -24.74609375 367.825195312 -31.4609375 c 1
 365.791992188 -27.9296875 363.73046875 -24.4267578125 361.765625 -20.826171875 c 0
 354.141601562 -20.7783203125 344.87890625 -20.7578125 334.361328125 -20.7578125 c 0
 314.579101562 -20.7578125 290.357421875 -20.83203125 264.252929688 -20.9384765625 c 1
 263.178710938 -144.551757812 l 1
 200.825195312 -180.551757812 l 1
 196.825195312 -173.624023438 l 1
 198.149414062 -21.2392578125 l 1
 151.478515625 -21.4599609375 105.376953125 -21.673828125 72.3701171875 -21.673828125 c 0
 54.9013671875 -21.673828125 41.1005859375 -21.6142578125 32.82421875 -21.4638671875 c 1
 28.82421875 -14.5361328125 l 1
 55.021484375 1.7177734375 82.396484375 16.794921875 109.178710938 32.46484375 c 1
 111.255859375 28.8330078125 113.475585938 25.3427734375 115.116210938 21.2744140625 c 1
 119.901367188 21.2607421875 125.124023438 21.2548828125 130.723632812 21.2548828125 c 0
 149.765625 21.2548828125 173.166015625 21.326171875 198.51953125 21.4287109375 c 1
 200.763671875 279.7734375 l 1
 153.204101562 279.547851562 105.9921875 279.326171875 72.369140625 279.326171875 c 0
 54.900390625 279.326171875 41.099609375 279.385742188 32.8232421875 279.536132812 c 1
 28.8232421875 286.463867188 l 1
 46.8232421875 297.463867188 46.8232421875 297.463867188 109.176757812 333.463867188 c 1
 111.25390625 329.83203125 113.473632812 326.341796875 115.114257812 322.2734375 c 1
 119.899414062 322.259765625 125.122070312 322.25390625 130.721679688 322.25390625 c 0
EndSplineSet
EndChar

StartChar: gargZH
Encoding: 58832 58832 106
Width: 481
GlyphClass: 2
Flags: MW
HStem: -21.2383 42.492 257.928 42.9282 333.549 42.9282
VStem: 198.447 66.0471 380.825 66.3538
LayerCount: 2
Fore
SplineSet
95.1767578125 325.536132812 m 2
 95.1767578125 325.536132812 95.298828125 323.751953125 95.5341796875 322.852539062 c 0
 105.87109375 311.243164062 133.577148438 300.857421875 167.4921875 300.857421875 c 0
 186.658203125 300.857421875 207.807617188 304.174804688 228.92578125 312.462890625 c 2
 285.83984375 345.322265625 l 2
 323.443359375 367.032226562 360.25 376.479492188 388.798828125 376.479492188 c 0
 413.841796875 376.479492188 432.530273438 369.209960938 439.827148438 356.572265625 c 0
 445.885742188 346.079101562 447.182617188 343.833007812 447.182617188 336.857421875 c 0
 447.182617188 320.178710938 432.1171875 311.05078125 415.37890625 300.931640625 c 0
 400.081054688 291.68359375 400.081054688 291.68359375 342.826171875 258.627929688 c 1
 338.826171875 265.555664062 l 1
 342.211914062 267.741210938 345.649414062 269.819335938 349.024414062 271.859375 c 0
 365.754882812 281.973632812 380.828125 291.103515625 380.828125 307.78515625 c 0
 380.828125 311.068359375 380.262695312 314.141601562 379.178710938 316.987304688 c 0
 370.690429688 327.5546875 353.1875 333.55078125 330.443359375 333.55078125 c 0
 312.359375 333.55078125 290.9609375 329.759765625 268.145507812 321.462890625 c 1
 264.950195312 21.7294921875 l 1
 311.999023438 21.9521484375 358.858398438 22.1689453125 392.71484375 22.1689453125 c 0
 423.012695312 22.1689453125 442.897460938 21.9951171875 443.185546875 21.49609375 c 2
 443.185546875 21.49609375 447.185546875 14.568359375 447.178710938 14.537109375 c 0
 447.178710938 13.8427734375 380.508789062 -24.748046875 367.82421875 -31.462890625 c 1
 365.791015625 -27.931640625 363.729492188 -24.4287109375 361.764648438 -20.828125 c 0
 354.140625 -20.7802734375 344.877929688 -20.759765625 334.360351562 -20.759765625 c 0
 314.639648438 -20.759765625 290.5078125 -20.8330078125 264.49609375 -20.9384765625 c 1
 263.178710938 -144.552734375 l 1
 200.825195312 -180.552734375 l 1
 196.825195312 -173.625 l 1
 198.44921875 -21.23828125 l 1
 151.67578125 -21.4599609375 105.447265625 -21.6748046875 72.3701171875 -21.6748046875 c 0
 54.9013671875 -21.6748046875 41.1005859375 -21.615234375 32.82421875 -21.46484375 c 1
 28.82421875 -14.537109375 l 1
 55.021484375 1.716796875 82.396484375 16.7939453125 109.177734375 32.4638671875 c 1
 111.254882812 28.83203125 113.474609375 25.341796875 115.115234375 21.2734375 c 1
 119.900390625 21.259765625 125.123046875 21.25390625 130.72265625 21.25390625 c 0
 149.860351562 21.25390625 173.401367188 21.326171875 198.90234375 21.4296875 c 1
 201.715820312 285.370117188 l 1
 182.733398438 274.41015625 154.185546875 257.927734375 109.135742188 257.927734375 c 0
 71.865234375 257.927734375 42.09375 270.470703125 34.6318359375 283.395507812 c 0
 28.908203125 293.30859375 28.8232421875 293.455078125 28.8232421875 296.463867188 c 0
 28.8232421875 312.463867188 50.8232421875 329.463867188 69.8232421875 340.553710938 c 2
 132.176757812 376.553710938 l 1
 136.176757812 369.625976562 l 1
 117.176757812 358.536132812 95.1767578125 341.536132812 95.1767578125 325.536132812 c 2
EndSplineSet
EndChar

StartChar: gargI
Encoding: 58833 58833 107
Width: 481
GlyphClass: 2
Flags: MW
HStem: -21.2397 42.4934 302.784 20G
VStem: 198.147 66.1039
LayerCount: 2
Fore
SplineSet
72.3681640625 -21.6748046875 m 0
 54.8994140625 -21.6748046875 41.1005859375 -21.6142578125 32.82421875 -21.4638671875 c 1
 28.82421875 -14.5361328125 l 1
 55.021484375 1.7177734375 82.396484375 16.794921875 109.178710938 32.46484375 c 1
 111.255859375 28.8330078125 113.475585938 25.3427734375 115.116210938 21.2744140625 c 1
 119.901367188 21.2607421875 125.124023438 21.2548828125 130.723632812 21.2548828125 c 0
 149.765625 21.2548828125 173.166015625 21.326171875 198.51953125 21.4287109375 c 1
 200.728515625 275.677734375 l 1
 191.825195312 270.537109375 l 1
 187.825195312 277.46484375 l 1
 187.825195312 277.46484375 199.825195312 285.46484375 200.825195312 286.78515625 c 2
 263.178710938 322.78515625 l 1
 267.178710938 315.857421875 l 1
 264.623046875 21.728515625 l 1
 311.78125 21.9521484375 358.779296875 22.169921875 392.713867188 22.169921875 c 0
 423.01171875 22.169921875 442.896484375 21.99609375 443.184570312 21.4970703125 c 2
 443.184570312 21.4970703125 447.184570312 14.5693359375 447.177734375 14.5380859375 c 0
 447.177734375 13.84375 380.5078125 -24.7470703125 367.823242188 -31.4619140625 c 1
 365.790039062 -27.9306640625 363.728515625 -24.427734375 361.763671875 -20.8271484375 c 0
 354.139648438 -20.779296875 344.876953125 -20.7587890625 334.359375 -20.7587890625 c 0
 314.577148438 -20.7587890625 290.35546875 -20.8330078125 264.250976562 -20.939453125 c 1
 263.176757812 -144.552734375 l 1
 200.823242188 -180.552734375 l 1
 196.823242188 -173.625 l 1
 198.147460938 -21.240234375 l 1
 151.4765625 -21.4609375 105.375 -21.6748046875 72.3681640625 -21.6748046875 c 0
EndSplineSet
EndChar

StartChar: gargKL
Encoding: 58834 58834 108
Width: 481
GlyphClass: 2
Flags: MW
HStem: -22.1576 42.9282 310.907 42.9282 321.536 42.9282 453.346 89.9077
VStem: 28.8231 66.3538 192.684 100.374 218.823 66.3538 380.823 66.3538
LayerCount: 2
Fore
SplineSet
196.684570312 500.326171875 m 1x14
 192.684570312 507.25390625 l 1
 255.038085938 543.25390625 l 1
 289.05859375 496.274414062 l 1
 293.05859375 489.346679688 l 1
 230.705078125 453.346679688 l 1
 196.684570312 500.326171875 l 1x14
401.625 310.907226562 m 0xcb
 344.608398438 310.907226562 222.733398438 321.536132812 167.823242188 321.536132812 c 0
 142.779296875 321.536132812 117.302734375 321.465820312 95.328125 319.127929688 c 0
 95.2275390625 318.06640625 95.1767578125 316.9765625 95.1767578125 315.856445312 c 2
 95.1767578125 -33.9609375 l 1
 99.19921875 -31.2314453125 99.19921875 -31.2314453125 165.6171875 7.1142578125 c 0
 181.779296875 16.4462890625 197.640625 20.7705078125 212.184570312 20.7705078125 c 0
 236.575195312 20.7705078125 257.260742188 8.607421875 269.448242188 -12.501953125 c 0
 274.123046875 -20.599609375 274.123046875 -20.599609375 274.76171875 -21.8017578125 c 1
 324.9140625 7.1533203125 l 2
 341.369140625 16.654296875 357.595703125 21.05078125 372.5078125 21.05078125 c 0
 397.637695312 21.05078125 419.03515625 8.5634765625 431.501953125 -13.0302734375 c 0
 439.173828125 -26.318359375 447.176757812 -40.1796875 447.176757812 -67.4638671875 c 0
 447.176757812 -130.463867188 414.176757812 -162.552734375 376.176757812 -186.463867188 c 2
 313.823242188 -222.463867188 l 1
 309.823242188 -215.536132812 l 1
 347.823242188 -191.625 380.823242188 -159.536132812 380.823242188 -96.5361328125 c 0
 380.823242188 -79.619140625 377.295898438 -64.783203125 371.067382812 -52.5654296875 c 0
 358.376953125 -33.0625 337.9375 -21.8779296875 314.153320312 -21.8779296875 c 0
 309.021484375 -21.8779296875 303.733398438 -22.3984375 298.333984375 -23.46875 c 0
 292.884765625 -28.8408203125 287.486328125 -34.8310546875 282.170898438 -41.4677734375 c 1
 284.130859375 -49.4345703125 285.176757812 -58.1298828125 285.176757812 -67.4638671875 c 0
 285.176757812 -130.463867188 252.176757812 -162.552734375 214.176757812 -186.463867188 c 2
 151.823242188 -222.463867188 l 1
 147.823242188 -215.536132812 l 1
 185.823242188 -191.625 218.823242188 -159.536132812 218.823242188 -96.5361328125 c 0
 218.823242188 -79.353515625 215.27734375 -64.3359375 209.013671875 -52.0390625 c 0
 196.627929688 -33.0234375 176.883789062 -22.1572265625 153.831054688 -22.1572265625 c 0
 148.997070312 -22.1572265625 144.018554688 -22.634765625 138.931640625 -23.615234375 c 0
 123.765625 -38.5751953125 108.899414062 -58.3359375 95.1767578125 -83.4638671875 c 1
 95.1767578125 -144.552734375 l 1
 32.8232421875 -180.552734375 l 1
 28.8232421875 -173.625 l 1
 28.8232421875 286.784179688 l 2
 28.8232421875 299.225585938 35.1181640625 307.954101562 45.72265625 314.077148438 c 2
 108.077148438 350.077148438 l 2
 132.583984375 364.2265625 180.111328125 364.463867188 226.176757812 364.463867188 c 0xab
 281.086914062 364.463867188 402.962890625 353.8359375 459.978515625 353.8359375 c 0
 475.071289062 353.8359375 485.619140625 354.580078125 489.176757812 356.463867188 c 1
 493.176757812 349.536132812 l 1
 430.823242188 313.536132812 l 2
 427.264648438 311.65234375 416.716796875 310.907226562 401.625 310.907226562 c 0xcb
EndSplineSet
EndChar

StartChar: gargGL
Encoding: 58835 58835 109
Width: 481
GlyphClass: 2
Flags: MW
HStem: -22.1576 42.9282 257.683 42.9282 333.435 42.9282 453.346 89.9077
VStem: 28.8231 66.3538 192.684 100.374 218.823 66.3538 380.823 66.3538
LayerCount: 2
Fore
SplineSet
196.684570312 500.326171875 m 1x14
 192.684570312 507.25390625 l 1
 255.038085938 543.25390625 l 1
 289.05859375 496.274414062 l 1
 293.05859375 489.346679688 l 1
 230.705078125 453.346679688 l 1
 196.684570312 500.326171875 l 1x14
28.8232421875 -173.625 m 1xeb
 28.8232421875 286.784179688 l 2
 28.8232421875 305.705078125 38.744140625 319.48828125 54.064453125 328.333007812 c 2
 116.41796875 364.333007812 l 2
 130.397460938 372.404296875 148.87109375 376.36328125 168.403320312 376.36328125 c 0
 206.4296875 376.36328125 248.470703125 361.357421875 269.176757812 332.463867188 c 0
 285.872070312 309.16796875 308.022460938 300.611328125 331.807617188 300.611328125 c 0
 356.940429688 300.611328125 383.899414062 310.165039062 408.178710938 321.978515625 c 2
 466.176757812 355.463867188 l 1
 470.176757812 348.536132812 l 1
 448.896484375 335.12890625 448.896484375 335.12890625 375.90234375 292.985351562 c 0
 346.131835938 275.797851562 308.061523438 257.682617188 273.454101562 257.682617188 c 0
 249.668945312 257.682617188 227.518554688 266.240234375 210.823242188 289.536132812 c 0
 190.116210938 318.428710938 148.076171875 333.435546875 110.049804688 333.435546875 c 0
 106.067382812 333.435546875 102.129882812 333.270507812 98.2646484375 332.940429688 c 0
 96.2607421875 327.801757812 95.1767578125 322.109375 95.1767578125 315.856445312 c 2
 95.1767578125 -33.9609375 l 1
 99.19921875 -31.2314453125 99.19921875 -31.2314453125 165.6171875 7.1142578125 c 0
 181.779296875 16.4462890625 197.640625 20.7705078125 212.184570312 20.7705078125 c 0
 236.575195312 20.7705078125 257.260742188 8.607421875 269.448242188 -12.501953125 c 0
 274.123046875 -20.599609375 274.123046875 -20.599609375 274.76171875 -21.8017578125 c 1
 324.9140625 7.1533203125 l 2
 341.369140625 16.654296875 357.595703125 21.05078125 372.5078125 21.05078125 c 0
 397.637695312 21.05078125 419.03515625 8.5634765625 431.501953125 -13.0302734375 c 0
 439.173828125 -26.318359375 447.176757812 -40.1796875 447.176757812 -67.4638671875 c 0
 447.176757812 -130.463867188 414.176757812 -162.552734375 376.176757812 -186.463867188 c 2
 313.823242188 -222.463867188 l 1
 309.823242188 -215.536132812 l 1
 347.823242188 -191.625 380.823242188 -159.536132812 380.823242188 -96.5361328125 c 0
 380.823242188 -79.619140625 377.295898438 -64.783203125 371.067382812 -52.5654296875 c 0
 358.376953125 -33.0625 337.9375 -21.8779296875 314.153320312 -21.8779296875 c 0
 309.021484375 -21.8779296875 303.733398438 -22.3984375 298.333984375 -23.46875 c 0
 292.884765625 -28.8408203125 287.486328125 -34.8310546875 282.170898438 -41.4677734375 c 1
 284.130859375 -49.4345703125 285.176757812 -58.1298828125 285.176757812 -67.4638671875 c 0
 285.176757812 -130.463867188 252.176757812 -162.552734375 214.176757812 -186.463867188 c 2
 151.823242188 -222.463867188 l 1
 147.823242188 -215.536132812 l 1
 185.823242188 -191.625 218.823242188 -159.536132812 218.823242188 -96.5361328125 c 0
 218.823242188 -79.353515625 215.27734375 -64.3359375 209.013671875 -52.0390625 c 0
 196.627929688 -33.0234375 176.883789062 -22.1572265625 153.831054688 -22.1572265625 c 0
 148.997070312 -22.1572265625 144.018554688 -22.634765625 138.931640625 -23.615234375 c 0
 123.765625 -38.5751953125 108.899414062 -58.3359375 95.1767578125 -83.4638671875 c 1
 95.1767578125 -144.552734375 l 1
 32.8232421875 -180.552734375 l 1
 28.8232421875 -173.625 l 1xeb
EndSplineSet
EndChar

StartChar: gargNL
Encoding: 58836 58836 110
Width: 481
GlyphClass: 2
Flags: MW
HStem: -22.1576 42.9282 115.346 89.9077
VStem: 28.8231 66.3538 218.823 66.3538 220.684 100.374 380.823 66.3538
LayerCount: 2
Fore
SplineSet
224.684570312 162.326171875 m 1x48
 220.684570312 169.25390625 l 1
 283.038085938 205.25390625 l 1
 317.05859375 158.274414062 l 1
 321.05859375 151.346679688 l 1
 258.705078125 115.346679688 l 1
 224.684570312 162.326171875 l 1x48
28.8232421875 286.784179688 m 1xb4
 28.8232421875 286.784179688 91.1767578125 322.784179688 91.21875 322.752929688 c 2
 91.21875 322.752929688 95.21875 315.825195312 95.228515625 315.786132812 c 0
 95.228515625 315.749023438 95.2109375 315.700195312 95.1767578125 315.640625 c 2
 95.1767578125 -33.9609375 l 1
 99.19921875 -31.2314453125 99.19921875 -31.2314453125 165.6171875 7.1142578125 c 0
 181.779296875 16.4462890625 197.640625 20.7705078125 212.184570312 20.7705078125 c 0
 236.575195312 20.7705078125 257.260742188 8.607421875 269.448242188 -12.501953125 c 0
 274.123046875 -20.599609375 274.123046875 -20.599609375 274.76171875 -21.8017578125 c 1
 324.9140625 7.1533203125 l 2
 341.369140625 16.654296875 357.595703125 21.05078125 372.5078125 21.05078125 c 0
 397.637695312 21.05078125 419.03515625 8.5634765625 431.501953125 -13.0302734375 c 0
 439.173828125 -26.318359375 447.176757812 -40.1796875 447.176757812 -67.4638671875 c 0
 447.176757812 -130.463867188 414.176757812 -162.552734375 376.176757812 -186.463867188 c 2
 313.823242188 -222.463867188 l 1
 309.823242188 -215.536132812 l 1
 347.823242188 -191.625 380.823242188 -159.536132812 380.823242188 -96.5361328125 c 0
 380.823242188 -79.619140625 377.295898438 -64.783203125 371.067382812 -52.5654296875 c 0
 358.376953125 -33.0625 337.9375 -21.8779296875 314.153320312 -21.8779296875 c 0
 309.021484375 -21.8779296875 303.733398438 -22.3984375 298.333984375 -23.46875 c 0
 292.884765625 -28.8408203125 287.486328125 -34.8310546875 282.170898438 -41.4677734375 c 1
 284.130859375 -49.4345703125 285.176757812 -58.1298828125 285.176757812 -67.4638671875 c 0
 285.176757812 -130.463867188 252.176757812 -162.552734375 214.176757812 -186.463867188 c 2
 151.823242188 -222.463867188 l 1
 147.823242188 -215.536132812 l 1
 185.823242188 -191.625 218.823242188 -159.536132812 218.823242188 -96.5361328125 c 0
 218.823242188 -79.353515625 215.27734375 -64.3359375 209.013671875 -52.0390625 c 0
 196.627929688 -33.0234375 176.883789062 -22.1572265625 153.831054688 -22.1572265625 c 0
 148.997070312 -22.1572265625 144.018554688 -22.634765625 138.931640625 -23.615234375 c 0
 123.765625 -38.5751953125 108.899414062 -58.3359375 95.1767578125 -83.4638671875 c 1
 95.1767578125 -144.552734375 l 1
 32.8232421875 -180.552734375 l 1
 28.8232421875 -173.625 l 1
 28.8232421875 273.732421875 l 1
 19.8232421875 268.536132812 l 1
 15.8232421875 275.463867188 l 1
 15.8232421875 275.463867188 27.9365234375 284.982421875 28.8232421875 286.568359375 c 2
 28.8232421875 286.784179688 l 1xb4
EndSplineSet
EndChar

StartChar: gargHL
Encoding: 58837 58837 111
Width: 481
GlyphClass: 2
Flags: MW
HStem: -22.1576 42.9282 310.907 42.9282 321.536 42.9282
VStem: 28.8231 66.3538 218.823 66.3538 380.823 66.3538
LayerCount: 2
Fore
SplineSet
401.625 310.907226562 m 0xdc
 344.609375 310.907226562 222.732421875 321.534179688 167.822265625 321.534179688 c 0
 142.778320312 321.534179688 117.301757812 321.463867188 95.3271484375 319.125976562 c 0
 95.2265625 318.065429688 95.17578125 316.975585938 95.17578125 315.85546875 c 2
 95.17578125 -33.9619140625 l 1
 99.1982421875 -31.232421875 99.1982421875 -31.232421875 165.616210938 7.1142578125 c 0
 181.778320312 16.4453125 197.639648438 20.76953125 212.18359375 20.76953125 c 0
 236.57421875 20.76953125 257.259765625 8.6064453125 269.447265625 -12.5029296875 c 0
 274.122070312 -20.6005859375 274.122070312 -20.6005859375 274.760742188 -21.8037109375 c 1
 324.913085938 7.15234375 l 2
 341.368164062 16.65234375 357.594726562 21.048828125 372.506835938 21.048828125 c 0
 397.637695312 21.048828125 419.03515625 8.5615234375 431.501953125 -13.0322265625 c 0
 439.173828125 -26.3193359375 447.176757812 -40.1806640625 447.176757812 -67.46484375 c 0
 447.176757812 -130.46484375 414.176757812 -162.553710938 376.176757812 -186.46484375 c 2
 313.823242188 -222.46484375 l 1
 309.823242188 -215.537109375 l 1
 347.823242188 -191.625976562 380.823242188 -159.537109375 380.823242188 -96.537109375 c 0
 380.823242188 -79.6201171875 377.295898438 -64.7841796875 371.067382812 -52.56640625 c 0
 358.376953125 -33.0634765625 337.9375 -21.87890625 314.154296875 -21.87890625 c 0
 309.021484375 -21.87890625 303.733398438 -22.3994140625 298.333984375 -23.4697265625 c 0
 292.885742188 -28.841796875 287.486328125 -34.8310546875 282.170898438 -41.4677734375 c 1
 284.130859375 -49.4345703125 285.176757812 -58.1298828125 285.176757812 -67.4638671875 c 0
 285.176757812 -130.463867188 252.176757812 -162.552734375 214.176757812 -186.463867188 c 2
 151.823242188 -222.463867188 l 1
 147.823242188 -215.536132812 l 1
 185.823242188 -191.625 218.823242188 -159.536132812 218.823242188 -96.5361328125 c 0
 218.823242188 -79.353515625 215.27734375 -64.3359375 209.013671875 -52.0390625 c 0
 196.626953125 -33.0234375 176.883789062 -22.1572265625 153.830078125 -22.1572265625 c 0
 148.997070312 -22.1572265625 144.018554688 -22.634765625 138.931640625 -23.615234375 c 0
 123.765625 -38.57421875 108.899414062 -58.3349609375 95.1767578125 -83.4638671875 c 1
 95.1767578125 -144.552734375 l 1
 32.8232421875 -180.552734375 l 1
 28.8232421875 -173.625 l 1
 28.8232421875 286.784179688 l 2
 28.8232421875 299.225585938 35.1181640625 307.954101562 45.7236328125 314.077148438 c 2
 108.077148438 350.077148438 l 2
 132.584960938 364.2265625 180.112304688 364.463867188 226.177734375 364.463867188 c 0xbc
 281.087890625 364.463867188 402.962890625 353.834960938 459.978515625 353.834960938 c 0
 475.071289062 353.834960938 485.619140625 354.580078125 489.177734375 356.463867188 c 1
 493.177734375 349.536132812 l 1
 430.82421875 313.536132812 l 2
 427.265625 311.65234375 416.717773438 310.907226562 401.625 310.907226562 c 0xdc
EndSplineSet
EndChar

StartChar: gargL
Encoding: 58838 58838 112
Width: 481
GlyphClass: 2
Flags: MW
HStem: -22.1576 42.9282 257.683 42.9282 333.435 42.9282
VStem: 28.8231 66.3538 218.823 66.3538 380.823 66.3538
LayerCount: 2
Fore
SplineSet
28.8232421875 -173.625 m 1
 28.8212890625 286.78515625 l 2
 28.8212890625 305.706054688 38.7421875 319.489257812 54.0625 328.333984375 c 2
 116.416015625 364.333984375 l 2
 130.39453125 372.404296875 148.868164062 376.364257812 168.401367188 376.364257812 c 0
 206.427734375 376.364257812 248.46875 361.358398438 269.17578125 332.465820312 c 0
 285.87109375 309.169921875 308.020507812 300.61328125 331.805664062 300.61328125 c 0
 356.938476562 300.61328125 383.897460938 310.166992188 408.177734375 321.981445312 c 2
 466.17578125 355.466796875 l 1
 470.17578125 348.5390625 l 1
 448.895507812 335.131835938 448.895507812 335.131835938 375.901367188 292.98828125 c 0
 346.130859375 275.799804688 308.060546875 257.684570312 273.453125 257.684570312 c 0
 249.66796875 257.684570312 227.518554688 266.241210938 210.823242188 289.537109375 c 0
 190.116210938 318.4296875 148.075195312 333.435546875 110.048828125 333.435546875 c 0
 106.06640625 333.435546875 102.12890625 333.270507812 98.263671875 332.940429688 c 0
 96.259765625 327.801757812 95.17578125 322.109375 95.17578125 315.85546875 c 2
 95.17578125 -33.9619140625 l 1
 99.1982421875 -31.232421875 99.1982421875 -31.232421875 165.616210938 7.1142578125 c 0
 181.778320312 16.4453125 197.639648438 20.76953125 212.18359375 20.76953125 c 0
 236.57421875 20.76953125 257.259765625 8.6064453125 269.447265625 -12.5029296875 c 0
 274.122070312 -20.6005859375 274.122070312 -20.6005859375 274.760742188 -21.8037109375 c 1
 324.913085938 7.15234375 l 2
 341.368164062 16.65234375 357.594726562 21.048828125 372.506835938 21.048828125 c 0
 397.637695312 21.048828125 419.03515625 8.5615234375 431.501953125 -13.0322265625 c 0
 439.173828125 -26.3193359375 447.176757812 -40.1806640625 447.176757812 -67.46484375 c 0
 447.176757812 -130.46484375 414.176757812 -162.553710938 376.176757812 -186.46484375 c 2
 313.823242188 -222.46484375 l 1
 309.823242188 -215.537109375 l 1
 347.823242188 -191.625976562 380.823242188 -159.537109375 380.823242188 -96.537109375 c 0
 380.823242188 -79.6201171875 377.295898438 -64.7841796875 371.067382812 -52.56640625 c 0
 358.376953125 -33.0634765625 337.9375 -21.87890625 314.154296875 -21.87890625 c 0
 309.021484375 -21.87890625 303.733398438 -22.3994140625 298.333984375 -23.4697265625 c 0
 292.885742188 -28.841796875 287.486328125 -34.8310546875 282.170898438 -41.4677734375 c 1
 284.130859375 -49.4345703125 285.176757812 -58.1298828125 285.176757812 -67.4638671875 c 0
 285.176757812 -130.463867188 252.176757812 -162.552734375 214.176757812 -186.463867188 c 2
 151.823242188 -222.463867188 l 1
 147.823242188 -215.536132812 l 1
 185.823242188 -191.625 218.823242188 -159.536132812 218.823242188 -96.5361328125 c 0
 218.823242188 -79.353515625 215.27734375 -64.3359375 209.013671875 -52.0390625 c 0
 196.626953125 -33.0234375 176.883789062 -22.1572265625 153.830078125 -22.1572265625 c 0
 148.997070312 -22.1572265625 144.018554688 -22.634765625 138.931640625 -23.615234375 c 0
 123.765625 -38.57421875 108.899414062 -58.3349609375 95.1767578125 -83.4638671875 c 1
 95.1767578125 -144.552734375 l 1
 32.8232421875 -180.552734375 l 1
 28.8232421875 -173.625 l 1
EndSplineSet
EndChar

StartChar: gargO
Encoding: 58839 58839 113
Width: 481
GlyphClass: 2
Flags: MW
HStem: -22.1576 42.9282
VStem: 28.8231 66.3538 218.823 66.3538 380.823 66.3538
LayerCount: 2
Fore
SplineSet
28.8232421875 286.784179688 m 1
 28.8232421875 286.784179688 91.1748046875 322.784179688 91.216796875 322.752929688 c 2
 91.216796875 322.752929688 95.216796875 315.825195312 95.2265625 315.786132812 c 0
 95.2265625 315.75 95.208984375 315.701171875 95.17578125 315.640625 c 2
 95.17578125 -33.9609375 l 1
 99.1982421875 -31.2314453125 99.1982421875 -31.2314453125 165.616210938 7.115234375 c 0
 181.778320312 16.4462890625 197.639648438 20.7705078125 212.18359375 20.7705078125 c 0
 236.57421875 20.7705078125 257.259765625 8.607421875 269.447265625 -12.501953125 c 0
 274.122070312 -20.599609375 274.122070312 -20.599609375 274.760742188 -21.802734375 c 1
 324.913085938 7.1533203125 l 2
 341.368164062 16.6533203125 357.594726562 21.0498046875 372.506835938 21.0498046875 c 0
 397.637695312 21.0498046875 419.03515625 8.5625 431.501953125 -13.03125 c 0
 439.173828125 -26.318359375 447.176757812 -40.1796875 447.176757812 -67.4638671875 c 0
 447.176757812 -130.463867188 414.176757812 -162.552734375 376.176757812 -186.463867188 c 2
 313.823242188 -222.463867188 l 1
 309.823242188 -215.536132812 l 1
 347.823242188 -191.625 380.823242188 -159.536132812 380.823242188 -96.5361328125 c 0
 380.823242188 -79.619140625 377.295898438 -64.783203125 371.067382812 -52.5654296875 c 0
 358.376953125 -33.0625 337.9375 -21.8779296875 314.154296875 -21.8779296875 c 0
 309.021484375 -21.8779296875 303.733398438 -22.3984375 298.333984375 -23.46875 c 0
 292.885742188 -28.8408203125 287.486328125 -34.830078125 282.170898438 -41.466796875 c 1
 284.130859375 -49.43359375 285.176757812 -58.12890625 285.176757812 -67.462890625 c 0
 285.176757812 -130.462890625 252.176757812 -162.551757812 214.176757812 -186.462890625 c 2
 151.823242188 -222.462890625 l 1
 147.823242188 -215.53515625 l 1
 185.823242188 -191.624023438 218.823242188 -159.53515625 218.823242188 -96.53515625 c 0
 218.823242188 -79.3525390625 215.27734375 -64.3349609375 209.013671875 -52.0380859375 c 0
 196.626953125 -33.0224609375 176.883789062 -22.15625 153.830078125 -22.15625 c 0
 148.997070312 -22.15625 144.018554688 -22.6337890625 138.931640625 -23.6142578125 c 0
 123.765625 -38.5732421875 108.899414062 -58.333984375 95.1767578125 -83.462890625 c 1
 95.1767578125 -144.551757812 l 1
 32.8232421875 -180.551757812 l 1
 28.8232421875 -173.624023438 l 1
 28.8232421875 273.732421875 l 1
 19.8232421875 268.536132812 l 1
 15.8232421875 275.463867188 l 1
 15.8232421875 275.463867188 27.9365234375 284.981445312 28.8232421875 286.568359375 c 2
 28.8232421875 286.784179688 l 1
EndSplineSet
EndChar

